Khula-ExtraBold.ufo
<glyph name="exclam.deva" format="1">
  <advance width="935"/>
  <unicode hex="0021"/>
  <outline>
    <contour>
      <point x="596" y="464" type="line"/>
      <point x="299" y="464" type="line"/>
      <point x="253" y="1316" type="line"/>
      <point x="642" y="1316" type="line"/>
    </contour>
    <contour>
      <point x="256" y="149" type="curve" smooth="yes"/>
      <point x="256" y="258"/>
      <point x="323" y="322"/>
      <point x="446" y="322" type="curve" smooth="yes"/>
      <point x="569" y="322"/>
      <point x="633" y="258"/>
      <point x="633" y="149" type="curve" smooth="yes"/>
      <point x="633" y="41"/>
      <point x="563" y="-23"/>
      <point x="446" y="-23" type="curve" smooth="yes"/>
      <point x="327" y="-23"/>
      <point x="256" y="41"/>
    </contour>
  </outline>
</glyph>
<glyph name="quotedbl.deva" format="1">
  <advance width="1126"/>
  <unicode hex="0022"/>
  <outline>
    <contour>
      <point x="509" y="1316" type="line"/>
      <point x="472" y="841" type="line"/>
      <point x="226" y="841" type="line"/>
      <point x="189" y="1316" type="line"/>
    </contour>
    <contour>
      <point x="937" y="1316" type="line"/>
      <point x="900" y="841" type="line"/>
      <point x="653" y="841" type="line"/>
      <point x="616" y="1316" type="line"/>
    </contour>
  </outline>
</glyph>
<glyph name="numbersign.deva" format="1">
  <advance width="1220"/>
  <unicode hex="0023"/>
  <outline>
    <contour>
      <point x="938" y="732" type="line"/>
      <point x="911" y="580" type="line"/>
      <point x="1129" y="580" type="line"/>
      <point x="1129" y="352" type="line"/>
      <point x="868" y="352" type="line"/>
      <point x="802" y="0" type="line"/>
      <point x="561" y="0" type="line"/>
      <point x="626" y="352" type="line"/>
      <point x="475" y="352" type="line"/>
      <point x="411" y="0" type="line"/>
      <point x="171" y="0" type="line"/>
      <point x="236" y="352" type="line"/>
      <point x="33" y="352" type="line"/>
      <point x="33" y="580" type="line"/>
      <point x="280" y="580" type="line"/>
      <point x="308" y="732" type="line"/>
      <point x="94" y="732" type="line"/>
      <point x="94" y="966" type="line"/>
      <point x="352" y="966" type="line"/>
      <point x="417" y="1316" type="line"/>
      <point x="658" y="1316" type="line"/>
      <point x="591" y="966" type="line"/>
      <point x="741" y="966" type="line"/>
      <point x="805" y="1316" type="line"/>
      <point x="1047" y="1316" type="line"/>
      <point x="981" y="966" type="line"/>
      <point x="1187" y="966" type="line"/>
      <point x="1187" y="732" type="line"/>
    </contour>
    <contour>
      <point x="520" y="580" type="line"/>
      <point x="669" y="580" type="line"/>
      <point x="697" y="732" type="line"/>
      <point x="547" y="732" type="line"/>
    </contour>
  </outline>
</glyph>
<glyph name="parenleft.deva" format="1">
  <advance width="857"/>
  <unicode hex="0028"/>
  <outline>
    <contour>
      <point x="162" y="524" type="curve" smooth="yes"/>
      <point x="162" y="872"/>
      <point x="247" y="1154"/>
      <point x="414" y="1353" type="curve"/>
      <point x="707" y="1353" type="line"/>
      <point x="632" y="1248"/>
      <point x="573" y="1124"/>
      <point x="532" y="982" type="curve" smooth="yes"/>
      <point x="491" y="840"/>
      <point x="471" y="688"/>
      <point x="471" y="526" type="curve" smooth="yes"/>
      <point x="471" y="369"/>
      <point x="491" y="221"/>
      <point x="530" y="80" type="curve" smooth="yes"/>
      <point x="570" y="-61"/>
      <point x="628" y="-185"/>
      <point x="705" y="-292" type="curve"/>
      <point x="414" y="-292" type="line"/>
      <point x="249" y="-101"/>
      <point x="162" y="179"/>
    </contour>
  </outline>
</glyph>
<glyph name="parenright.deva" format="1">
  <advance width="661"/>
  <unicode hex="0029"/>
  <outline>
    <contour>
      <point x="596" y="524" type="curve" smooth="yes"/>
      <point x="596" y="184"/>
      <point x="508" y="-100"/>
      <point x="343" y="-292" type="curve"/>
      <point x="51" y="-292" type="line"/>
      <point x="127" y="-189"/>
      <point x="185" y="-66"/>
      <point x="225" y="76" type="curve" smooth="yes"/>
      <point x="265" y="218"/>
      <point x="285" y="368"/>
      <point x="285" y="526" type="curve" smooth="yes"/>
      <point x="285" y="843"/>
      <point x="205" y="1136"/>
      <point x="49" y="1353" type="curve"/>
      <point x="343" y="1353" type="line"/>
      <point x="510" y="1153"/>
      <point x="596" y="863"/>
    </contour>
  </outline>
</glyph>
<glyph name="period.deva" format="1">
  <advance width="597"/>
  <unicode hex="002E"/>
  <outline>
    <contour>
      <point x="90" y="149" type="curve" smooth="yes"/>
      <point x="90" y="260"/>
      <point x="157" y="322"/>
      <point x="282" y="322" type="curve" smooth="yes"/>
      <point x="401" y="322"/>
      <point x="467" y="260"/>
      <point x="467" y="149" type="curve" smooth="yes"/>
      <point x="467" y="41"/>
      <point x="397" y="-23"/>
      <point x="282" y="-23" type="curve" smooth="yes"/>
      <point x="163" y="-23"/>
      <point x="90" y="40"/>
    </contour>
  </outline>
</glyph>
<glyph name="three.deva" format="1">
  <advance width="1080"/>
  <unicode hex="0033"/>
  <outline>
    <contour>
      <point x="966" y="1030" type="curve" smooth="yes"/>
      <point x="966" y="867"/>
      <point x="863" y="746"/>
      <point x="675" y="693" type="curve"/>
      <point x="675" y="688" type="line"/>
      <point x="894" y="660"/>
      <point x="1004" y="556"/>
      <point x="1004" y="376" type="curve" smooth="yes"/>
      <point x="1004" y="254"/>
      <point x="956" y="158"/>
      <point x="859" y="87" type="curve" smooth="yes"/>
      <point x="762" y="17"/>
      <point x="628" y="-18"/>
      <point x="455" y="-18" type="curve" smooth="yes"/>
      <point x="384" y="-18"/>
      <point x="319" y="-13"/>
      <point x="258" y="-2" type="curve" smooth="yes"/>
      <point x="198" y="8"/>
      <point x="133" y="26"/>
      <point x="63" y="53" type="curve"/>
      <point x="63" y="348" type="line"/>
      <point x="178" y="289"/>
      <point x="303" y="262"/>
      <point x="404" y="262" type="curve" smooth="yes"/>
      <point x="560" y="262"/>
      <point x="628" y="305"/>
      <point x="628" y="398" type="curve" smooth="yes"/>
      <point x="628" y="504"/>
      <point x="549" y="536"/>
      <point x="348" y="540" type="curve"/>
      <point x="267" y="540" type="line"/>
      <point x="267" y="807" type="line"/>
      <point x="350" y="807" type="line" smooth="yes"/>
      <point x="531" y="807"/>
      <point x="621" y="853"/>
      <point x="621" y="946" type="curve" smooth="yes"/>
      <point x="621" y="1015"/>
      <point x="564" y="1048"/>
      <point x="473" y="1048" type="curve" smooth="yes"/>
      <point x="389" y="1048"/>
      <point x="302" y="1020"/>
      <point x="212" y="964" type="curve"/>
      <point x="65" y="1201" type="line"/>
      <point x="134" y="1249"/>
      <point x="205" y="1283"/>
      <point x="278" y="1304" type="curve" smooth="yes"/>
      <point x="351" y="1325"/>
      <point x="435" y="1335"/>
      <point x="529" y="1335" type="curve" smooth="yes"/>
      <point x="665" y="1335"/>
      <point x="772" y="1308"/>
      <point x="849" y="1254" type="curve" smooth="yes"/>
      <point x="927" y="1200"/>
      <point x="966" y="1125"/>
    </contour>
  </outline>
</glyph>
<glyph name="colon.deva" format="1">
  <advance width="597"/>
  <unicode hex="003A"/>
  <outline>
    <contour>
      <point x="90" y="149" type="curve" smooth="yes"/>
      <point x="90" y="260"/>
      <point x="157" y="322"/>
      <point x="282" y="322" type="curve" smooth="yes"/>
      <point x="401" y="322"/>
      <point x="467" y="260"/>
      <point x="467" y="149" type="curve" smooth="yes"/>
      <point x="467" y="41"/>
      <point x="397" y="-23"/>
      <point x="282" y="-23" type="curve" smooth="yes"/>
      <point x="163" y="-23"/>
      <point x="90" y="40"/>
    </contour>
    <contour>
      <point x="90" y="860" type="curve" smooth="yes"/>
      <point x="90" y="969"/>
      <point x="158" y="1032"/>
      <point x="282" y="1032" type="curve" smooth="yes"/>
      <point x="401" y="1032"/>
      <point x="467" y="969"/>
      <point x="467" y="860" type="curve" smooth="yes"/>
      <point x="467" y="752"/>
      <point x="398" y="688"/>
      <point x="282" y="688" type="curve" smooth="yes"/>
      <point x="159" y="688"/>
      <point x="90" y="752"/>
    </contour>
  </outline>
</glyph>
<glyph name="semicolon.deva" format="1">
  <advance width="679"/>
  <unicode hex="003B"/>
  <outline>
    <contour>
      <point x="477" y="269" type="line"/>
      <point x="490" y="248" type="line"/>
      <point x="431" y="19"/>
      <point x="378" y="-149"/>
      <point x="331" y="-257" type="curve"/>
      <point x="80" y="-257" type="line"/>
      <point x="97" y="-174"/>
      <point x="115" y="-81"/>
      <point x="132" y="22" type="curve" smooth="yes"/>
      <point x="150" y="125"/>
      <point x="162" y="207"/>
      <point x="169" y="269" type="curve"/>
    </contour>
    <contour>
      <point x="112" y="860" type="curve" smooth="yes"/>
      <point x="112" y="969"/>
      <point x="177" y="1032"/>
      <point x="302" y="1032" type="curve" smooth="yes"/>
      <point x="422" y="1032"/>
      <point x="488" y="968"/>
      <point x="488" y="860" type="curve" smooth="yes"/>
      <point x="488" y="752"/>
      <point x="421" y="688"/>
      <point x="302" y="688" type="curve" smooth="yes"/>
      <point x="179" y="688"/>
      <point x="112" y="751"/>
    </contour>
  </outline>
</glyph>
<glyph name="I" format="1">
  <advance width="642"/>
  <unicode hex="0049"/>
  <outline>
    <contour>
      <point x="142" y="0" type="line"/>
      <point x="142" y="1316" type="line"/>
      <point x="499" y="1316" type="line"/>
      <point x="499" y="0" type="line"/>
    </contour>
  </outline>
</glyph>
<glyph name="V" format="1">
  <advance width="1279"/>
  <unicode hex="0056"/>
  <outline>
    <contour>
      <point x="881" y="1316" type="line"/>
      <point x="1279" y="1316" type="line"/>
      <point x="848" y="0" type="line"/>
      <point x="429" y="0" type="line"/>
      <point x="0" y="1316" type="line"/>
      <point x="400" y="1316" type="line"/>
      <point x="579" y="649" type="line"/>
      <point x="616" y="501"/>
      <point x="636" y="398"/>
      <point x="640" y="339" type="curve"/>
      <point x="644" y="381"/>
      <point x="652" y="433"/>
      <point x="665" y="496" type="curve" smooth="yes"/>
      <point x="678" y="559"/>
      <point x="689" y="609"/>
      <point x="698" y="645" type="curve"/>
    </contour>
  </outline>
</glyph>
<glyph name="grave" format="1">
  <advance width="1103"/>
  <unicode hex="0060"/>
  <outline>
    <contour>
      <point x="626" y="1241" type="line"/>
      <point x="585" y="1267"/>
      <point x="524" y="1309"/>
      <point x="443" y="1365" type="curve" smooth="yes"/>
      <point x="363" y="1422"/>
      <point x="294" y="1473"/>
      <point x="238" y="1517" type="curve"/>
      <point x="238" y="1536" type="line"/>
      <point x="625" y="1536" type="line"/>
      <point x="656" y="1494"/>
      <point x="716" y="1425"/>
      <point x="807" y="1327" type="curve"/>
      <point x="860" y="1267" type="line"/>
      <point x="860" y="1241" type="line"/>
    </contour>
  </outline>
</glyph>
<glyph name="b" format="1">
  <advance width="1185"/>
  <unicode hex="0062"/>
  <outline>
    <contour>
      <point x="744" y="1038" type="curve" smooth="yes"/>
      <point x="855" y="1038"/>
      <point x="943" y="991"/>
      <point x="1008" y="898" type="curve" smooth="yes"/>
      <point x="1073" y="805"/>
      <point x="1106" y="677"/>
      <point x="1106" y="512" type="curve" smooth="yes"/>
      <point x="1106" y="347"/>
      <point x="1073" y="217"/>
      <point x="1007" y="123" type="curve" smooth="yes"/>
      <point x="942" y="29"/>
      <point x="850" y="-18"/>
      <point x="733" y="-18" type="curve" smooth="yes"/>
      <point x="696" y="-18"/>
      <point x="662" y="-14"/>
      <point x="633" y="-6" type="curve" smooth="yes"/>
      <point x="604" y="2"/>
      <point x="577" y="13"/>
      <point x="554" y="27" type="curve" smooth="yes"/>
      <point x="531" y="42"/>
      <point x="504" y="66"/>
      <point x="473" y="100" type="curve"/>
      <point x="452" y="100" type="line"/>
      <point x="396" y="0" type="line"/>
      <point x="121" y="0" type="line"/>
      <point x="121" y="1400" type="line"/>
      <point x="473" y="1400" type="line"/>
      <point x="473" y="1084" type="line" smooth="yes"/>
      <point x="473" y="1046"/>
      <point x="469" y="981"/>
      <point x="461" y="888" type="curve"/>
      <point x="473" y="888" type="line"/>
      <point x="542" y="993"/>
      <point x="631" y="1038"/>
    </contour>
    <contour>
      <point x="616" y="761" type="curve" smooth="yes"/>
      <point x="517" y="761"/>
      <point x="473" y="696"/>
      <point x="473" y="549" type="curve" smooth="yes"/>
      <point x="473" y="499" type="line" smooth="yes"/>
      <point x="473" y="332"/>
      <point x="516" y="265"/>
      <point x="619" y="265" type="curve" smooth="yes"/>
      <point x="702" y="265"/>
      <point x="748" y="351"/>
      <point x="748" y="516" type="curve" smooth="yes"/>
      <point x="748" y="679"/>
      <point x="704" y="761"/>
    </contour>
  </outline>
</glyph>
<glyph name="d" format="1">
  <advance width="1185"/>
  <unicode hex="0064"/>
  <outline>
    <contour>
      <point x="438" y="-18" type="curve"/>
      <point x="221" y="-23"/>
      <point x="75" y="184"/>
      <point x="77" y="508" type="curve"/>
      <point x="77" y="674"/>
      <point x="110" y="804"/>
      <point x="177" y="897" type="curve" smooth="yes"/>
      <point x="244" y="991"/>
      <point x="335" y="1038"/>
      <point x="452" y="1038" type="curve" smooth="yes"/>
      <point x="565" y="1038"/>
      <point x="648" y="996"/>
      <point x="719" y="888" type="curve"/>
      <point x="726" y="888" type="line"/>
      <point x="715" y="968"/>
      <point x="709" y="1048"/>
      <point x="709" y="1128" type="curve" smooth="yes"/>
      <point x="709" y="1400" type="line"/>
      <point x="1064" y="1400" type="line"/>
      <point x="1064" y="0" type="line"/>
      <point x="798" y="0" type="line"/>
      <point x="723" y="129" type="line"/>
      <point x="709" y="129" type="line"/>
      <point x="648" y="31"/>
      <point x="558" y="-18"/>
    </contour>
    <contour>
      <point x="582" y="260" type="curve" smooth="yes"/>
      <point x="695" y="260"/>
      <point x="735" y="329"/>
      <point x="739" y="477" type="curve"/>
      <point x="739" y="505" type="line" smooth="yes"/>
      <point x="739" y="685"/>
      <point x="688" y="754"/>
      <point x="579" y="754" type="curve" smooth="yes"/>
      <point x="486" y="754"/>
      <point x="433" y="664"/>
      <point x="433" y="503" type="curve" smooth="yes"/>
      <point x="433" y="344"/>
      <point x="486" y="260"/>
    </contour>
  </outline>
</glyph>
<glyph name="e" format="1">
  <advance width="1139"/>
  <unicode hex="0065"/>
  <outline>
    <contour>
      <point x="614" y="-18" type="curve" smooth="yes"/>
      <point x="444" y="-18"/>
      <point x="312" y="27"/>
      <point x="218" y="117" type="curve" smooth="yes"/>
      <point x="124" y="208"/>
      <point x="77" y="336"/>
      <point x="77" y="503" type="curve" smooth="yes"/>
      <point x="77" y="675"/>
      <point x="120" y="807"/>
      <point x="207" y="899" type="curve" smooth="yes"/>
      <point x="294" y="992"/>
      <point x="419" y="1038"/>
      <point x="580" y="1038" type="curve" smooth="yes"/>
      <point x="888" y="1038"/>
      <point x="1062" y="872"/>
      <point x="1062" y="571" type="curve" smooth="yes"/>
      <point x="1062" y="415" type="line"/>
      <point x="433" y="415" type="line"/>
      <point x="437" y="300"/>
      <point x="520" y="232"/>
      <point x="656" y="232" type="curve" smooth="yes"/>
      <point x="718" y="232"/>
      <point x="775" y="238"/>
      <point x="826" y="249" type="curve" smooth="yes"/>
      <point x="878" y="261"/>
      <point x="934" y="281"/>
      <point x="995" y="310" type="curve"/>
      <point x="995" y="57" type="line"/>
      <point x="940" y="28"/>
      <point x="883" y="9"/>
      <point x="824" y="-2" type="curve" smooth="yes"/>
      <point x="765" y="-13"/>
      <point x="695" y="-18"/>
    </contour>
    <contour>
      <point x="593" y="798" type="curve" smooth="yes"/>
      <point x="510" y="798"/>
      <point x="449" y="748"/>
      <point x="440" y="636" type="curve"/>
      <point x="742" y="636" type="line"/>
      <point x="741" y="735"/>
      <point x="684" y="798"/>
    </contour>
  </outline>
</glyph>
<glyph name="braceright.deva" format="1">
  <advance width="798"/>
  <unicode hex="007D"/>
  <outline>
    <contour>
      <point x="742" y="376" type="line"/>
      <point x="610" y="376"/>
      <point x="522" y="319"/>
      <point x="522" y="223" type="curve" smooth="yes"/>
      <point x="522" y="0" type="line" smooth="yes"/>
      <point x="522" y="-84"/>
      <point x="507" y="-147"/>
      <point x="478" y="-189" type="curve" smooth="yes"/>
      <point x="419" y="-273"/>
      <point x="295" y="-310"/>
      <point x="59" y="-310" type="curve"/>
      <point x="59" y="-59" type="line"/>
      <point x="190" y="-55"/>
      <point x="230" y="-26"/>
      <point x="230" y="37" type="curve" smooth="yes"/>
      <point x="230" y="285" type="line" smooth="yes"/>
      <point x="230" y="414"/>
      <point x="293" y="483"/>
      <point x="446" y="507" type="curve"/>
      <point x="446" y="517" type="line"/>
      <point x="294" y="540"/>
      <point x="230" y="609"/>
      <point x="230" y="744" type="curve" smooth="yes"/>
      <point x="230" y="988" type="line" smooth="yes"/>
      <point x="230" y="1011"/>
      <point x="224" y="1029"/>
      <point x="212" y="1042" type="curve" smooth="yes"/>
      <point x="201" y="1055"/>
      <point x="186" y="1065"/>
      <point x="167" y="1071" type="curve"/>
      <point x="149" y="1078"/>
      <point x="113" y="1082"/>
      <point x="59" y="1084" type="curve"/>
      <point x="59" y="1335" type="line"/>
      <point x="177" y="1335"/>
      <point x="269" y="1325"/>
      <point x="335" y="1306" type="curve" smooth="yes"/>
      <point x="401" y="1287"/>
      <point x="449" y="1257"/>
      <point x="478" y="1216" type="curve" smooth="yes"/>
      <point x="507" y="1175"/>
      <point x="522" y="1112"/>
      <point x="522" y="1029" type="curve" smooth="yes"/>
      <point x="522" y="800" type="line" smooth="yes"/>
      <point x="522" y="703"/>
      <point x="605" y="647"/>
      <point x="742" y="647" type="curve"/>
    </contour>
  </outline>
</glyph>
<glyph name="uni02BC" format="1">
  <advance width="837"/>
  <unicode hex="02BC"/>
  <outline>
    <contour>
      <point x="707" y="1458" type="line"/>
      <point x="672" y="1334"/>
      <point x="607" y="1171"/>
      <point x="515" y="980" type="curve"/>
      <point x="198" y="980" type="line"/>
      <point x="252" y="1191"/>
      <point x="287" y="1361"/>
      <point x="309" y="1490" type="curve"/>
      <point x="682" y="1490" type="line"/>
    </contour>
  </outline>
</glyph>
<glyph name="candrabindudeva" format="1">
  <advance width="0"/>
  <unicode hex="0901"/>
  <outline>
    <contour>
      <point x="-370" y="1836" type="curve" smooth="yes"/>
      <point x="-270" y="1836"/>
      <point x="-227" y="1768"/>
      <point x="-227" y="1711" type="curve" smooth="yes"/>
      <point x="-227" y="1654"/>
      <point x="-270" y="1585"/>
      <point x="-370" y="1585" type="curve" smooth="yes"/>
      <point x="-464" y="1585"/>
      <point x="-513" y="1651"/>
      <point x="-513" y="1711" type="curve" smooth="yes"/>
      <point x="-513" y="1769"/>
      <point x="-466" y="1836"/>
    </contour>
    <component base="ecandravowelsigndeva" xOffset="279" yOffset="-92"/>
    <contour>
      <point x="-424.0" y="1282.0" type="move" name="_mark0"/>
    </contour>
  </outline>
</glyph>
<glyph name="anusvaradeva" format="1">
  <advance width="0"/>
  <unicode hex="0902"/>
  <outline>
    <contour>
      <point x="-381" y="1764" type="curve" smooth="yes"/>
      <point x="-263" y="1764"/>
      <point x="-212" y="1684"/>
      <point x="-212" y="1616" type="curve" smooth="yes"/>
      <point x="-212" y="1548"/>
      <point x="-263" y="1466"/>
      <point x="-381" y="1466" type="curve" smooth="yes"/>
      <point x="-493" y="1466"/>
      <point x="-551" y="1544"/>
      <point x="-551" y="1616" type="curve" smooth="yes"/>
      <point x="-551" y="1685"/>
      <point x="-495" y="1764"/>
    </contour>
    <contour>
      <point x="49.0" y="8.0" type="move" name="x12"/>
    </contour>
    <contour>
      <point x="-547.0" y="1294.0" type="move" name="_top"/>
    </contour>
  </outline>
</glyph>
<glyph name="visargadeva" format="1">
  <advance width="437"/>
  <unicode hex="0903"/>
  <outline>
    <contour>
      <point x="467" y="1056" type="line"/>
      <point x="-30" y="1056" type="line"/>
      <point x="-30" y="1294" type="line"/>
      <point x="467" y="1294" type="line"/>
    </contour>
    <component base="anusvaradeva" xOffset="566" yOffset="-1259"/>
    <component base="anusvaradeva" xOffset="566" yOffset="-797"/>
  </outline>
</glyph>
<glyph name="adeva" format="1">
  <advance width="1726"/>
  <unicode hex="0905"/>
  <outline>
    <contour>
      <point x="302" y="553" type="line"/>
      <point x="244" y="822" type="line"/>
      <point x="257" y="823" type="line" smooth="yes"/>
      <point x="534" y="844"/>
      <point x="570" y="891"/>
      <point x="570" y="967" type="curve" smooth="yes"/>
      <point x="570" y="1014"/>
      <point x="533" y="1039"/>
      <point x="460" y="1039" type="curve" smooth="yes"/>
      <point x="375" y="1039"/>
      <point x="286" y="1012"/>
      <point x="171" y="951" type="curve"/>
      <point x="91" y="1224" type="line"/>
      <point x="198" y="1272"/>
      <point x="316" y="1303"/>
      <point x="479" y="1303" type="curve" smooth="yes"/>
      <point x="739" y="1303"/>
      <point x="893" y="1154"/>
      <point x="893" y="938" type="curve" smooth="yes"/>
      <point x="893" y="711"/>
      <point x="703" y="584"/>
      <point x="328" y="555" type="curve" smooth="yes"/>
    </contour>
    <contour>
      <point x="698" y="779" type="line"/>
      <point x="835" y="718"/>
      <point x="954" y="607"/>
      <point x="954" y="419" type="curve" smooth="yes"/>
      <point x="954" y="227"/>
      <point x="795" y="71"/>
      <point x="539" y="71" type="curve" smooth="yes"/>
      <point x="355" y="71"/>
      <point x="209" y="127"/>
      <point x="60" y="222" type="curve"/>
      <point x="127" y="483" type="line"/>
      <point x="250" y="399"/>
      <point x="356" y="360"/>
      <point x="459" y="360" type="curve" smooth="yes"/>
      <point x="563" y="360"/>
      <point x="617" y="411"/>
      <point x="617" y="490" type="curve" smooth="yes"/>
      <point x="617" y="549"/>
      <point x="572" y="592"/>
      <point x="496" y="620" type="curve"/>
    </contour>
    <contour>
      <point x="719" y="703" type="line"/>
      <point x="783" y="679"/>
      <point x="851" y="667"/>
      <point x="937" y="667" type="curve" smooth="yes"/>
      <point x="1030" y="667"/>
      <point x="1158" y="699"/>
      <point x="1223" y="761" type="curve"/>
      <point x="1223" y="425" type="line"/>
      <point x="1194" y="419"/>
      <point x="1107" y="408"/>
      <point x="1053" y="408" type="curve" smooth="yes"/>
      <point x="955" y="408"/>
      <point x="883" y="416"/>
      <point x="778" y="429" type="curve"/>
    </contour>
    <contour>
      <point x="1176" y="1096" type="line"/>
      <point x="1542" y="1096" type="line"/>
      <point x="1542" y="0" type="line"/>
      <point x="1176" y="0" type="line"/>
    </contour>
    <contour>
      <point x="1746" y="1056" type="line"/>
      <point x="1014" y="1056" type="line"/>
      <point x="1014" y="1294" type="line"/>
      <point x="1746" y="1294" type="line"/>
    </contour>
  </outline>
</glyph>
<glyph name="aadeva" format="1">
  <advance width="2392"/>
  <unicode hex="0906"/>
  <outline>
    <contour>
      <point x="758" y="779" type="line"/>
      <point x="895" y="718"/>
      <point x="1014" y="607"/>
      <point x="1014" y="419" type="curve" smooth="yes"/>
      <point x="1014" y="227"/>
      <point x="855" y="71"/>
      <point x="599" y="71" type="curve" smooth="yes"/>
      <point x="415" y="71"/>
      <point x="269" y="127"/>
      <point x="120" y="222" type="curve"/>
      <point x="187" y="483" type="line"/>
      <point x="310" y="399"/>
      <point x="416" y="360"/>
      <point x="519" y="360" type="curve" smooth="yes"/>
      <point x="623" y="360"/>
      <point x="677" y="411"/>
      <point x="677" y="490" type="curve" smooth="yes"/>
      <point x="677" y="549"/>
      <point x="632" y="592"/>
      <point x="556" y="620" type="curve"/>
    </contour>
    <contour>
      <point x="362" y="553" type="line"/>
      <point x="299" y="822" type="line"/>
      <point x="312" y="823" type="line" smooth="yes"/>
      <point x="589" y="844"/>
      <point x="630" y="891"/>
      <point x="630" y="967" type="curve" smooth="yes"/>
      <point x="630" y="1014"/>
      <point x="593" y="1039"/>
      <point x="520" y="1039" type="curve" smooth="yes"/>
      <point x="435" y="1039"/>
      <point x="341" y="1012"/>
      <point x="226" y="951" type="curve"/>
      <point x="146" y="1224" type="line"/>
      <point x="253" y="1272"/>
      <point x="376" y="1303"/>
      <point x="539" y="1303" type="curve" smooth="yes"/>
      <point x="799" y="1303"/>
      <point x="953" y="1154"/>
      <point x="953" y="938" type="curve" smooth="yes"/>
      <point x="953" y="711"/>
      <point x="763" y="584"/>
      <point x="388" y="555" type="curve" smooth="yes"/>
    </contour>
    <contour>
      <point x="779" y="703" type="line"/>
      <point x="843" y="679"/>
      <point x="911" y="667"/>
      <point x="997" y="667" type="curve" smooth="yes"/>
      <point x="1090" y="667"/>
      <point x="1218" y="699"/>
      <point x="1283" y="761" type="curve"/>
      <point x="1283" y="425" type="line"/>
      <point x="1254" y="419"/>
      <point x="1167" y="408"/>
      <point x="1113" y="408" type="curve" smooth="yes"/>
      <point x="1015" y="408"/>
      <point x="943" y="416"/>
      <point x="838" y="429" type="curve"/>
    </contour>
    <contour>
      <point x="1842" y="1096" type="line"/>
      <point x="2208" y="1096" type="line"/>
      <point x="2208" y="0" type="line"/>
      <point x="1842" y="0" type="line"/>
    </contour>
    <contour>
      <point x="1236" y="1096" type="line"/>
      <point x="1602" y="1096" type="line"/>
      <point x="1602" y="0" type="line"/>
      <point x="1236" y="0" type="line"/>
    </contour>
    <contour>
      <point x="2412" y="1056" type="line"/>
      <point x="1074" y="1056" type="line"/>
      <point x="1074" y="1294" type="line"/>
      <point x="2412" y="1294" type="line"/>
    </contour>
  </outline>
</glyph>
<glyph name="ideva" format="1">
  <advance width="1161"/>
  <unicode hex="0907"/>
  <outline>
    <contour>
      <point x="582" y="143" type="curve" smooth="yes"/>
      <point x="898" y="-191" type="line"/>
      <point x="675" y="-329" type="line"/>
      <point x="325" y="54" type="line"/>
      <point x="464" y="-41" type="line"/>
      <point x="193" y="-41"/>
      <point x="95" y="80"/>
      <point x="95" y="165" type="curve" smooth="yes"/>
      <point x="95" y="243"/>
      <point x="164" y="318"/>
      <point x="268" y="318" type="curve" smooth="yes"/>
      <point x="369" y="318"/>
      <point x="461" y="271"/>
    </contour>
    <contour>
      <point x="613" y="1076" type="line"/>
      <point x="979" y="1076" type="line"/>
      <point x="979" y="713" type="line"/>
      <point x="503" y="713" type="line" smooth="yes"/>
      <point x="432" y="713"/>
      <point x="404" y="682"/>
      <point x="404" y="642" type="curve" smooth="yes"/>
      <point x="404" y="608"/>
      <point x="427" y="588"/>
      <point x="487" y="558" type="curve"/>
      <point x="370" y="576" type="line"/>
      <point x="465" y="609"/>
      <point x="578" y="631"/>
      <point x="716" y="631" type="curve" smooth="yes"/>
      <point x="927" y="631"/>
      <point x="1083" y="509"/>
      <point x="1083" y="328" type="curve" smooth="yes"/>
      <point x="1083" y="126"/>
      <point x="915" y="-29"/>
      <point x="534" y="-29" type="curve"/>
      <point x="481" y="221" type="line"/>
      <point x="696" y="221"/>
      <point x="760" y="275"/>
      <point x="760" y="322" type="curve" smooth="yes"/>
      <point x="760" y="360"/>
      <point x="724" y="378"/>
      <point x="665" y="378" type="curve" smooth="yes"/>
      <point x="605" y="378"/>
      <point x="515" y="359"/>
      <point x="437" y="326" type="curve"/>
      <point x="427" y="326" type="line"/>
      <point x="174" y="441"/>
      <point x="86" y="560"/>
      <point x="86" y="697" type="curve" smooth="yes"/>
      <point x="86" y="826"/>
      <point x="182" y="946"/>
      <point x="420" y="946" type="curve" smooth="yes"/>
      <point x="682" y="946" type="line"/>
      <point x="613" y="878" type="line"/>
    </contour>
    <contour>
      <point x="1181" y="1056" type="line"/>
      <point x="-20" y="1056" type="line"/>
      <point x="-20" y="1294" type="line"/>
      <point x="1181" y="1294" type="line"/>
    </contour>
    <contour>
      <point x="-32" y="8" type="move" name="x51"/>
    </contour>
    <contour>
      <point x="613" y="1282" type="move" name="mark0"/>
    </contour>
  </outline>
</glyph>
<glyph name="udeva" format="1">
  <advance width="1130"/>
  <unicode hex="0909"/>
  <outline>
    <contour>
      <point x="324" y="531" type="line"/>
      <point x="260" y="812" type="line"/>
      <point x="287" y="814" type="line" smooth="yes"/>
      <point x="566" y="835"/>
      <point x="616" y="895"/>
      <point x="616" y="968" type="curve" smooth="yes"/>
      <point x="616" y="1026"/>
      <point x="586" y="1059"/>
      <point x="471" y="1069" type="curve"/>
      <point x="553" y="1265" type="line"/>
      <point x="798" y="1245"/>
      <point x="944" y="1143"/>
      <point x="944" y="924" type="curve" smooth="yes"/>
      <point x="944" y="722"/>
      <point x="773" y="562"/>
      <point x="353" y="533" type="curve" smooth="yes"/>
    </contour>
    <contour>
      <point x="-30" y="1056" type="curve"/>
      <point x="-30" y="1294" type="line"/>
      <point x="1160" y="1294" type="line"/>
      <point x="1160" y="1056" type="line"/>
      <point x="1160" y="1056"/>
      <point x="-30" y="1056"/>
    </contour>
    <contour>
      <point x="714" y="752" type="line"/>
      <point x="902" y="689"/>
      <point x="1032" y="536"/>
      <point x="1032" y="359" type="curve" smooth="yes"/>
      <point x="1032" y="142"/>
      <point x="877" y="-8"/>
      <point x="584" y="-8" type="curve" smooth="yes"/>
      <point x="384" y="-8"/>
      <point x="191" y="62"/>
      <point x="30" y="171" type="curve"/>
      <point x="119" y="442" type="line"/>
      <point x="248" y="348"/>
      <point x="398" y="291"/>
      <point x="503" y="291" type="curve" smooth="yes"/>
      <point x="616" y="291"/>
      <point x="678" y="345"/>
      <point x="678" y="420" type="curve" smooth="yes"/>
      <point x="678" y="488"/>
      <point x="626" y="559"/>
      <point x="499" y="580" type="curve"/>
    </contour>
    <contour>
      <point x="-115.0" y="8.0" type="move" name="x36"/>
    </contour>
    <contour>
      <point x="717.0" y="1282.0" type="move" name="mark0"/>
    </contour>
  </outline>
</glyph>
<glyph name="uudeva" format="1">
  <advance width="1607"/>
  <unicode hex="090A"/>
  <outline>
    <contour>
      <point x="913" y="295" type="curve"/>
      <point x="734" y="658" type="line"/>
      <point x="842" y="719"/>
      <point x="950" y="751"/>
      <point x="1107" y="751" type="curve" smooth="yes"/>
      <point x="1383" y="751"/>
      <point x="1574" y="574"/>
      <point x="1574" y="341" type="curve" smooth="yes"/>
      <point x="1574" y="201"/>
      <point x="1511" y="66"/>
      <point x="1441" y="-24" type="curve"/>
      <point x="1123" y="95" type="line"/>
      <point x="1192" y="190"/>
      <point x="1243" y="287"/>
      <point x="1243" y="373" type="curve" smooth="yes"/>
      <point x="1243" y="429"/>
      <point x="1214" y="463"/>
      <point x="1147" y="463" type="curve" smooth="yes"/>
      <point x="1069" y="463"/>
      <point x="994" y="403"/>
    </contour>
    <contour>
      <point x="1124" y="1056" type="curve"/>
      <point x="1114" y="1294" type="line"/>
      <point x="1637" y="1294" type="line"/>
      <point x="1637" y="1056" type="line"/>
      <point x="1637" y="1056"/>
      <point x="1124" y="1056"/>
    </contour>
    <component base="udeva"/>
    <contour>
      <point x="49.0" y="8.0" type="move" name="x53"/>
    </contour>
    <contour>
      <point x="881.0" y="1282.0" type="move" name="mark0"/>
    </contour>
  </outline>
</glyph>
<glyph name="rvocalicdeva" format="1">
  <advance width="1787"/>
  <unicode hex="090B"/>
  <outline>
    <contour>
      <point x="1121" y="1056" type="line"/>
      <point x="1121" y="1294" type="line"/>
      <point x="1807" y="1294" type="line"/>
      <point x="1807" y="1056" type="line"/>
    </contour>
    <contour>
      <point x="1032" y="773" type="line"/>
      <point x="1074" y="715"/>
      <point x="1120" y="691"/>
      <point x="1195" y="691" type="curve" smooth="yes"/>
      <point x="1239" y="691"/>
      <point x="1294" y="699"/>
      <point x="1367" y="730" type="curve"/>
      <point x="1255" y="654" type="line"/>
      <point x="1228" y="709"/>
      <point x="1210" y="752"/>
      <point x="1210" y="799" type="curve" smooth="yes"/>
      <point x="1210" y="868"/>
      <point x="1263" y="939"/>
      <point x="1385" y="939" type="curve" smooth="yes"/>
      <point x="1576" y="939"/>
      <point x="1720" y="834"/>
      <point x="1720" y="724" type="curve" smooth="yes"/>
      <point x="1720" y="560"/>
      <point x="1539" y="417"/>
      <point x="1227" y="417" type="curve" smooth="yes"/>
      <point x="1114" y="417"/>
      <point x="1004" y="440"/>
      <point x="902" y="499" type="curve"/>
    </contour>
    <contour>
      <point x="1316" y="516" type="curve"/>
      <point x="1578" y="635" type="line"/>
      <point x="1672" y="507"/>
      <point x="1705" y="413"/>
      <point x="1705" y="289" type="curve" smooth="yes"/>
      <point x="1705" y="149"/>
      <point x="1624" y="6"/>
      <point x="1375" y="-16" type="curve"/>
      <point x="1207" y="220" type="line"/>
      <point x="1340" y="245"/>
      <point x="1402" y="293"/>
      <point x="1402" y="359" type="curve" smooth="yes"/>
      <point x="1402" y="411"/>
      <point x="1382" y="444"/>
    </contour>
    <component base="taradeva"/>
    <contour>
      <point x="77.0" y="8.0" type="move" name="x62"/>
    </contour>
    <contour>
      <point x="930.0" y="1282.0" type="move" name="mark0"/>
    </contour>
  </outline>
</glyph>
<glyph name="lvocalicdeva" format="1">
  <advance width="1716"/>
  <unicode hex="090C"/>
  <outline>
    <contour>
      <point x="1051" y="632" type="curve"/>
      <point x="837" y="455" type="line"/>
      <point x="749" y="558"/>
      <point x="672" y="606"/>
      <point x="579" y="606" type="curve" smooth="yes"/>
      <point x="464" y="606"/>
      <point x="399" y="521"/>
      <point x="399" y="427" type="curve" smooth="yes"/>
      <point x="399" y="336"/>
      <point x="456" y="251"/>
      <point x="605" y="108" type="curve"/>
      <point x="349" y="-26" type="line"/>
      <point x="171" y="134"/>
      <point x="66" y="317"/>
      <point x="66" y="505" type="curve" smooth="yes"/>
      <point x="66" y="739"/>
      <point x="232" y="910"/>
      <point x="470" y="910" type="curve" smooth="yes"/>
      <point x="694" y="910"/>
      <point x="846" y="831"/>
    </contour>
    <contour>
      <point x="-30" y="1056" type="curve"/>
      <point x="-30" y="1294" type="line"/>
      <point x="1746" y="1294" type="line"/>
      <point x="1746" y="1056" type="line"/>
      <point x="1746" y="1056"/>
      <point x="-30" y="1056"/>
    </contour>
    <contour>
      <point x="1014" y="1096" type="line"/>
      <point x="1380" y="1096" type="line"/>
      <point x="1380" y="813" type="line"/>
      <point x="1014" y="813" type="line"/>
    </contour>
    <contour>
      <point x="1543" y="217" type="curve"/>
      <point x="1394" y="217"/>
      <point x="1339" y="164"/>
      <point x="1339" y="115" type="curve" smooth="yes"/>
      <point x="1339" y="66"/>
      <point x="1366" y="37"/>
      <point x="1443" y="37" type="curve" smooth="yes"/>
      <point x="1500" y="37"/>
      <point x="1549" y="53"/>
      <point x="1627" y="87" type="curve"/>
      <point x="1664" y="-144" type="line"/>
      <point x="1575" y="-176"/>
      <point x="1508" y="-183"/>
      <point x="1423" y="-183" type="curve" smooth="yes"/>
      <point x="1190" y="-183"/>
      <point x="1029" y="-53"/>
      <point x="1029" y="101" type="curve" smooth="yes"/>
      <point x="1029" y="248"/>
      <point x="1142" y="361"/>
      <point x="1334" y="394" type="curve"/>
      <point x="1212" y="285" type="line"/>
      <point x="1253" y="345"/>
      <point x="1283" y="411"/>
      <point x="1283" y="493" type="curve" smooth="yes"/>
      <point x="1283" y="555"/>
      <point x="1239" y="591"/>
      <point x="1180" y="591" type="curve" smooth="yes"/>
      <point x="1087" y="591"/>
      <point x="986" y="473"/>
      <point x="938" y="236" type="curve" smooth="yes"/>
      <point x="938" y="236"/>
      <point x="627" y="345"/>
      <point x="627" y="345" type="curve" smooth="yes"/>
      <point x="693" y="639"/>
      <point x="843" y="893"/>
      <point x="1157" y="893" type="curve" smooth="yes"/>
      <point x="1431" y="893"/>
      <point x="1608" y="714"/>
      <point x="1608" y="480" type="curve" smooth="yes"/>
      <point x="1608" y="388"/>
      <point x="1580" y="297"/>
    </contour>
    <contour>
      <point x="98" y="8" type="move" name="x58"/>
    </contour>
    <contour>
      <point x="1147" y="1282" type="move" name="mark0"/>
    </contour>
  </outline>
</glyph>
<glyph name="edeva" format="1">
  <advance width="1347"/>
  <unicode hex="090F"/>
  <outline>
    <contour>
      <point x="1171" y="1096" type="line"/>
      <point x="1171" y="734" type="line" smooth="yes"/>
      <point x="1171" y="593"/>
      <point x="1133" y="503"/>
      <point x="1040" y="406" type="curve"/>
      <point x="755" y="546" type="line"/>
      <point x="791" y="630"/>
      <point x="805" y="694"/>
      <point x="805" y="808" type="curve" smooth="yes"/>
      <point x="805" y="1096" type="line"/>
    </contour>
    <contour>
      <point x="-20" y="1056" type="curve"/>
      <point x="-20" y="1294" type="line"/>
      <point x="1367" y="1294" type="line"/>
      <point x="1367" y="1056" type="line"/>
      <point x="1367" y="1056"/>
      <point x="-20" y="1056"/>
    </contour>
    <contour>
      <point x="121" y="1096" type="line"/>
      <point x="486" y="1096" type="line"/>
      <point x="486" y="687" type="line" smooth="yes"/>
      <point x="486" y="576"/>
      <point x="509" y="542"/>
      <point x="613" y="474" type="curve" smooth="yes"/>
      <point x="998" y="220" type="line" smooth="yes"/>
      <point x="1129" y="134"/>
      <point x="1173" y="60"/>
      <point x="1173" y="-31" type="curve" smooth="yes"/>
      <point x="1173" y="-96"/>
      <point x="1146" y="-163"/>
      <point x="1115" y="-215" type="curve"/>
      <point x="733" y="-134" type="line"/>
      <point x="750" y="-101"/>
      <point x="765" y="-74"/>
      <point x="765" y="-42" type="curve" smooth="yes"/>
      <point x="765" y="-9"/>
      <point x="752" y="19"/>
      <point x="702" y="53" type="curve" smooth="yes"/>
      <point x="309" y="317" type="line" smooth="yes"/>
      <point x="160" y="417"/>
      <point x="121" y="507"/>
      <point x="121" y="682" type="curve" smooth="yes"/>
    </contour>
    <contour>
      <point x="-34" y="8" type="move" name="x44"/>
    </contour>
    <contour>
      <point x="863" y="1282" type="move" name="mark0"/>
    </contour>
  </outline>
</glyph>
<glyph name="kadeva" format="1">
  <advance width="1673"/>
  <unicode hex="0915"/>
  <outline>
    <contour>
      <point x="982" y="334" type="curve"/>
      <point x="974" y="829" type="line"/>
      <point x="1034" y="836"/>
      <point x="1097" y="843"/>
      <point x="1175" y="843" type="curve" smooth="yes"/>
      <point x="1464" y="843"/>
      <point x="1639" y="654"/>
      <point x="1639" y="438" type="curve" smooth="yes"/>
      <point x="1639" y="318"/>
      <point x="1591" y="201"/>
      <point x="1524" y="104" type="curve"/>
      <point x="1224" y="209" type="line"/>
      <point x="1288" y="302"/>
      <point x="1324" y="381"/>
      <point x="1324" y="460" type="curve" smooth="yes"/>
      <point x="1324" y="514"/>
      <point x="1289" y="550"/>
      <point x="1228" y="550" type="curve" smooth="yes"/>
      <point x="1151" y="550"/>
      <point x="1063" y="482"/>
    </contour>
    <contour>
      <point x="-37" y="1056" type="line"/>
      <point x="-37" y="1294" type="line"/>
      <point x="1719" y="1294" type="line"/>
      <point x="1719" y="1056" type="line"/>
    </contour>
    <contour>
      <point x="722" y="630" type="curve"/>
      <point x="722" y="227" type="line"/>
      <point x="650" y="187"/>
      <point x="597" y="173"/>
      <point x="498" y="173" type="curve" smooth="yes"/>
      <point x="226" y="173"/>
      <point x="48" y="374"/>
      <point x="48" y="609" type="curve" smooth="yes"/>
      <point x="48" y="795"/>
      <point x="190" y="929"/>
      <point x="404" y="929" type="curve" smooth="yes"/>
      <point x="548" y="929"/>
      <point x="633" y="907"/>
      <point x="743" y="857" type="curve"/>
      <point x="743" y="605" type="line"/>
      <point x="657" y="647"/>
      <point x="595" y="665"/>
      <point x="517" y="665" type="curve" smooth="yes"/>
      <point x="416" y="665"/>
      <point x="365" y="610"/>
      <point x="365" y="544" type="curve" smooth="yes"/>
      <point x="365" y="488"/>
      <point x="411" y="455"/>
      <point x="474" y="456" type="curve" smooth="yes"/>
      <point x="563" y="457"/>
      <point x="659" y="519"/>
    </contour>
    <contour>
      <point x="700" y="1096" type="line"/>
      <point x="1066" y="1096" type="line"/>
      <point x="1066" y="0" type="line"/>
      <point x="700" y="0" type="line"/>
    </contour>
    <contour>
      <point x="744" y="8" type="move" name="x46"/>
    </contour>
    <contour>
      <point x="-97" y="8" type="move" name="x47"/>
    </contour>
    <contour>
      <point x="744" y="8" type="move" name="mark0"/>
    </contour>
  </outline>
</glyph>
<glyph name="khadeva" format="1">
  <advance width="1879"/>
  <unicode hex="0916"/>
  <outline>
    <contour>
      <point x="1372" y="718" type="curve"/>
      <point x="1372" y="718"/>
      <point x="1372" y="337"/>
      <point x="1372" y="337" type="curve"/>
      <point x="1313" y="304"/>
      <point x="1247" y="289"/>
      <point x="1154" y="289" type="curve" smooth="yes"/>
      <point x="910" y="289"/>
      <point x="733" y="475"/>
      <point x="733" y="665" type="curve" smooth="yes"/>
      <point x="733" y="832"/>
      <point x="843" y="967"/>
      <point x="1086" y="967" type="curve" smooth="yes"/>
      <point x="1213" y="967"/>
      <point x="1308" y="941"/>
      <point x="1373" y="902" type="curve"/>
      <point x="1373" y="683" type="line"/>
      <point x="1305" y="717"/>
      <point x="1229" y="732"/>
      <point x="1153" y="732" type="curve" smooth="yes"/>
      <point x="1073" y="732"/>
      <point x="1024" y="679"/>
      <point x="1024" y="630" type="curve" smooth="yes"/>
      <point x="1024" y="578"/>
      <point x="1061" y="540"/>
      <point x="1118" y="540" type="curve" smooth="yes"/>
      <point x="1216" y="540"/>
      <point x="1311" y="615"/>
    </contour>
    <contour>
      <point x="259" y="729" type="line"/>
      <point x="390" y="766"/>
      <point x="421" y="838"/>
      <point x="421" y="947" type="curve" smooth="yes"/>
      <point x="421" y="1146" type="line"/>
      <point x="787" y="1146" type="line"/>
      <point x="787" y="930" type="line" smooth="yes"/>
      <point x="787" y="718"/>
      <point x="735" y="531"/>
      <point x="475" y="405" type="curve"/>
    </contour>
    <contour>
      <point x="-20" y="1056" type="curve"/>
      <point x="-20" y="1294" type="line"/>
      <point x="1899" y="1294" type="line"/>
      <point x="1899" y="1056" type="line"/>
      <point x="1899" y="1056"/>
      <point x="-20" y="1056"/>
    </contour>
    <contour>
      <point x="396" y="645" type="line"/>
      <point x="557" y="339"/>
      <point x="787" y="210"/>
      <point x="1074" y="210" type="curve" smooth="yes"/>
      <point x="1271" y="210"/>
      <point x="1403" y="254"/>
      <point x="1545" y="345" type="curve"/>
      <point x="1545" y="345"/>
      <point x="1662" y="96"/>
      <point x="1662" y="96" type="curve"/>
      <point x="1526" y="21"/>
      <point x="1353" y="-33"/>
      <point x="1056" y="-33" type="curve" smooth="yes"/>
      <point x="786" y="-33"/>
      <point x="475" y="83"/>
      <point x="291" y="267" type="curve" smooth="yes"/>
      <point x="112" y="446"/>
      <point x="25" y="604"/>
      <point x="25" y="701" type="curve" smooth="yes"/>
      <point x="25" y="789"/>
      <point x="95" y="860"/>
      <point x="186" y="860" type="curve" smooth="yes"/>
      <point x="275" y="860"/>
      <point x="324" y="822"/>
      <point x="396" y="731" type="curve" smooth="yes"/>
      <point x="440" y="676" type="line"/>
    </contour>
    <contour>
      <point x="1329" y="1096" type="line"/>
      <point x="1695" y="1096" type="line"/>
      <point x="1695" y="0" type="line"/>
      <point x="1329" y="0" type="line"/>
    </contour>
  </outline>
</glyph>
<glyph name="gadeva" format="1">
  <advance width="1518"/>
  <unicode hex="0917"/>
  <outline>
    <contour>
      <point x="659" y="1086" type="line"/>
      <point x="659" y="412" type="line" smooth="yes"/>
      <point x="659" y="305"/>
      <point x="619" y="244"/>
      <point x="518" y="244" type="curve" smooth="yes"/>
      <point x="297" y="244"/>
      <point x="61" y="466"/>
      <point x="61" y="603" type="curve" smooth="yes"/>
      <point x="61" y="669"/>
      <point x="101" y="718"/>
      <point x="194" y="718" type="curve" smooth="yes"/>
      <point x="341" y="718" type="line"/>
      <point x="294" y="675" type="line"/>
      <point x="294" y="1086" type="line"/>
    </contour>
    <contour>
      <point x="968" y="1096" type="line"/>
      <point x="1334" y="1096" type="line"/>
      <point x="1334" y="0" type="line"/>
      <point x="968" y="0" type="line"/>
    </contour>
    <contour>
      <point x="1548" y="1056" type="line"/>
      <point x="-30" y="1056" type="line"/>
      <point x="-30" y="1294" type="line"/>
      <point x="1548" y="1294" type="line"/>
    </contour>
  </outline>
</glyph>
<glyph name="ghadeva" format="1">
  <advance width="1510"/>
  <unicode hex="0918"/>
  <outline>
    <contour>
      <point x="371" y="686" type="curve"/>
      <point x="166" y="746"/>
      <point x="55" y="883"/>
      <point x="55" y="1020" type="curve" smooth="yes"/>
      <point x="55" y="1092"/>
      <point x="75" y="1159"/>
      <point x="131" y="1208" type="curve"/>
      <point x="483" y="1120" type="line"/>
      <point x="443" y="1081"/>
      <point x="428" y="1044"/>
      <point x="428" y="994" type="curve" smooth="yes"/>
      <point x="428" y="933"/>
      <point x="470" y="877"/>
      <point x="629" y="880" type="curve"/>
      <point x="629" y="880"/>
      <point x="371" y="686"/>
    </contour>
    <contour>
      <point x="1537" y="1056"/>
      <point x="-68" y="1056"/>
      <point x="-68" y="1056" type="curve"/>
      <point x="-68" y="1294" type="line"/>
      <point x="1537" y="1294" type="line"/>
      <point x="1537" y="1056" type="line"/>
    </contour>
    <contour>
      <point x="1034" y="671" type="curve"/>
      <point x="1037" y="176" type="line"/>
      <point x="952" y="142"/>
      <point x="854" y="124"/>
      <point x="737" y="124" type="curve" smooth="yes"/>
      <point x="449" y="124"/>
      <point x="276" y="334"/>
      <point x="276" y="537" type="curve" smooth="yes"/>
      <point x="276" y="714"/>
      <point x="403" y="913"/>
      <point x="733" y="913" type="curve" smooth="yes"/>
      <point x="739" y="913" type="line"/>
      <point x="830" y="627" type="line"/>
      <point x="819" y="626" type="line" smooth="yes"/>
      <point x="663" y="612"/>
      <point x="607" y="553"/>
      <point x="607" y="498" type="curve" smooth="yes"/>
      <point x="607" y="451"/>
      <point x="645" y="415"/>
      <point x="712" y="417" type="curve" smooth="yes"/>
      <point x="847" y="421"/>
      <point x="982" y="541"/>
    </contour>
    <contour>
      <point x="960" y="1096" type="line"/>
      <point x="1326" y="1096" type="line"/>
      <point x="1326" y="0" type="line"/>
      <point x="960" y="0" type="line"/>
    </contour>
  </outline>
</glyph>
<glyph name="ngadeva" format="1">
  <advance width="1498"/>
  <unicode hex="0919"/>
  <outline>
    <contour>
      <point x="1186" y="1056" type="line"/>
      <point x="1186" y="1294" type="line"/>
      <point x="1528" y="1294" type="line"/>
      <point x="1528" y="1056" type="line"/>
    </contour>
    <contour>
      <point x="1285" y="813" type="curve" smooth="yes"/>
      <point x="1423" y="813"/>
      <point x="1467" y="729"/>
      <point x="1467" y="665" type="curve" smooth="yes"/>
      <point x="1467" y="601"/>
      <point x="1414" y="517"/>
      <point x="1285" y="517" type="curve" smooth="yes"/>
      <point x="1146" y="517"/>
      <point x="1099" y="602"/>
      <point x="1099" y="665" type="curve" smooth="yes"/>
      <point x="1099" y="728"/>
      <point x="1150" y="813"/>
    </contour>
    <component base="ddadeva"/>
    <contour>
      <point x="49" y="8" type="move" name="x56"/>
    </contour>
    <contour>
      <point x="1738" y="8" type="move" name="x57"/>
    </contour>
    <contour>
      <point x="854" y="8" type="move" name="mark0"/>
    </contour>
  </outline>
</glyph>
<glyph name="cadeva" format="1">
  <advance width="1513"/>
  <unicode hex="091A"/>
  <outline>
    <contour>
      <point x="60" y="622" type="curve"/>
      <point x="60" y="909" type="line"/>
      <point x="835" y="909" type="line"/>
      <point x="835" y="622" type="line"/>
      <point x="835" y="622"/>
      <point x="60" y="622"/>
    </contour>
    <contour>
      <point x="1009" y="595" type="curve"/>
      <point x="1009" y="167" type="line"/>
      <point x="950" y="145"/>
      <point x="869" y="129"/>
      <point x="766" y="129" type="curve" smooth="yes"/>
      <point x="479" y="129"/>
      <point x="295" y="287"/>
      <point x="295" y="524" type="curve" smooth="yes"/>
      <point x="295" y="720"/>
      <point x="424" y="879"/>
      <point x="755" y="879" type="curve"/>
      <point x="786" y="625" type="line"/>
      <point x="676" y="627"/>
      <point x="622" y="556"/>
      <point x="622" y="495" type="curve" smooth="yes"/>
      <point x="622" y="444"/>
      <point x="659" y="408"/>
      <point x="734" y="408" type="curve" smooth="yes"/>
      <point x="845" y="408"/>
      <point x="959" y="476"/>
    </contour>
    <contour>
      <point x="-30" y="1056" type="curve"/>
      <point x="-30" y="1294" type="line"/>
      <point x="1543" y="1294" type="line"/>
      <point x="1543" y="1056" type="line"/>
      <point x="1543" y="1056"/>
      <point x="-30" y="1056"/>
    </contour>
    <contour>
      <point x="963" y="1096" type="line"/>
      <point x="1329" y="1096" type="line"/>
      <point x="1329" y="0" type="line"/>
      <point x="963" y="0" type="line"/>
    </contour>
  </outline>
</glyph>
<glyph name="chadeva" format="1">
  <advance width="1644"/>
  <unicode hex="091B"/>
  <outline>
    <contour>
      <point x="688" y="809" type="curve"/>
      <point x="780" y="526" type="line"/>
      <point x="779" y="526"/>
      <point x="777" y="526"/>
      <point x="776" y="526" type="curve" smooth="yes"/>
      <point x="612" y="510"/>
      <point x="560" y="448"/>
      <point x="560" y="386" type="curve" smooth="yes"/>
      <point x="560" y="316"/>
      <point x="621" y="260"/>
      <point x="750" y="260" type="curve" smooth="yes"/>
      <point x="1001" y="260"/>
      <point x="1266" y="483"/>
      <point x="1266" y="663" type="curve" smooth="yes"/>
      <point x="1266" y="722"/>
      <point x="1231" y="757"/>
      <point x="1187" y="757" type="curve" smooth="yes"/>
      <point x="1141" y="757"/>
      <point x="1108" y="721"/>
      <point x="1108" y="663" type="curve" smooth="yes"/>
      <point x="1108" y="578"/>
      <point x="1154" y="500"/>
      <point x="1336" y="357" type="curve"/>
      <point x="1167" y="210" type="line"/>
      <point x="896" y="401"/>
      <point x="809" y="546"/>
      <point x="809" y="730" type="curve" smooth="yes"/>
      <point x="809" y="857"/>
      <point x="904" y="1005"/>
      <point x="1147" y="1005" type="curve" smooth="yes"/>
      <point x="1404" y="1005"/>
      <point x="1565" y="843"/>
      <point x="1565" y="616" type="curve" smooth="yes"/>
      <point x="1565" y="346"/>
      <point x="1255" y="-9"/>
      <point x="755" y="-9" type="curve" smooth="yes"/>
      <point x="394" y="-9"/>
      <point x="195" y="208"/>
      <point x="195" y="436" type="curve" smooth="yes"/>
      <point x="195" y="634"/>
      <point x="353" y="801"/>
      <point x="683" y="809" type="curve" smooth="yes"/>
      <point x="685" y="809"/>
      <point x="686" y="809"/>
    </contour>
    <contour>
      <point x="610" y="767" type="curve"/>
      <point x="379" y="585" type="line"/>
      <point x="142" y="659"/>
      <point x="56" y="788"/>
      <point x="56" y="954" type="curve" smooth="yes"/>
      <point x="56" y="1095"/>
      <point x="206" y="1262"/>
      <point x="524" y="1264" type="curve"/>
      <point x="624" y="1076" type="line"/>
      <point x="483" y="1066"/>
      <point x="418" y="987"/>
      <point x="418" y="917" type="curve" smooth="yes"/>
      <point x="418" y="842"/>
      <point x="469" y="790"/>
    </contour>
    <contour>
      <point x="1668" y="1056" type="line"/>
      <point x="-59" y="1056" type="line"/>
      <point x="-59" y="1294" type="line"/>
      <point x="1668" y="1294" type="line"/>
    </contour>
    <contour>
      <point x="980" y="1094" type="line"/>
      <point x="1346" y="1094" type="line"/>
      <point x="1346" y="870" type="line"/>
      <point x="980" y="870" type="line"/>
    </contour>
    <contour>
      <point x="-19" y="8" type="move" name="x65"/>
    </contour>
    <contour>
      <point x="1658" y="8" type="move" name="x66"/>
    </contour>
    <contour>
      <point x="883" y="8" type="move" name="mark0"/>
    </contour>
  </outline>
</glyph>
<glyph name="jadeva" format="1">
  <advance width="1698"/>
  <unicode hex="091C"/>
  <outline>
    <contour>
      <point x="-30" y="1056" type="curve"/>
      <point x="-30" y="1294" type="line"/>
      <point x="1728" y="1294" type="line"/>
      <point x="1728" y="1056" type="line"/>
      <point x="1728" y="1056"/>
      <point x="-30" y="1056"/>
    </contour>
    <contour>
      <point x="785" y="612" type="line"/>
      <point x="822" y="700" type="line"/>
      <point x="926" y="631"/>
      <point x="995" y="526"/>
      <point x="995" y="362" type="curve" smooth="yes"/>
      <point x="995" y="179"/>
      <point x="855" y="32"/>
      <point x="630" y="32" type="curve" smooth="yes"/>
      <point x="389" y="32"/>
      <point x="172" y="170"/>
      <point x="2" y="404" type="curve"/>
      <point x="167" y="647" type="line"/>
      <point x="356" y="406"/>
      <point x="461" y="348"/>
      <point x="549" y="348" type="curve" smooth="yes"/>
      <point x="621" y="348"/>
      <point x="668" y="393"/>
      <point x="668" y="460" type="curve" smooth="yes"/>
      <point x="668" y="544"/>
      <point x="602" y="621"/>
      <point x="438" y="658" type="curve"/>
      <point x="438" y="909" type="line"/>
      <point x="1201" y="909" type="line"/>
      <point x="1201" y="612" type="line"/>
    </contour>
    <contour>
      <point x="1148" y="1096" type="line"/>
      <point x="1514" y="1096" type="line"/>
      <point x="1514" y="0" type="line"/>
      <point x="1148" y="0" type="line"/>
    </contour>
  </outline>
</glyph>
<glyph name="jhadeva" format="1">
  <advance width="1809"/>
  <unicode hex="091D"/>
  <outline>
    <contour>
      <point x="1306" y="282" type="line"/>
      <point x="1282" y="277"/>
      <point x="1224" y="273"/>
      <point x="1182" y="273" type="curve" smooth="yes"/>
      <point x="1052" y="273"/>
      <point x="960" y="289"/>
      <point x="892" y="305" type="curve"/>
      <point x="884" y="569" type="line"/>
      <point x="948" y="555"/>
      <point x="1005" y="547"/>
      <point x="1060" y="547" type="curve" smooth="yes"/>
      <point x="1133" y="547"/>
      <point x="1241" y="571"/>
      <point x="1306" y="633" type="curve"/>
    </contour>
    <contour>
      <point x="1259" y="1096" type="line"/>
      <point x="1625" y="1096" type="line"/>
      <point x="1625" y="0" type="line"/>
      <point x="1259" y="0" type="line"/>
    </contour>
    <contour>
      <point x="1839" y="1056" type="line"/>
      <point x="1097" y="1056" type="line"/>
      <point x="1097" y="1294" type="line"/>
      <point x="1839" y="1294" type="line"/>
    </contour>
    <component base="ideva"/>
  </outline>
</glyph>
<glyph name="nyadeva" format="1">
  <advance width="1771"/>
  <unicode hex="091E"/>
  <outline>
    <contour>
      <point x="933" y="408" type="curve"/>
      <point x="933" y="692" type="line"/>
      <point x="967" y="681"/>
      <point x="1047" y="677"/>
      <point x="1092" y="677" type="curve" smooth="yes"/>
      <point x="1165" y="677"/>
      <point x="1220" y="692"/>
      <point x="1305" y="734" type="curve"/>
      <point x="1305" y="402" type="line"/>
      <point x="1279" y="395"/>
      <point x="1223" y="383"/>
      <point x="1168" y="383" type="curve" smooth="yes"/>
      <point x="1096" y="383"/>
      <point x="985" y="396"/>
    </contour>
    <contour>
      <point x="1052" y="509" type="curve" smooth="yes"/>
      <point x="1052" y="239"/>
      <point x="860" y="89"/>
      <point x="626" y="89" type="curve" smooth="yes"/>
      <point x="417" y="89"/>
      <point x="219" y="174"/>
      <point x="16" y="348" type="curve"/>
      <point x="131" y="599" type="line"/>
      <point x="310" y="442"/>
      <point x="433" y="383"/>
      <point x="555" y="383" type="curve" smooth="yes"/>
      <point x="680" y="383"/>
      <point x="737" y="451"/>
      <point x="736" y="532" type="curve" smooth="yes"/>
      <point x="735" y="608"/>
      <point x="668" y="666"/>
      <point x="577" y="666" type="curve" smooth="yes"/>
      <point x="492" y="666"/>
      <point x="404" y="629"/>
      <point x="347" y="584" type="curve"/>
      <point x="223" y="840" type="line"/>
      <point x="295" y="894"/>
      <point x="418" y="948"/>
      <point x="571" y="948" type="curve" smooth="yes"/>
      <point x="839" y="948"/>
      <point x="1052" y="778"/>
    </contour>
    <contour>
      <point x="-30" y="1056" type="curve"/>
      <point x="-30" y="1294" type="line"/>
      <point x="1801" y="1294" type="line"/>
      <point x="1801" y="1056" type="line"/>
      <point x="1801" y="1056"/>
      <point x="-30" y="1056"/>
    </contour>
    <contour>
      <point x="1221" y="1096" type="line"/>
      <point x="1587" y="1096" type="line"/>
      <point x="1587" y="0" type="line"/>
      <point x="1221" y="0" type="line"/>
    </contour>
  </outline>
</glyph>
<glyph name="ttadeva" format="1">
  <advance width="1196"/>
  <unicode hex="091F"/>
  <outline>
    <contour>
      <point x="652" y="1093" type="line"/>
      <point x="998" y="1093" type="line"/>
      <point x="998" y="644" type="line"/>
      <point x="701" y="644" type="line" smooth="yes"/>
      <point x="509" y="644"/>
      <point x="443" y="556"/>
      <point x="443" y="468" type="curve" smooth="yes"/>
      <point x="443" y="371"/>
      <point x="547" y="302"/>
      <point x="659" y="302" type="curve" smooth="yes"/>
      <point x="778" y="302"/>
      <point x="881" y="325"/>
      <point x="1052" y="385" type="curve"/>
      <point x="1117" y="85" type="line"/>
      <point x="951" y="41"/>
      <point x="850" y="28"/>
      <point x="701" y="28" type="curve" smooth="yes"/>
      <point x="327" y="28"/>
      <point x="83" y="253"/>
      <point x="83" y="510" type="curve" smooth="yes"/>
      <point x="83" y="720"/>
      <point x="229" y="895"/>
      <point x="588" y="895" type="curve" smooth="yes"/>
      <point x="692" y="895" type="line"/>
      <point x="652" y="854" type="line"/>
    </contour>
    <contour>
      <point x="1217" y="1056" type="line"/>
      <point x="-45" y="1056" type="line"/>
      <point x="-45" y="1294" type="line"/>
      <point x="1217" y="1294" type="line"/>
    </contour>
    <contour>
      <point x="-50.0" y="8.0" type="move" name="x28"/>
    </contour>
    <contour>
      <point x="1142.0" y="8.0" type="move" name="x29"/>
    </contour>
    <contour>
      <point x="567.0" y="8.0" type="move" name="mark0"/>
    </contour>
  </outline>
</glyph>
<glyph name="tthadeva" format="1">
  <advance width="1336"/>
  <unicode hex="0920"/>
  <outline>
    <contour>
      <point x="935" y="483" type="curve" smooth="yes"/>
      <point x="935" y="542"/>
      <point x="910" y="590"/>
      <point x="860" y="638" type="curve"/>
      <point x="685" y="638" type="line" smooth="yes"/>
      <point x="472" y="638"/>
      <point x="405" y="549"/>
      <point x="405" y="458" type="curve" smooth="yes"/>
      <point x="405" y="349"/>
      <point x="502" y="275"/>
      <point x="647" y="275" type="curve" smooth="yes"/>
      <point x="841" y="275"/>
      <point x="935" y="367"/>
    </contour>
    <contour>
      <point x="1356" y="1056" type="line"/>
      <point x="-14" y="1056" type="line"/>
      <point x="-14" y="1294" type="line"/>
      <point x="1356" y="1294" type="line"/>
    </contour>
    <contour>
      <point x="611" y="1076" type="line"/>
      <point x="957" y="1076" type="line"/>
      <point x="957" y="823" type="line"/>
      <point x="922" y="879" type="line"/>
      <point x="1147" y="787"/>
      <point x="1275" y="623"/>
      <point x="1275" y="430" type="curve" smooth="yes"/>
      <point x="1275" y="213"/>
      <point x="1083" y="15"/>
      <point x="721" y="14" type="curve" smooth="yes"/>
      <point x="289" y="13"/>
      <point x="57" y="257"/>
      <point x="57" y="508" type="curve" smooth="yes"/>
      <point x="57" y="741"/>
      <point x="236" y="894"/>
      <point x="534" y="894" type="curve" smooth="yes"/>
      <point x="654" y="894" type="line"/>
      <point x="611" y="852" type="line"/>
    </contour>
    <contour>
      <point x="-52" y="8" type="move" name="x34"/>
    </contour>
    <contour>
      <point x="1312" y="8" type="move" name="x35"/>
    </contour>
    <contour>
      <point x="566" y="8" type="move" name="mark0"/>
    </contour>
  </outline>
</glyph>
<glyph name="ddadeva" format="1">
  <advance width="1250"/>
  <unicode hex="0921"/>
  <outline>
    <contour>
      <point x="695" y="1076" type="line"/>
      <point x="1040" y="1076" type="line"/>
      <point x="1040" y="713" type="line"/>
      <point x="556" y="713" type="line" smooth="yes"/>
      <point x="483" y="713"/>
      <point x="455" y="681"/>
      <point x="455" y="647" type="curve" smooth="yes"/>
      <point x="455" y="613"/>
      <point x="481" y="592"/>
      <point x="550" y="558" type="curve"/>
      <point x="445" y="576" type="line"/>
      <point x="554" y="621"/>
      <point x="623" y="636"/>
      <point x="754" y="636" type="curve" smooth="yes"/>
      <point x="1032" y="636"/>
      <point x="1158" y="489"/>
      <point x="1158" y="318" type="curve" smooth="yes"/>
      <point x="1158" y="152"/>
      <point x="1018" y="-15"/>
      <point x="651" y="-15" type="curve" smooth="yes"/>
      <point x="431" y="-15"/>
      <point x="273" y="45"/>
      <point x="69" y="150" type="curve"/>
      <point x="129" y="403" type="line"/>
      <point x="327" y="292"/>
      <point x="502" y="233"/>
      <point x="626" y="233" type="curve" smooth="yes"/>
      <point x="760" y="233"/>
      <point x="822" y="280"/>
      <point x="822" y="320" type="curve" smooth="yes"/>
      <point x="822" y="352"/>
      <point x="789" y="371"/>
      <point x="728" y="371" type="curve" smooth="yes"/>
      <point x="641" y="371"/>
      <point x="580" y="357"/>
      <point x="502" y="327" type="curve"/>
      <point x="476" y="326" type="line"/>
      <point x="223" y="431"/>
      <point x="121" y="565"/>
      <point x="121" y="709" type="curve" smooth="yes"/>
      <point x="121" y="830"/>
      <point x="214" y="946"/>
      <point x="460" y="946" type="curve" smooth="yes"/>
      <point x="764" y="946" type="line"/>
      <point x="695" y="878" type="line"/>
    </contour>
    <contour>
      <point x="1285" y="1056" type="line"/>
      <point x="-41" y="1056" type="line"/>
      <point x="-41" y="1294" type="line"/>
      <point x="1285" y="1294" type="line"/>
    </contour>
    <contour>
      <point x="-277" y="8" type="move" name="x44"/>
    </contour>
    <contour>
      <point x="1242" y="8" type="move" name="x45"/>
    </contour>
    <contour>
      <point x="528" y="8" type="move" name="mark0"/>
    </contour>
  </outline>
</glyph>
<glyph name="ddhadeva" format="1">
  <advance width="1253"/>
  <unicode hex="0922"/>
  <outline>
    <contour>
      <point x="1285" y="1056" type="line"/>
      <point x="-53" y="1056" type="line"/>
      <point x="-53" y="1294" type="line"/>
      <point x="1285" y="1294" type="line"/>
    </contour>
    <contour>
      <point x="674" y="1086" type="line"/>
      <point x="1020" y="1086" type="line"/>
      <point x="1020" y="657" type="line"/>
      <point x="672" y="657" type="line" smooth="yes"/>
      <point x="448" y="657"/>
      <point x="366" y="549"/>
      <point x="366" y="431" type="curve" smooth="yes"/>
      <point x="366" y="304"/>
      <point x="513" y="199"/>
      <point x="726" y="199" type="curve" smooth="yes"/>
      <point x="860" y="199"/>
      <point x="938" y="255"/>
      <point x="938" y="318" type="curve" smooth="yes"/>
      <point x="938" y="359"/>
      <point x="906" y="376"/>
      <point x="870" y="376" type="curve" smooth="yes"/>
      <point x="793" y="376"/>
      <point x="731" y="317"/>
      <point x="731" y="244" type="curve" smooth="yes"/>
      <point x="731" y="200"/>
      <point x="748" y="159"/>
      <point x="761" y="122" type="curve"/>
      <point x="502" y="92" type="line"/>
      <point x="460" y="157"/>
      <point x="449" y="206"/>
      <point x="449" y="278" type="curve" smooth="yes"/>
      <point x="449" y="435"/>
      <point x="584" y="582"/>
      <point x="848" y="582" type="curve" smooth="yes"/>
      <point x="1092" y="582"/>
      <point x="1229" y="476"/>
      <point x="1229" y="306" type="curve" smooth="yes"/>
      <point x="1229" y="158"/>
      <point x="1087" y="2"/>
      <point x="729" y="2" type="curve" smooth="yes"/>
      <point x="286" y="2"/>
      <point x="34" y="264"/>
      <point x="34" y="501" type="curve" smooth="yes"/>
      <point x="34" y="719"/>
      <point x="167" y="895"/>
      <point x="562" y="895" type="curve" smooth="yes"/>
      <point x="715" y="895" type="line"/>
      <point x="674" y="861" type="line"/>
    </contour>
    <contour>
      <point x="-99" y="8" type="move" name="x43"/>
    </contour>
    <contour>
      <point x="1229" y="8" type="move" name="x44"/>
    </contour>
    <contour>
      <point x="581" y="8" type="move" name="mark0"/>
    </contour>
  </outline>
</glyph>
<glyph name="nnadeva" format="1">
  <advance width="1854"/>
  <unicode hex="0923"/>
  <outline>
    <contour>
      <point x="715" y="1076" type="line"/>
      <point x="1081" y="1076" type="line"/>
      <point x="1081" y="729" type="line" smooth="yes"/>
      <point x="1081" y="445"/>
      <point x="934" y="256"/>
      <point x="612" y="256" type="curve" smooth="yes"/>
      <point x="280" y="256"/>
      <point x="109" y="463"/>
      <point x="109" y="727" type="curve" smooth="yes"/>
      <point x="109" y="1076" type="line"/>
      <point x="475" y="1076" type="line"/>
      <point x="475" y="658" type="line" smooth="yes"/>
      <point x="475" y="573"/>
      <point x="518" y="518"/>
      <point x="591" y="518" type="curve" smooth="yes"/>
      <point x="667" y="518"/>
      <point x="715" y="573"/>
      <point x="715" y="692" type="curve" smooth="yes"/>
    </contour>
    <contour>
      <point x="-30" y="1056" type="curve"/>
      <point x="-30" y="1294" type="line"/>
      <point x="1884" y="1294" type="line"/>
      <point x="1884" y="1056" type="line"/>
      <point x="1884" y="1056"/>
      <point x="-30" y="1056"/>
    </contour>
    <contour>
      <point x="1304" y="1096" type="line"/>
      <point x="1670" y="1096" type="line"/>
      <point x="1670" y="0" type="line"/>
      <point x="1304" y="0" type="line"/>
    </contour>
  </outline>
</glyph>
<glyph name="tadeva" format="1">
  <advance width="1326"/>
  <unicode hex="0924"/>
  <outline>
    <contour>
      <point x="845" y="909" type="line"/>
      <point x="845" y="606" type="line"/>
      <point x="647" y="606" type="line" smooth="yes"/>
      <point x="467" y="606"/>
      <point x="412" y="516"/>
      <point x="412" y="409" type="curve" smooth="yes"/>
      <point x="412" y="315"/>
      <point x="460" y="207"/>
      <point x="546" y="50" type="curve"/>
      <point x="255" y="-35" type="line"/>
      <point x="139" y="156"/>
      <point x="71" y="342"/>
      <point x="73" y="502" type="curve" smooth="yes"/>
      <point x="76" y="732"/>
      <point x="220" y="909"/>
      <point x="563" y="909" type="curve" smooth="yes"/>
    </contour>
    <contour>
      <point x="-20" y="1056" type="curve"/>
      <point x="-20" y="1294" type="line"/>
      <point x="1346" y="1294" type="line"/>
      <point x="1346" y="1056" type="line"/>
      <point x="1346" y="1056"/>
      <point x="-20" y="1056"/>
    </contour>
    <contour>
      <point x="776" y="1096" type="line"/>
      <point x="1142" y="1096" type="line"/>
      <point x="1142" y="0" type="line"/>
      <point x="776" y="0" type="line"/>
    </contour>
  </outline>
</glyph>
<glyph name="thadeva" format="1">
  <advance width="1520"/>
  <unicode hex="0925"/>
  <outline>
    <contour>
      <point x="813" y="921" type="curve" smooth="yes"/>
      <point x="813" y="705"/>
      <point x="639" y="570"/>
      <point x="428" y="509" type="curve"/>
      <point x="428" y="616" type="line"/>
      <point x="502" y="535"/>
      <point x="576" y="493"/>
      <point x="682" y="493" type="curve" smooth="yes"/>
      <point x="836" y="493"/>
      <point x="968" y="569"/>
      <point x="1026" y="732" type="curve"/>
      <point x="1026" y="732"/>
      <point x="1026" y="229"/>
      <point x="1026" y="229" type="curve"/>
      <point x="960" y="209"/>
      <point x="900" y="202"/>
      <point x="795" y="202" type="curve" smooth="yes"/>
      <point x="510" y="202"/>
      <point x="228" y="374"/>
      <point x="90" y="671" type="curve"/>
      <point x="90" y="677" type="line"/>
      <point x="308" y="712"/>
      <point x="502" y="827"/>
      <point x="502" y="964" type="curve" smooth="yes"/>
      <point x="502" y="1050"/>
      <point x="449" y="1097"/>
      <point x="395" y="1097" type="curve" smooth="yes"/>
      <point x="349" y="1097"/>
      <point x="323" y="1065"/>
      <point x="323" y="1019" type="curve" smooth="yes"/>
      <point x="323" y="961"/>
      <point x="370" y="905"/>
      <point x="487" y="854" type="curve"/>
      <point x="384" y="706" type="line"/>
      <point x="105" y="794"/>
      <point x="5" y="926"/>
      <point x="5" y="1082" type="curve" smooth="yes"/>
      <point x="5" y="1221"/>
      <point x="108" y="1343"/>
      <point x="322" y="1343" type="curve" smooth="yes"/>
      <point x="637" y="1343"/>
      <point x="813" y="1134"/>
    </contour>
    <contour>
      <point x="970" y="1096" type="line"/>
      <point x="1336" y="1096" type="line"/>
      <point x="1336" y="0" type="line"/>
      <point x="970" y="0" type="line"/>
    </contour>
    <contour>
      <point x="1550" y="1056" type="line"/>
      <point x="892" y="1056" type="line"/>
      <point x="892" y="1294" type="line"/>
      <point x="1550" y="1294" type="line"/>
    </contour>
  </outline>
</glyph>
<glyph name="dadeva" format="1">
  <advance width="1229"/>
  <unicode hex="0926"/>
  <outline>
    <contour>
      <point x="-20" y="1056" type="curve"/>
      <point x="-20" y="1294" type="line"/>
      <point x="1249" y="1294" type="line"/>
      <point x="1249" y="1056" type="line"/>
      <point x="1249" y="1056"/>
      <point x="-20" y="1056"/>
    </contour>
    <contour>
      <point x="682" y="168" type="line"/>
      <point x="949" y="247" type="line"/>
      <point x="1184" y="-192" type="line"/>
      <point x="932" y="-298" type="line"/>
    </contour>
    <contour>
      <point x="1166" y="164"/>
      <point x="1002" y="43"/>
      <point x="674" y="43" type="curve" smooth="yes"/>
      <point x="317" y="43"/>
      <point x="62" y="233"/>
      <point x="62" y="508" type="curve" smooth="yes"/>
      <point x="62" y="737"/>
      <point x="216" y="909"/>
      <point x="579" y="909" type="curve" smooth="yes"/>
      <point x="720" y="909" type="line"/>
      <point x="648" y="853" type="line"/>
      <point x="648" y="1086" type="line"/>
      <point x="1015" y="1086" type="line"/>
      <point x="1015" y="656" type="line"/>
      <point x="678" y="656" type="line" smooth="yes"/>
      <point x="482" y="656"/>
      <point x="402" y="581"/>
      <point x="402" y="466" type="curve" smooth="yes"/>
      <point x="402" y="364"/>
      <point x="491" y="295"/>
      <point x="608" y="295" type="curve" smooth="yes"/>
      <point x="703" y="295"/>
      <point x="749" y="296"/>
      <point x="868" y="321" type="curve"/>
      <point x="666" y="207" type="line"/>
      <point x="629" y="262"/>
      <point x="612" y="321"/>
      <point x="612" y="371" type="curve" smooth="yes"/>
      <point x="612" y="440"/>
      <point x="654" y="518"/>
      <point x="806" y="518" type="curve" smooth="yes"/>
      <point x="1010" y="518"/>
      <point x="1166" y="415"/>
      <point x="1166" y="290" type="curve" smooth="yes"/>
    </contour>
    <contour>
      <point x="-60.0" y="8.0" type="move" name="x42"/>
    </contour>
    <contour>
      <point x="1171.0" y="8.0" type="move" name="x43"/>
    </contour>
    <contour>
      <point x="831.0" y="8.0" type="move" name="mark0"/>
    </contour>
  </outline>
</glyph>
<glyph name="dhadeva" format="1">
  <advance width="1503"/>
  <unicode hex="0927"/>
  <outline>
    <contour>
      <point x="810" y="627" type="line"/>
      <point x="799" y="626" type="line" smooth="yes"/>
      <point x="643" y="612"/>
      <point x="587" y="553"/>
      <point x="587" y="498" type="curve" smooth="yes"/>
      <point x="587" y="451"/>
      <point x="632" y="415"/>
      <point x="699" y="417" type="curve" smooth="yes"/>
      <point x="844" y="421"/>
      <point x="988" y="541"/>
      <point x="1030" y="671" type="curve"/>
      <point x="1030" y="180" type="line"/>
      <point x="945" y="144"/>
      <point x="851" y="124"/>
      <point x="733" y="124" type="curve" smooth="yes"/>
      <point x="432" y="124"/>
      <point x="256" y="319"/>
      <point x="256" y="537" type="curve" smooth="yes"/>
      <point x="256" y="714"/>
      <point x="383" y="913"/>
      <point x="713" y="913" type="curve" smooth="yes"/>
      <point x="719" y="913" type="line"/>
    </contour>
    <contour>
      <point x="328" y="674" type="curve"/>
      <point x="110" y="737"/>
      <point x="-9" y="875"/>
      <point x="-9" y="1047" type="curve" smooth="yes"/>
      <point x="-9" y="1207"/>
      <point x="131" y="1344"/>
      <point x="402" y="1344" type="curve" smooth="yes"/>
      <point x="503" y="1344"/>
      <point x="569" y="1334"/>
      <point x="629" y="1319" type="curve"/>
      <point x="611" y="1102" type="line"/>
      <point x="567" y="1109"/>
      <point x="543" y="1112"/>
      <point x="495" y="1112" type="curve" smooth="yes"/>
      <point x="412" y="1112"/>
      <point x="358" y="1061"/>
      <point x="358" y="1003" type="curve" smooth="yes"/>
      <point x="358" y="929"/>
      <point x="428" y="857"/>
      <point x="582" y="858" type="curve"/>
      <point x="582" y="858"/>
      <point x="328" y="674"/>
    </contour>
    <contour>
      <point x="953" y="1095" type="line"/>
      <point x="1319" y="1095" type="line"/>
      <point x="1319" y="0" type="line"/>
      <point x="953" y="0" type="line"/>
    </contour>
    <contour>
      <point x="1533" y="1056" type="line"/>
      <point x="881" y="1056" type="line"/>
      <point x="881" y="1294" type="line"/>
      <point x="1533" y="1294" type="line"/>
    </contour>
  </outline>
</glyph>
<glyph name="nadeva" format="1">
  <advance width="1338"/>
  <unicode hex="0928"/>
  <outline>
    <contour>
      <point x="826" y="854" type="line"/>
      <point x="826" y="557" type="line"/>
      <point x="452" y="557" type="line"/>
      <point x="502" y="608" type="line"/>
      <point x="502" y="373" type="line" smooth="yes"/>
      <point x="502" y="280"/>
      <point x="455" y="224"/>
      <point x="382" y="224" type="curve" smooth="yes"/>
      <point x="330" y="224"/>
      <point x="276" y="251"/>
      <point x="214" y="313" type="curve" smooth="yes"/>
      <point x="139" y="388"/>
      <point x="54" y="534"/>
      <point x="54" y="673" type="curve" smooth="yes"/>
      <point x="54" y="790"/>
      <point x="113" y="854"/>
      <point x="254" y="854" type="curve" smooth="yes"/>
    </contour>
    <contour>
      <point x="-30" y="1056" type="curve"/>
      <point x="-30" y="1294" type="line"/>
      <point x="1368" y="1294" type="line"/>
      <point x="1368" y="1056" type="line"/>
      <point x="1368" y="1056"/>
      <point x="-30" y="1056"/>
    </contour>
    <contour>
      <point x="788" y="1096" type="line"/>
      <point x="1154" y="1096" type="line"/>
      <point x="1154" y="0" type="line"/>
      <point x="788" y="0" type="line"/>
    </contour>
  </outline>
</glyph>
<glyph name="padeva" format="1">
  <advance width="1320"/>
  <unicode hex="092A"/>
  <outline>
    <contour>
      <point x="1347" y="1056" type="line"/>
      <point x="-49" y="1056" type="line"/>
      <point x="-49" y="1294" type="line"/>
      <point x="1347" y="1294" type="line"/>
    </contour>
    <contour>
      <point x="475" y="1166" type="line"/>
      <point x="475" y="672" type="line" smooth="yes"/>
      <point x="475" y="588"/>
      <point x="511" y="542"/>
      <point x="580" y="542" type="curve" smooth="yes"/>
      <point x="665" y="542"/>
      <point x="724" y="576"/>
      <point x="795" y="643" type="curve"/>
      <point x="795" y="280" type="line"/>
      <point x="749" y="268"/>
      <point x="698" y="263"/>
      <point x="640" y="263" type="curve" smooth="yes"/>
      <point x="324" y="263"/>
      <point x="109" y="458"/>
      <point x="109" y="755" type="curve" smooth="yes"/>
      <point x="109" y="1166" type="line"/>
    </contour>
    <contour>
      <point x="770" y="1096" type="line"/>
      <point x="1136" y="1096" type="line"/>
      <point x="1136" y="0" type="line"/>
      <point x="770" y="0" type="line"/>
    </contour>
  </outline>
</glyph>
<glyph name="phadeva" format="1">
  <advance width="1866"/>
  <unicode hex="092B"/>
  <outline>
    <contour>
      <point x="485" y="1166" type="line"/>
      <point x="485" y="702" type="line" smooth="yes"/>
      <point x="485" y="618"/>
      <point x="523" y="572"/>
      <point x="592" y="572" type="curve" smooth="yes"/>
      <point x="665" y="572"/>
      <point x="742" y="608"/>
      <point x="804" y="681" type="curve"/>
      <point x="804" y="300" type="line"/>
      <point x="758" y="288"/>
      <point x="704" y="283"/>
      <point x="636" y="283" type="curve" smooth="yes"/>
      <point x="320" y="283"/>
      <point x="119" y="468"/>
      <point x="119" y="785" type="curve" smooth="yes"/>
      <point x="119" y="1166" type="line"/>
    </contour>
    <contour>
      <point x="1091" y="388" type="curve"/>
      <point x="1083" y="833" type="line"/>
      <point x="1151" y="838"/>
      <point x="1194" y="841"/>
      <point x="1287" y="841" type="curve" smooth="yes"/>
      <point x="1584" y="841"/>
      <point x="1782" y="666"/>
      <point x="1782" y="424" type="curve" smooth="yes"/>
      <point x="1782" y="297"/>
      <point x="1726" y="160"/>
      <point x="1649" y="60" type="curve"/>
      <point x="1331" y="179" type="line"/>
      <point x="1402" y="274"/>
      <point x="1451" y="371"/>
      <point x="1451" y="463" type="curve" smooth="yes"/>
      <point x="1451" y="515"/>
      <point x="1416" y="547"/>
      <point x="1354" y="547" type="curve" smooth="yes"/>
      <point x="1276" y="547"/>
      <point x="1172" y="496"/>
    </contour>
    <contour>
      <point x="-30" y="1056" type="curve"/>
      <point x="-30" y="1294" type="line"/>
      <point x="1896" y="1294" type="line"/>
      <point x="1896" y="1056" type="line"/>
      <point x="1896" y="1056"/>
      <point x="-30" y="1056"/>
    </contour>
    <contour>
      <point x="774" y="1096" type="line"/>
      <point x="1140" y="1096" type="line"/>
      <point x="1140" y="0" type="line"/>
      <point x="774" y="0" type="line"/>
    </contour>
    <contour>
      <point x="33" y="8" type="move" name="x43"/>
    </contour>
    <contour>
      <point x="871" y="8" type="move" name="mark0"/>
    </contour>
    <contour>
      <point x="871" y="8" type="move" name="x2"/>
    </contour>
  </outline>
</glyph>
<glyph name="badeva" format="1">
  <advance width="1295"/>
  <unicode hex="092C"/>
  <outline>
    <contour>
      <point x="773" y="437" type="line"/>
      <point x="644" y="342" type="line"/>
      <point x="343" y="685" type="line"/>
      <point x="472" y="780" type="line"/>
    </contour>
    <contour>
      <point x="1315" y="1056" type="line"/>
      <point x="-20" y="1056" type="line"/>
      <point x="-20" y="1294" type="line"/>
      <point x="1315" y="1294" type="line"/>
    </contour>
    <contour>
      <point x="784" y="574" type="curve"/>
      <point x="784" y="201" type="line"/>
      <point x="719" y="168"/>
      <point x="646" y="151"/>
      <point x="553" y="151" type="curve" smooth="yes"/>
      <point x="237" y="151"/>
      <point x="43" y="371"/>
      <point x="43" y="613" type="curve" smooth="yes"/>
      <point x="43" y="810"/>
      <point x="202" y="952"/>
      <point x="452" y="952" type="curve" smooth="yes"/>
      <point x="610" y="952"/>
      <point x="738" y="926"/>
      <point x="842" y="884" type="curve"/>
      <point x="842" y="624" type="line"/>
      <point x="727" y="670"/>
      <point x="647" y="695"/>
      <point x="549" y="695" type="curve" smooth="yes"/>
      <point x="436" y="695"/>
      <point x="369" y="647"/>
      <point x="369" y="554" type="curve" smooth="yes"/>
      <point x="369" y="483"/>
      <point x="424" y="424"/>
      <point x="504" y="424" type="curve" smooth="yes"/>
      <point x="609" y="424"/>
      <point x="703" y="472"/>
    </contour>
    <contour>
      <point x="745" y="1096" type="line"/>
      <point x="1111" y="1096" type="line"/>
      <point x="1111" y="0" type="line"/>
      <point x="745" y="0" type="line"/>
    </contour>
  </outline>
</glyph>
<glyph name="bhadeva" format="1">
  <advance width="1561"/>
  <unicode hex="092D"/>
  <outline>
    <contour>
      <point x="1011" y="1096" type="line"/>
      <point x="1377" y="1096" type="line"/>
      <point x="1377" y="0" type="line"/>
      <point x="1011" y="0" type="line"/>
    </contour>
    <contour>
      <point x="1591" y="1056" type="line"/>
      <point x="939" y="1056" type="line"/>
      <point x="939" y="1294" type="line"/>
      <point x="1591" y="1294" type="line"/>
    </contour>
    <contour>
      <point x="443" y="696" type="line"/>
      <point x="406" y="666" type="line"/>
      <point x="406" y="992" type="line" smooth="yes"/>
      <point x="406" y="1086"/>
      <point x="358" y="1136"/>
      <point x="296" y="1136" type="curve" smooth="yes"/>
      <point x="247" y="1136"/>
      <point x="217" y="1102"/>
      <point x="217" y="1060" type="curve" smooth="yes"/>
      <point x="217" y="1006"/>
      <point x="264" y="960"/>
      <point x="418" y="960" type="curve"/>
      <point x="424" y="753" type="line"/>
      <point x="66" y="753"/>
      <point x="-92" y="912"/>
      <point x="-92" y="1105" type="curve" smooth="yes"/>
      <point x="-92" y="1248"/>
      <point x="11" y="1384"/>
      <point x="258" y="1384" type="curve" smooth="yes"/>
      <point x="535" y="1384"/>
      <point x="742" y="1206"/>
      <point x="742" y="945" type="curve" smooth="yes"/>
      <point x="742" y="652" type="line"/>
      <point x="709" y="696" type="line"/>
      <point x="1037" y="696" type="line"/>
      <point x="1037" y="399" type="line"/>
      <point x="690" y="399" type="line"/>
      <point x="742" y="450" type="line"/>
      <point x="742" y="321" type="line" smooth="yes"/>
      <point x="742" y="228"/>
      <point x="707" y="172"/>
      <point x="615" y="172" type="curve" smooth="yes"/>
      <point x="528" y="172"/>
      <point x="409" y="226"/>
      <point x="328" y="307" type="curve" smooth="yes"/>
      <point x="257" y="378"/>
      <point x="201" y="480"/>
      <point x="201" y="570" type="curve" smooth="yes"/>
      <point x="201" y="644"/>
      <point x="247" y="696"/>
      <point x="337" y="696" type="curve" smooth="yes"/>
    </contour>
    <contour>
      <point x="1011" y="1294" type="move" name="top"/>
    </contour>
  </outline>
</glyph>
<glyph name="madeva" format="1">
  <advance width="1414"/>
  <unicode hex="092E"/>
  <outline>
    <contour>
      <point x="-20" y="1056" type="curve"/>
      <point x="-20" y="1294" type="line"/>
      <point x="1434" y="1294" type="line"/>
      <point x="1434" y="1056" type="line"/>
      <point x="1434" y="1056"/>
      <point x="-20" y="1056"/>
    </contour>
    <contour>
      <point x="864" y="1096" type="line"/>
      <point x="1230" y="1096" type="line"/>
      <point x="1230" y="0" type="line"/>
      <point x="864" y="0" type="line"/>
    </contour>
    <contour>
      <point x="36" y="570" type="curve" smooth="yes"/>
      <point x="36" y="644"/>
      <point x="82" y="695"/>
      <point x="172" y="695" type="curve" smooth="yes"/>
      <point x="249" y="695" type="line"/>
      <point x="212" y="666" type="line"/>
      <point x="212" y="1095" type="line"/>
      <point x="577" y="1095" type="line"/>
      <point x="577" y="652" type="line"/>
      <point x="545" y="696" type="line"/>
      <point x="912" y="696" type="line"/>
      <point x="912" y="399" type="line"/>
      <point x="526" y="399" type="line"/>
      <point x="577" y="450" type="line"/>
      <point x="577" y="321" type="line" smooth="yes"/>
      <point x="577" y="228"/>
      <point x="542" y="172"/>
      <point x="450" y="172" type="curve" smooth="yes"/>
      <point x="363" y="172"/>
      <point x="244" y="226"/>
      <point x="163" y="307" type="curve" smooth="yes"/>
      <point x="92" y="378"/>
      <point x="36" y="480"/>
    </contour>
  </outline>
</glyph>
<glyph name="yadeva" format="1">
  <advance width="1436"/>
  <unicode hex="092F"/>
  <outline>
    <contour>
      <point x="-11" y="1056" type="curve"/>
      <point x="-11" y="1294" type="line"/>
      <point x="1461" y="1294" type="line"/>
      <point x="1461" y="1056" type="line"/>
      <point x="1461" y="1056"/>
      <point x="-11" y="1056"/>
    </contour>
    <contour>
      <point x="315" y="1096" type="line"/>
      <point x="681" y="1096" type="line"/>
      <point x="681" y="928" type="line" smooth="yes"/>
      <point x="681" y="706"/>
      <point x="589" y="573"/>
      <point x="353" y="503" type="curve"/>
      <point x="353" y="599" type="line"/>
      <point x="416" y="526"/>
      <point x="506" y="472"/>
      <point x="608" y="472" type="curve" smooth="yes"/>
      <point x="752" y="472"/>
      <point x="879" y="559"/>
      <point x="932" y="689" type="curve"/>
      <point x="932" y="206" type="line"/>
      <point x="877" y="188"/>
      <point x="831" y="182"/>
      <point x="721" y="182" type="curve" smooth="yes"/>
      <point x="403" y="182"/>
      <point x="115" y="384"/>
      <point x="6" y="649" type="curve"/>
      <point x="6" y="655" type="line"/>
      <point x="220" y="725"/>
      <point x="315" y="821"/>
      <point x="315" y="952" type="curve" smooth="yes"/>
    </contour>
    <contour>
      <point x="886" y="1096" type="line"/>
      <point x="1252" y="1096" type="line"/>
      <point x="1252" y="0" type="line"/>
      <point x="886" y="0" type="line"/>
    </contour>
  </outline>
</glyph>
<glyph name="radeva" format="1">
  <advance width="1016"/>
  <unicode hex="0930"/>
  <outline>
    <contour>
      <point x="843" y="97" type="line"/>
      <point x="581" y="-72" type="line"/>
      <point x="108" y="541" type="line" smooth="yes"/>
      <point x="52" y="613"/>
      <point x="26" y="672"/>
      <point x="26" y="735" type="curve" smooth="yes"/>
      <point x="26" y="816"/>
      <point x="85" y="888"/>
      <point x="181" y="888" type="curve" smooth="yes"/>
      <point x="253" y="888"/>
      <point x="304" y="849"/>
      <point x="348" y="792" type="curve" smooth="yes"/>
      <point x="440" y="671" type="line"/>
      <point x="422" y="650" type="line"/>
    </contour>
    <contour>
      <point x="341" y="721" type="line"/>
      <point x="484" y="765"/>
      <point x="527" y="828"/>
      <point x="527" y="947" type="curve" smooth="yes"/>
      <point x="527" y="1116" type="line"/>
      <point x="893" y="1116" type="line"/>
      <point x="893" y="890" type="line" smooth="yes"/>
      <point x="893" y="698"/>
      <point x="764" y="511"/>
      <point x="554" y="425" type="curve"/>
    </contour>
    <contour>
      <point x="-30" y="1056" type="curve"/>
      <point x="-30" y="1294" type="line"/>
      <point x="1046" y="1294" type="line"/>
      <point x="1046" y="1056" type="line"/>
      <point x="1046" y="1056"/>
      <point x="-30" y="1056"/>
    </contour>
    <contour>
      <point x="52.0" y="8.0" type="move" name="x27"/>
    </contour>
    <contour>
      <point x="566.0" y="8.0" type="move" name="mark0"/>
    </contour>
  </outline>
</glyph>
<glyph name="rradeva" format="1">
  <advance width="1016"/>
  <unicode hex="0931"/>
  <outline>
    <component base="radeva"/>
    <component base="nuktadeva" xOffset="1001" yOffset="282"/>
    <contour>
      <point x="317.0" y="174.0" type="move" name="x27"/>
    </contour>
    <contour>
      <point x="593.0" y="0.0" type="move" name="mark0"/>
    </contour>
  </outline>
</glyph>
<glyph name="ladeva" format="1">
  <advance width="1622"/>
  <unicode hex="0932"/>
  <outline>
    <contour>
      <point x="1195" y="985" type="line"/>
      <point x="1195" y="568" type="line"/>
      <point x="763" y="168" type="line"/>
      <point x="536" y="386" type="line"/>
    </contour>
    <contour>
      <point x="1031" y="633" type="curve"/>
      <point x="817" y="446" type="line"/>
      <point x="718" y="552"/>
      <point x="650" y="589"/>
      <point x="559" y="589" type="curve" smooth="yes"/>
      <point x="461" y="589"/>
      <point x="378" y="507"/>
      <point x="378" y="419" type="curve" smooth="yes"/>
      <point x="378" y="332"/>
      <point x="419" y="242"/>
      <point x="551" y="104" type="curve"/>
      <point x="308" y="-32" type="line"/>
      <point x="168" y="111"/>
      <point x="55" y="292"/>
      <point x="55" y="504" type="curve" smooth="yes"/>
      <point x="55" y="724"/>
      <point x="211" y="903"/>
      <point x="485" y="903" type="curve" smooth="yes"/>
      <point x="677" y="903"/>
      <point x="859" y="799"/>
    </contour>
    <contour>
      <point x="-22" y="1056" type="curve"/>
      <point x="-22" y="1294" type="line"/>
      <point x="1647" y="1294" type="line"/>
      <point x="1647" y="1056" type="line"/>
      <point x="1647" y="1056"/>
      <point x="-22" y="1056"/>
    </contour>
    <contour>
      <point x="1072" y="1096" type="line"/>
      <point x="1438" y="1096" type="line"/>
      <point x="1438" y="0" type="line"/>
      <point x="1072" y="0" type="line"/>
    </contour>
  </outline>
</glyph>
<glyph name="lladeva" format="1">
  <advance width="1666"/>
  <unicode hex="0933"/>
  <outline>
    <contour>
      <point x="1686" y="1056" type="line"/>
      <point x="-20" y="1056" type="line"/>
      <point x="-20" y="1294" type="line"/>
      <point x="1686" y="1294" type="line"/>
    </contour>
    <contour>
      <point x="665" y="560" type="curve" smooth="yes"/>
      <point x="757" y="769"/>
      <point x="847" y="924"/>
      <point x="1154" y="924" type="curve" smooth="yes"/>
      <point x="1471" y="924"/>
      <point x="1590" y="684"/>
      <point x="1590" y="481" type="curve" smooth="yes"/>
      <point x="1590" y="254"/>
      <point x="1438" y="64"/>
      <point x="1171" y="64" type="curve" smooth="yes"/>
      <point x="984" y="64"/>
      <point x="839" y="139"/>
      <point x="686" y="263" type="curve"/>
      <point x="799" y="448" type="line"/>
      <point x="904" y="365"/>
      <point x="987" y="330"/>
      <point x="1089" y="330" type="curve" smooth="yes"/>
      <point x="1200" y="330"/>
      <point x="1272" y="407"/>
      <point x="1272" y="515" type="curve" smooth="yes"/>
      <point x="1272" y="594"/>
      <point x="1241" y="629"/>
      <point x="1179" y="629" type="curve" smooth="yes"/>
      <point x="1111" y="629"/>
      <point x="1050" y="562"/>
      <point x="1004" y="459" type="curve" smooth="yes"/>
      <point x="905" y="236"/>
      <point x="778" y="54"/>
      <point x="514" y="54" type="curve" smooth="yes"/>
      <point x="213" y="54"/>
      <point x="48" y="243"/>
      <point x="48" y="499" type="curve" smooth="yes"/>
      <point x="48" y="730"/>
      <point x="201" y="910"/>
      <point x="470" y="910" type="curve" smooth="yes"/>
      <point x="642" y="910"/>
      <point x="779" y="850"/>
      <point x="922" y="738" type="curve"/>
      <point x="833" y="544" type="line"/>
      <point x="715" y="617"/>
      <point x="626" y="646"/>
      <point x="536" y="646" type="curve" smooth="yes"/>
      <point x="436" y="646"/>
      <point x="371" y="566"/>
      <point x="371" y="460" type="curve" smooth="yes"/>
      <point x="371" y="378"/>
      <point x="407" y="334"/>
      <point x="467" y="334" type="curve" smooth="yes"/>
      <point x="539" y="334"/>
      <point x="593" y="396"/>
    </contour>
    <contour>
      <point x="1329" y="823" type="line"/>
      <point x="983" y="829" type="line"/>
      <point x="983" y="1076" type="line"/>
      <point x="1329" y="1076" type="line"/>
    </contour>
    <contour>
      <point x="-142" y="8" type="move" name="x54"/>
    </contour>
    <contour>
      <point x="1633" y="8" type="move" name="x55"/>
    </contour>
    <contour>
      <point x="971" y="8" type="move" name="mark0"/>
    </contour>
  </outline>
</glyph>
<glyph name="llladeva" format="1">
  <advance width="1708"/>
  <unicode hex="0934"/>
  <outline>
    <component base="nuktadeva" xOffset="1154" yOffset="77"/>
    <component base="lladeva"/>
    <contour>
      <point x="581" y="-45" type="move" name="x54"/>
    </contour>
    <contour>
      <point x="648" y="-45" type="move" name="x55"/>
    </contour>
    <contour>
      <point x="1192" y="0" type="move" name="mark0"/>
    </contour>
  </outline>
</glyph>
<glyph name="vadeva" format="1">
  <advance width="1295"/>
  <unicode hex="0935"/>
  <outline>
    <contour>
      <point x="1315" y="1056" type="line"/>
      <point x="-20" y="1056" type="line"/>
      <point x="-20" y="1294" type="line"/>
      <point x="1315" y="1294" type="line"/>
    </contour>
    <contour>
      <point x="784" y="579" type="curve"/>
      <point x="784" y="201" type="line"/>
      <point x="719" y="168"/>
      <point x="646" y="151"/>
      <point x="553" y="151" type="curve" smooth="yes"/>
      <point x="237" y="151"/>
      <point x="43" y="371"/>
      <point x="43" y="613" type="curve" smooth="yes"/>
      <point x="43" y="810"/>
      <point x="202" y="952"/>
      <point x="452" y="952" type="curve" smooth="yes"/>
      <point x="610" y="952"/>
      <point x="738" y="926"/>
      <point x="842" y="884" type="curve"/>
      <point x="842" y="622" type="line"/>
      <point x="727" y="668"/>
      <point x="650" y="688"/>
      <point x="552" y="688" type="curve" smooth="yes"/>
      <point x="439" y="688"/>
      <point x="382" y="625"/>
      <point x="382" y="551" type="curve" smooth="yes"/>
      <point x="382" y="480"/>
      <point x="434" y="429"/>
      <point x="504" y="429" type="curve" smooth="yes"/>
      <point x="609" y="429"/>
      <point x="693" y="476"/>
    </contour>
    <contour>
      <point x="745" y="1096" type="line"/>
      <point x="1111" y="1096" type="line"/>
      <point x="1111" y="0" type="line"/>
      <point x="745" y="0" type="line"/>
    </contour>
  </outline>
</glyph>
<glyph name="shadeva" format="1">
  <advance width="1707"/>
  <unicode hex="0936"/>
  <outline>
    <contour>
      <point x="642" y="387" type="line"/>
      <point x="960" y="122" type="line"/>
      <point x="752" y="-69" type="line"/>
      <point x="373" y="258" type="line"/>
    </contour>
    <contour>
      <point x="1008" y="503"/>
      <point x="566" y="181"/>
      <point x="291" y="181" type="curve" smooth="yes"/>
      <point x="145" y="181"/>
      <point x="86" y="271"/>
      <point x="86" y="380" type="curve" smooth="yes"/>
      <point x="86" y="495"/>
      <point x="175" y="621"/>
      <point x="295" y="621" type="curve" smooth="yes"/>
      <point x="382" y="621"/>
      <point x="447" y="577"/>
      <point x="532" y="499" type="curve"/>
      <point x="418" y="518" type="line"/>
      <point x="574" y="571"/>
      <point x="705" y="730"/>
      <point x="705" y="886" type="curve" smooth="yes"/>
      <point x="705" y="989"/>
      <point x="626" y="1069"/>
      <point x="549" y="1069" type="curve" smooth="yes"/>
      <point x="501" y="1069"/>
      <point x="478" y="1041"/>
      <point x="480" y="987" type="curve" smooth="yes"/>
      <point x="482" y="929"/>
      <point x="519" y="856"/>
      <point x="788" y="822" type="curve"/>
      <point x="704" y="610" type="line"/>
      <point x="304" y="672"/>
      <point x="149" y="857"/>
      <point x="149" y="1036" type="curve" smooth="yes"/>
      <point x="149" y="1180"/>
      <point x="251" y="1327"/>
      <point x="505" y="1327" type="curve" smooth="yes"/>
      <point x="810" y="1327"/>
      <point x="1008" y="1121"/>
      <point x="1008" y="838" type="curve" smooth="yes"/>
    </contour>
    <contour>
      <point x="1157" y="1096" type="line"/>
      <point x="1523" y="1096" type="line"/>
      <point x="1523" y="0" type="line"/>
      <point x="1157" y="0" type="line"/>
    </contour>
    <contour>
      <point x="1733" y="1056" type="line"/>
      <point x="1064" y="1056" type="line"/>
      <point x="1064" y="1294" type="line"/>
      <point x="1733" y="1294" type="line"/>
    </contour>
  </outline>
</glyph>
<glyph name="ssadeva" format="1">
  <advance width="1320"/>
  <unicode hex="0937"/>
  <outline>
    <contour>
      <point x="887" y="607" type="line"/>
      <point x="758" y="512" type="line"/>
      <point x="317" y="1045" type="line"/>
      <point x="446" y="1140" type="line"/>
    </contour>
    <contour>
      <point x="1350" y="1056" type="line"/>
      <point x="-30" y="1056" type="line"/>
      <point x="-30" y="1294" type="line"/>
      <point x="1350" y="1294" type="line"/>
    </contour>
    <contour>
      <point x="466" y="1166" type="line"/>
      <point x="466" y="684" type="line" smooth="yes"/>
      <point x="466" y="602"/>
      <point x="511" y="552"/>
      <point x="580" y="552" type="curve" smooth="yes"/>
      <point x="665" y="552"/>
      <point x="735" y="582"/>
      <point x="795" y="663" type="curve"/>
      <point x="795" y="280" type="line"/>
      <point x="749" y="270"/>
      <point x="688" y="263"/>
      <point x="620" y="263" type="curve" smooth="yes"/>
      <point x="314" y="263"/>
      <point x="109" y="448"/>
      <point x="109" y="755" type="curve" smooth="yes"/>
      <point x="109" y="1166" type="line"/>
    </contour>
    <contour>
      <point x="770" y="1096" type="line"/>
      <point x="1136" y="1096" type="line"/>
      <point x="1136" y="0" type="line"/>
      <point x="770" y="0" type="line"/>
    </contour>
  </outline>
</glyph>
<glyph name="sadeva" format="1">
  <advance width="1628"/>
  <unicode hex="0938"/>
  <outline>
    <contour>
      <point x="847" y="97" type="line"/>
      <point x="597" y="-66" type="line"/>
      <point x="150" y="505" type="line" smooth="yes"/>
      <point x="62" y="618"/>
      <point x="33" y="673"/>
      <point x="33" y="739" type="curve" smooth="yes"/>
      <point x="33" y="817"/>
      <point x="104" y="881"/>
      <point x="187" y="881" type="curve" smooth="yes"/>
      <point x="267" y="881"/>
      <point x="315" y="846"/>
      <point x="402" y="728" type="curve" smooth="yes"/>
      <point x="444" y="671" type="line"/>
      <point x="426" y="650" type="line"/>
    </contour>
    <contour>
      <point x="272" y="727" type="line"/>
      <point x="395" y="771"/>
      <point x="441" y="828"/>
      <point x="441" y="957" type="curve" smooth="yes"/>
      <point x="441" y="1116" type="line"/>
      <point x="807" y="1116" type="line"/>
      <point x="807" y="900" type="line" smooth="yes"/>
      <point x="807" y="708"/>
      <point x="685" y="551"/>
      <point x="465" y="445" type="curve"/>
    </contour>
    <contour>
      <point x="-33" y="1056" type="curve"/>
      <point x="-33" y="1294" type="line"/>
      <point x="1655" y="1294" type="line"/>
      <point x="1655" y="1056" type="line"/>
      <point x="1655" y="1056"/>
      <point x="-33" y="1056"/>
    </contour>
    <contour>
      <point x="528" y="500" type="curve"/>
      <point x="669" y="742" type="line"/>
      <point x="733" y="722"/>
      <point x="813" y="710"/>
      <point x="870" y="710" type="curve" smooth="yes"/>
      <point x="954" y="710"/>
      <point x="1015" y="713"/>
      <point x="1105" y="734" type="curve"/>
      <point x="1105" y="427" type="line"/>
      <point x="1043" y="416"/>
      <point x="992" y="412"/>
      <point x="917" y="412" type="curve" smooth="yes"/>
      <point x="813" y="412"/>
      <point x="662" y="445"/>
    </contour>
    <contour>
      <point x="1078" y="1096" type="line"/>
      <point x="1444" y="1096" type="line"/>
      <point x="1444" y="0" type="line"/>
      <point x="1078" y="0" type="line"/>
    </contour>
  </outline>
</glyph>
<glyph name="hadeva" format="1">
  <advance width="1266"/>
  <unicode hex="0939"/>
  <outline>
    <contour>
      <point x="707" y="1066" type="line"/>
      <point x="1072" y="1066" type="line"/>
      <point x="1072" y="696" type="line"/>
      <point x="529" y="696" type="line" smooth="yes"/>
      <point x="435" y="696"/>
      <point x="396" y="658"/>
      <point x="396" y="608" type="curve" smooth="yes"/>
      <point x="396" y="557"/>
      <point x="441" y="527"/>
      <point x="536" y="506" type="curve"/>
      <point x="536" y="506"/>
      <point x="292" y="331"/>
      <point x="292" y="331" type="curve"/>
      <point x="122" y="434"/>
      <point x="42" y="547"/>
      <point x="42" y="683" type="curve" smooth="yes"/>
      <point x="42" y="822"/>
      <point x="154" y="934"/>
      <point x="378" y="934" type="curve" smooth="yes"/>
      <point x="746" y="934" type="line"/>
      <point x="707" y="881" type="line"/>
    </contour>
    <contour>
      <point x="159" y="387"/>
      <point x="330" y="569"/>
      <point x="673" y="569" type="curve" smooth="yes"/>
      <point x="1029" y="569"/>
      <point x="1183" y="398"/>
      <point x="1183" y="220" type="curve" smooth="yes"/>
      <point x="1183" y="139"/>
      <point x="1165" y="82"/>
      <point x="1131" y="11" type="curve"/>
      <point x="836" y="61" type="line"/>
      <point x="858" y="108"/>
      <point x="868" y="140"/>
      <point x="868" y="189" type="curve" smooth="yes"/>
      <point x="868" y="250"/>
      <point x="820" y="304"/>
      <point x="700" y="304" type="curve" smooth="yes"/>
      <point x="578" y="304"/>
      <point x="501" y="217"/>
      <point x="501" y="132" type="curve" smooth="yes"/>
      <point x="501" y="9"/>
      <point x="598" y="-76"/>
      <point x="1066" y="-135" type="curve"/>
      <point x="972" y="-373" type="line"/>
      <point x="401" y="-305"/>
      <point x="159" y="-112"/>
      <point x="159" y="174" type="curve" smooth="yes"/>
    </contour>
    <contour>
      <point x="1296" y="1056" type="line"/>
      <point x="-30" y="1056" type="line"/>
      <point x="-30" y="1294" type="line"/>
      <point x="1296" y="1294" type="line"/>
    </contour>
  </outline>
</glyph>
<glyph name="avagrahadeva" format="1">
  <advance width="1211"/>
  <unicode hex="093D"/>
  <outline>
    <contour>
      <point x="1055" y="358" type="curve" smooth="yes"/>
      <point x="1055" y="133"/>
      <point x="884" y="-2"/>
      <point x="636" y="-2" type="curve" smooth="yes"/>
      <point x="451" y="-2"/>
      <point x="260" y="44"/>
      <point x="75" y="160" type="curve"/>
      <point x="145" y="431" type="line"/>
      <point x="310" y="323"/>
      <point x="440" y="275"/>
      <point x="545" y="275" type="curve" smooth="yes"/>
      <point x="648" y="275"/>
      <point x="713" y="317"/>
      <point x="713" y="392" type="curve" smooth="yes"/>
      <point x="713" y="463"/>
      <point x="682" y="500"/>
      <point x="489" y="649" type="curve" smooth="yes"/>
      <point x="294" y="799"/>
      <point x="230" y="887"/>
      <point x="230" y="1026" type="curve" smooth="yes"/>
      <point x="230" y="1177"/>
      <point x="345" y="1294"/>
      <point x="599" y="1294" type="curve" smooth="yes"/>
      <point x="1033" y="1294" type="line"/>
      <point x="1033" y="1056" type="line"/>
      <point x="702" y="1056" type="line" smooth="yes"/>
      <point x="624" y="1056"/>
      <point x="594" y="1023"/>
      <point x="593" y="972" type="curve" smooth="yes"/>
      <point x="592" y="928"/>
      <point x="630" y="892"/>
      <point x="781" y="778" type="curve" smooth="yes"/>
      <point x="984" y="624"/>
      <point x="1055" y="513"/>
    </contour>
  </outline>
</glyph>
<glyph name="aavowelsigndeva" format="1">
  <advance width="683"/>
  <unicode hex="093E"/>
  <outline>
    <contour>
      <point x="133" y="1096" type="line"/>
      <point x="499" y="1096" type="line"/>
      <point x="499" y="0" type="line"/>
      <point x="133" y="0" type="line"/>
    </contour>
    <contour>
      <point x="703" y="1056" type="line"/>
      <point x="-20" y="1056" type="line"/>
      <point x="-20" y="1294" type="line"/>
      <point x="703" y="1294" type="line"/>
    </contour>
  </outline>
</glyph>
<glyph name="iivowelsigndeva" format="1">
  <advance width="683"/>
  <unicode hex="0940"/>
  <outline>
    <contour>
      <point x="122" y="1239" type="curve"/>
      <point x="28" y="1441"/>
      <point x="-81" y="1519"/>
      <point x="-169" y="1519" type="curve" smooth="yes"/>
      <point x="-231" y="1519"/>
      <point x="-263" y="1481"/>
      <point x="-263" y="1424" type="curve" smooth="yes"/>
      <point x="-263" y="1361"/>
      <point x="-218" y="1301"/>
      <point x="-168" y="1250" type="curve"/>
      <point x="-519" y="1250" type="line"/>
      <point x="-568" y="1319"/>
      <point x="-602" y="1404"/>
      <point x="-602" y="1506" type="curve" smooth="yes"/>
      <point x="-602" y="1672"/>
      <point x="-487" y="1821"/>
      <point x="-246" y="1821" type="curve" smooth="yes"/>
      <point x="32" y="1821"/>
      <point x="318" y="1622"/>
      <point x="491" y="1239" type="curve"/>
      <point x="491" y="1239"/>
      <point x="122" y="1239"/>
    </contour>
    <component base="aavowelsigndeva"/>
  </outline>
</glyph>
<glyph name="uvowelsigndeva" format="1">
  <advance width="0"/>
  <unicode hex="0941"/>
  <outline>
    <contour>
      <point x="-730" y="-68" type="line"/>
      <point x="-625" y="-9"/>
      <point x="-520" y="29"/>
      <point x="-374" y="29" type="curve" smooth="yes"/>
      <point x="-159" y="29"/>
      <point x="23" y="-127"/>
      <point x="23" y="-327" type="curve" smooth="yes"/>
      <point x="23" y="-528"/>
      <point x="-146" y="-668"/>
      <point x="-382" y="-668" type="curve" smooth="yes"/>
      <point x="-622" y="-668"/>
      <point x="-848" y="-583"/>
      <point x="-1074" y="-391" type="curve"/>
      <point x="-964" y="-159" type="line"/>
      <point x="-757" y="-347"/>
      <point x="-598" y="-411"/>
      <point x="-461" y="-411" type="curve" smooth="yes"/>
      <point x="-334" y="-411"/>
      <point x="-283" y="-362"/>
      <point x="-283" y="-301" type="curve" smooth="yes"/>
      <point x="-283" y="-257"/>
      <point x="-319" y="-221"/>
      <point x="-380" y="-221" type="curve" smooth="yes"/>
      <point x="-444" y="-221"/>
      <point x="-519" y="-251"/>
      <point x="-603" y="-305" type="curve"/>
    </contour>
    <contour>
      <point x="49" y="8" type="move" name="x24"/>
    </contour>
    <contour>
      <point x="-424" y="8" type="move" name="_mark0"/>
    </contour>
  </outline>
</glyph>
<glyph name="uuvowelsigndeva" format="1">
  <advance width="0"/>
  <unicode hex="0942"/>
  <outline>
    <contour>
      <point x="-56" y="-635" type="line"/>
      <point x="-135" y="-663"/>
      <point x="-209" y="-671"/>
      <point x="-312" y="-671" type="curve" smooth="yes"/>
      <point x="-545" y="-671"/>
      <point x="-773" y="-528"/>
      <point x="-773" y="-286" type="curve" smooth="yes"/>
      <point x="-773" y="-112"/>
      <point x="-615" y="33"/>
      <point x="-375" y="33" type="curve" smooth="yes"/>
      <point x="-108" y="33"/>
      <point x="114" y="-79"/>
      <point x="382" y="-398" type="curve"/>
      <point x="212" y="-590" type="line"/>
      <point x="-32" y="-311"/>
      <point x="-161" y="-248"/>
      <point x="-309" y="-248" type="curve" smooth="yes"/>
      <point x="-409" y="-248"/>
      <point x="-455" y="-297"/>
      <point x="-455" y="-354" type="curve" smooth="yes"/>
      <point x="-455" y="-405"/>
      <point x="-416" y="-439"/>
      <point x="-332" y="-439" type="curve" smooth="yes"/>
      <point x="-275" y="-439"/>
      <point x="-221" y="-433"/>
      <point x="-133" y="-401" type="curve"/>
    </contour>
    <contour>
      <point x="49.0" y="8.0" type="move" name="x24"/>
    </contour>
    <contour>
      <point x="-424.0" y="8.0" type="move" name="_mark0"/>
    </contour>
  </outline>
</glyph>
<glyph name="rvocalicvowelsigndeva" format="1">
  <advance width="0"/>
  <unicode hex="0943"/>
  <outline>
    <contour>
      <point x="-106" y="-559" type="line"/>
      <point x="-225" y="-593"/>
      <point x="-272" y="-598"/>
      <point x="-357" y="-598" type="curve" smooth="yes"/>
      <point x="-590" y="-598"/>
      <point x="-794" y="-475"/>
      <point x="-794" y="-259" type="curve" smooth="yes"/>
      <point x="-794" y="-75"/>
      <point x="-630" y="53"/>
      <point x="-384" y="53" type="curve" smooth="yes"/>
      <point x="-293" y="53"/>
      <point x="-232" y="37"/>
      <point x="-184" y="22" type="curve"/>
      <point x="-184" y="-158" type="line"/>
      <point x="-224" y="-158"/>
      <point x="-260" y="-158"/>
      <point x="-302" y="-158" type="curve" smooth="yes"/>
      <point x="-416" y="-158"/>
      <point x="-479" y="-221"/>
      <point x="-479" y="-288" type="curve" smooth="yes"/>
      <point x="-479" y="-337"/>
      <point x="-444" y="-378"/>
      <point x="-357" y="-378" type="curve" smooth="yes"/>
      <point x="-300" y="-378"/>
      <point x="-231" y="-362"/>
      <point x="-143" y="-328" type="curve"/>
    </contour>
    <contour>
      <point x="49.0" y="8.0" type="move" name="x17"/>
    </contour>
    <contour>
      <point x="-424.0" y="8.0" type="move" name="_mark0"/>
    </contour>
  </outline>
</glyph>
<glyph name="rrvocalicvowelsigndeva" format="1">
  <advance width="0"/>
  <unicode hex="0944"/>
  <outline>
    <contour>
      <point x="-36" y="-781" type="line"/>
      <point x="-107" y="-804"/>
      <point x="-212" y="-825"/>
      <point x="-297" y="-825" type="curve" smooth="yes"/>
      <point x="-550" y="-825"/>
      <point x="-642" y="-699"/>
      <point x="-642" y="-577" type="curve" smooth="yes"/>
      <point x="-642" y="-422"/>
      <point x="-480" y="-317"/>
      <point x="-234" y="-317" type="curve"/>
      <point x="-182" y="-452" type="line"/>
      <point x="-296" y="-452"/>
      <point x="-359" y="-505"/>
      <point x="-359" y="-562" type="curve" smooth="yes"/>
      <point x="-359" y="-603"/>
      <point x="-336" y="-637"/>
      <point x="-257" y="-637" type="curve" smooth="yes"/>
      <point x="-200" y="-637"/>
      <point x="-157" y="-628"/>
      <point x="-73" y="-598" type="curve"/>
    </contour>
    <contour>
      <point x="-113" y="-467" type="line"/>
      <point x="-214" y="-490"/>
      <point x="-272" y="-494"/>
      <point x="-357" y="-494" type="curve" smooth="yes"/>
      <point x="-620" y="-494"/>
      <point x="-771" y="-369"/>
      <point x="-771" y="-207" type="curve" smooth="yes"/>
      <point x="-771" y="-62"/>
      <point x="-610" y="53"/>
      <point x="-364" y="53" type="curve" smooth="yes"/>
      <point x="-273" y="53"/>
      <point x="-232" y="40"/>
      <point x="-184" y="27" type="curve"/>
      <point x="-184" y="-142" type="line"/>
      <point x="-224" y="-142"/>
      <point x="-260" y="-142"/>
      <point x="-302" y="-142" type="curve" smooth="yes"/>
      <point x="-406" y="-142"/>
      <point x="-446" y="-185"/>
      <point x="-446" y="-222" type="curve" smooth="yes"/>
      <point x="-446" y="-263"/>
      <point x="-416" y="-297"/>
      <point x="-347" y="-297" type="curve" smooth="yes"/>
      <point x="-290" y="-297"/>
      <point x="-253" y="-292"/>
      <point x="-153" y="-265" type="curve"/>
    </contour>
    <contour>
      <point x="49.0" y="8.0" type="move" name="x33"/>
    </contour>
    <contour>
      <point x="-424.0" y="8.0" type="move" name="_mark0"/>
    </contour>
  </outline>
</glyph>
<glyph name="ecandravowelsigndeva" format="1">
  <advance width="0"/>
  <unicode hex="0945"/>
  <outline>
    <contour>
      <point x="131" y="1545" type="line"/>
      <point x="2" y="1418"/>
      <point x="-155" y="1358"/>
      <point x="-352" y="1358" type="curve" smooth="yes"/>
      <point x="-544" y="1358"/>
      <point x="-698" y="1419"/>
      <point x="-852" y="1544" type="curve"/>
      <point x="-777" y="1780" type="line"/>
      <point x="-648" y="1676"/>
      <point x="-523" y="1613"/>
      <point x="-350" y="1613" type="curve" smooth="yes"/>
      <point x="-195" y="1613"/>
      <point x="-71" y="1678"/>
      <point x="43" y="1777" type="curve"/>
    </contour>
    <contour>
      <point x="49.0" y="8.0" type="move" name="x14"/>
    </contour>
    <contour>
      <point x="-424.0" y="1282.0" type="move" name="_mark0"/>
    </contour>
  </outline>
</glyph>
<glyph name="eshortvowelsigndeva" format="1">
  <advance width="0"/>
  <unicode hex="0946"/>
  <outline>
    <contour>
      <point x="-552" y="1244" type="line"/>
      <point x="-552" y="1319" type="line" smooth="yes"/>
      <point x="-552" y="1386"/>
      <point x="-584" y="1426"/>
      <point x="-663" y="1426" type="curve" smooth="yes"/>
      <point x="-730" y="1426"/>
      <point x="-786" y="1391"/>
      <point x="-919" y="1391" type="curve" smooth="yes"/>
      <point x="-1077" y="1391"/>
      <point x="-1184" y="1463"/>
      <point x="-1281" y="1591" type="curve"/>
      <point x="-1151" y="1796" type="line"/>
      <point x="-1056" y="1699"/>
      <point x="-995" y="1670"/>
      <point x="-927" y="1670" type="curve" smooth="yes"/>
      <point x="-818" y="1670"/>
      <point x="-721" y="1727"/>
      <point x="-549" y="1727" type="curve" smooth="yes"/>
      <point x="-352" y="1727"/>
      <point x="-233" y="1589"/>
      <point x="-233" y="1367" type="curve" smooth="yes"/>
      <point x="-233" y="1244" type="line"/>
    </contour>
    <contour>
      <point x="49.0" y="8.0" type="move" name="x24"/>
    </contour>
    <contour>
      <point x="-424.0" y="1282.0" type="move" name="_mark0"/>
    </contour>
  </outline>
</glyph>
<glyph name="evowelsigndeva" format="1">
  <advance width="0"/>
  <unicode hex="0947"/>
  <outline>
    <contour>
      <point x="-608" y="1244" type="line"/>
      <point x="-1039" y="1670" type="line"/>
      <point x="-770" y="1862" type="line"/>
      <point x="-191" y="1244" type="line"/>
    </contour>
    <contour>
      <point x="49" y="8" type="move" name="x14"/>
    </contour>
    <contour>
      <point x="-424" y="1282" type="move" name="_mark0"/>
    </contour>
  </outline>
</glyph>
<glyph name="aivowelsigndeva" format="1">
  <advance width="0"/>
  <unicode hex="0948"/>
  <outline>
    <contour>
      <point x="-948" y="1244" type="line"/>
      <point x="-1361" y="1599" type="line"/>
      <point x="-1106" y="1804" type="line"/>
      <point x="-502" y="1244" type="line"/>
    </contour>
    <contour>
      <point x="-518" y="1244" type="line"/>
      <point x="-752" y="1816" type="line"/>
      <point x="-431" y="1905" type="line"/>
      <point x="-193" y="1244" type="line"/>
    </contour>
    <contour>
      <point x="49.0" y="8.0" type="move" name="x27"/>
    </contour>
    <contour>
      <point x="-424.0" y="1282.0" type="move" name="_mark0"/>
    </contour>
  </outline>
</glyph>
<glyph name="viramadeva" format="1">
  <advance width="-1"/>
  <unicode hex="094D"/>
  <outline>
    <contour>
      <point x="-496" y="-47" type="line"/>
      <point x="126" y="-281" type="line"/>
      <point x="21" y="-543" type="line"/>
      <point x="-608" y="-310" type="line"/>
    </contour>
    <contour>
      <point x="49" y="8" type="move" name="x12"/>
    </contour>
    <contour>
      <point x="-424" y="8" type="move" name="_mark0"/>
    </contour>
  </outline>
</glyph>
<glyph name="awvowelsigndevaKSH" format="1">
  <advance width="683"/>
  <unicode hex="094F"/>
  <outline>
    <contour>
      <point x="240" y="1206" type="line"/>
      <point x="240" y="1497" type="line" smooth="yes"/>
      <point x="240" y="1551"/>
      <point x="214" y="1584"/>
      <point x="117" y="1584" type="curve" smooth="yes"/>
      <point x="61" y="1584"/>
      <point x="14" y="1555"/>
      <point x="-99" y="1555" type="curve" smooth="yes"/>
      <point x="-232" y="1555"/>
      <point x="-323" y="1614"/>
      <point x="-404" y="1717" type="curve"/>
      <point x="-295" y="1883" type="line"/>
      <point x="-214" y="1805"/>
      <point x="-163" y="1781"/>
      <point x="-106" y="1781" type="curve" smooth="yes"/>
      <point x="-14" y="1781"/>
      <point x="68" y="1827"/>
      <point x="214" y="1827" type="curve" smooth="yes"/>
      <point x="380" y="1827"/>
      <point x="499" y="1716"/>
      <point x="499" y="1536" type="curve" smooth="yes"/>
      <point x="499" y="1206" type="line"/>
    </contour>
    <contour>
      <point x="50" y="1156" type="line"/>
      <point x="0" y="1281" type="line" smooth="yes"/>
      <point x="-25" y="1343"/>
      <point x="-62" y="1381"/>
      <point x="-141" y="1381" type="curve" smooth="yes"/>
      <point x="-208" y="1381"/>
      <point x="-254" y="1353"/>
      <point x="-377" y="1353" type="curve" smooth="yes"/>
      <point x="-525" y="1353"/>
      <point x="-632" y="1421"/>
      <point x="-729" y="1525" type="curve"/>
      <point x="-612" y="1678" type="line"/>
      <point x="-524" y="1600"/>
      <point x="-457" y="1573"/>
      <point x="-385" y="1573" type="curve" smooth="yes"/>
      <point x="-276" y="1573"/>
      <point x="-199" y="1615"/>
      <point x="-97" y="1615" type="curve" smooth="yes"/>
      <point x="119" y="1615"/>
      <point x="183" y="1548"/>
      <point x="259" y="1329" type="curve" smooth="yes"/>
      <point x="319" y="1156" type="line"/>
    </contour>
    <component base="aavowelsigndeva"/>
  </outline>
</glyph>
<glyph name="omdeva" format="1">
  <advance width="2093"/>
  <unicode hex="0950"/>
  <outline>
    <contour>
      <point x="363" y="553" type="line"/>
      <point x="300" y="823" type="line"/>
      <point x="313" y="824" type="line" smooth="yes"/>
      <point x="590" y="845"/>
      <point x="641" y="893"/>
      <point x="641" y="967" type="curve" smooth="yes"/>
      <point x="641" y="1009"/>
      <point x="611" y="1039"/>
      <point x="536" y="1039" type="curve" smooth="yes"/>
      <point x="452" y="1039"/>
      <point x="366" y="1012"/>
      <point x="242" y="952" type="curve"/>
      <point x="162" y="1225" type="line"/>
      <point x="289" y="1280"/>
      <point x="406" y="1303"/>
      <point x="550" y="1303" type="curve" smooth="yes"/>
      <point x="835" y="1303"/>
      <point x="969" y="1140"/>
      <point x="969" y="934" type="curve" smooth="yes"/>
      <point x="969" y="707"/>
      <point x="764" y="584"/>
      <point x="389" y="555" type="curve" smooth="yes"/>
    </contour>
    <contour>
      <point x="759" y="769" type="line"/>
      <point x="896" y="718"/>
      <point x="1023" y="584"/>
      <point x="1023" y="416" type="curve" smooth="yes"/>
      <point x="1023" y="224"/>
      <point x="876" y="71"/>
      <point x="620" y="71" type="curve" smooth="yes"/>
      <point x="456" y="71"/>
      <point x="317" y="115"/>
      <point x="121" y="222" type="curve"/>
      <point x="188" y="485" type="line"/>
      <point x="343" y="386"/>
      <point x="419" y="360"/>
      <point x="520" y="360" type="curve" smooth="yes"/>
      <point x="624" y="360"/>
      <point x="687" y="412"/>
      <point x="687" y="490" type="curve" smooth="yes"/>
      <point x="687" y="549"/>
      <point x="639" y="609"/>
      <point x="570" y="629" type="curve"/>
    </contour>
    <contour>
      <point x="1140" y="787" type="curve" smooth="yes"/>
      <point x="1197" y="930"/>
      <point x="1322" y="1151"/>
      <point x="1609" y="1151" type="curve" smooth="yes"/>
      <point x="1916" y="1151"/>
      <point x="2068" y="933"/>
      <point x="2068" y="707" type="curve" smooth="yes"/>
      <point x="2068" y="490"/>
      <point x="1913" y="291"/>
      <point x="1646" y="291" type="curve" smooth="yes"/>
      <point x="1459" y="291"/>
      <point x="1314" y="366"/>
      <point x="1161" y="490" type="curve"/>
      <point x="1284" y="695" type="line"/>
      <point x="1379" y="626"/>
      <point x="1473" y="569"/>
      <point x="1564" y="569" type="curve" smooth="yes"/>
      <point x="1658" y="569"/>
      <point x="1746" y="644"/>
      <point x="1746" y="742" type="curve" smooth="yes"/>
      <point x="1746" y="817"/>
      <point x="1707" y="850"/>
      <point x="1654" y="850" type="curve" smooth="yes"/>
      <point x="1593" y="850"/>
      <point x="1524" y="789"/>
      <point x="1479" y="686" type="curve" smooth="yes"/>
      <point x="1370" y="436"/>
      <point x="1260" y="296"/>
      <point x="1097" y="296" type="curve" smooth="yes"/>
      <point x="993" y="296"/>
      <point x="933" y="303"/>
      <point x="863" y="321" type="curve"/>
      <point x="819" y="592" type="line"/>
      <point x="893" y="571"/>
      <point x="937" y="551"/>
      <point x="984" y="556" type="curve" smooth="yes"/>
      <point x="1044" y="562"/>
      <point x="1083" y="643"/>
    </contour>
    <component base="candrabindudeva" xOffset="1552"/>
  </outline>
</glyph>
<glyph name="udattadeva" format="1">
  <advance width="0"/>
  <unicode hex="0951"/>
  <outline>
    <contour>
      <point x="-188" y="1779" type="line"/>
      <point x="-188" y="1377" type="line"/>
      <point x="-554" y="1377" type="line"/>
      <point x="-554" y="1779" type="line"/>
    </contour>
    <contour>
      <point x="-424.0" y="1282.0" type="move" name="_mark0"/>
    </contour>
  </outline>
</glyph>
<glyph name="anudattadeva" format="1">
  <advance width="0"/>
  <unicode hex="0952"/>
  <outline>
    <contour>
      <point x="-1153" y="-319" type="line"/>
      <point x="-1153" y="-120" type="line"/>
      <point x="-153" y="-120" type="line"/>
      <point x="-153" y="-319" type="line"/>
    </contour>
  </outline>
</glyph>
<glyph name="uni0953" format="1">
  <advance width="98"/>
  <unicode hex="0953"/>
  <outline>
    <contour>
      <point x="-88" y="1381" type="line"/>
      <point x="-407" y="1381" type="line"/>
      <point x="-671" y="1801" type="line"/>
      <point x="-253" y="1801" type="line"/>
    </contour>
    <contour>
      <point x="49" y="8" type="move" name="x4"/>
    </contour>
    <contour>
      <point x="-424" y="1282" type="move" name="_mark0"/>
    </contour>
  </outline>
</glyph>
<glyph name="uni0954" format="1">
  <advance width="98"/>
  <unicode hex="0954"/>
  <outline>
    <contour>
      <point x="-295" y="1801" type="line"/>
      <point x="122" y="1801" type="line"/>
      <point x="-141" y="1381" type="line"/>
      <point x="-460" y="1381" type="line"/>
    </contour>
    <contour>
      <point x="49" y="8" type="move" name="x4"/>
    </contour>
    <contour>
      <point x="-424" y="1282" type="move" name="_mark0"/>
    </contour>
  </outline>
</glyph>
<glyph name="uevowelsigndevaKSH" format="1">
  <advance width="0"/>
  <unicode hex="0956"/>
  <outline>
    <contour>
      <point x="166" y="-255" type="line"/>
      <point x="26" y="-382"/>
      <point x="-145" y="-442"/>
      <point x="-360" y="-442" type="curve" smooth="yes"/>
      <point x="-569" y="-442"/>
      <point x="-736" y="-381"/>
      <point x="-904" y="-256" type="curve"/>
      <point x="-832" y="-30" type="line"/>
      <point x="-692" y="-134"/>
      <point x="-546" y="-187"/>
      <point x="-358" y="-187" type="curve" smooth="yes"/>
      <point x="-189" y="-187"/>
      <point x="-44" y="-132"/>
      <point x="80" y="-33" type="curve"/>
    </contour>
    <contour>
      <point x="-552" y="0" type="move" name="_btm"/>
    </contour>
  </outline>
</glyph>
<glyph name="qadeva" format="1">
  <advance width="1653"/>
  <unicode hex="0958"/>
  <outline>
    <component base="kadeva"/>
    <component base="nuktadeva" xOffset="1068" yOffset="268"/>
    <contour>
      <point x="920.0" y="0.0" type="move" name="x46"/>
    </contour>
    <contour>
      <point x="447.0" y="90.0" type="move" name="x47"/>
    </contour>
    <contour>
      <point x="920.0" y="0.0" type="move" name="mark0"/>
    </contour>
  </outline>
</glyph>
<glyph name="zadeva" format="1">
  <advance width="1698"/>
  <unicode hex="095B"/>
  <outline>
    <component base="nuktadeva" xOffset="940" yOffset="268"/>
    <component base="jadeva"/>
    <contour>
      <point x="1148" y="1294" type="move" name="top"/>
    </contour>
  </outline>
</glyph>
<glyph name="dddhadeva" format="1">
  <advance width="1270"/>
  <unicode hex="095C"/>
  <outline>
    <component base="nuktadeva" xOffset="1529" yOffset="-1"/>
    <component base="ddadeva"/>
    <contour>
      <point x="925.0" y="-122.0" type="move" name="x44"/>
    </contour>
    <contour>
      <point x="1105.0" y="1274.0" type="move" name="mark0"/>
    </contour>
  </outline>
</glyph>
<glyph name="rhadeva" format="1">
  <advance width="1253"/>
  <unicode hex="095D"/>
  <outline>
    <component base="nuktadeva" xOffset="1588" yOffset="30"/>
    <component base="ddhadeva"/>
    <contour>
      <point x="539" y="-458" type="move" name="btm"/>
    </contour>
    <contour>
      <point x="759" y="1274" type="move" name="mark0"/>
    </contour>
  </outline>
</glyph>
<glyph name="fadeva" format="1">
  <advance width="1781"/>
  <unicode hex="095E"/>
  <outline>
    <component base="nuktadeva" xOffset="1225" yOffset="268"/>
    <component base="phadeva"/>
    <contour>
      <point x="447" y="130" type="move" name="x43"/>
    </contour>
    <contour>
      <point x="917" y="0" type="move" name="mark0"/>
    </contour>
    <contour>
      <point x="917" y="0" type="move" name="x2"/>
    </contour>
  </outline>
</glyph>
<glyph name="rrvocalicdeva" format="1">
  <advance width="1728"/>
  <unicode hex="0960"/>
  <outline>
    <contour>
      <point x="952" y="773" type="line"/>
      <point x="994" y="715"/>
      <point x="1040" y="691"/>
      <point x="1115" y="691" type="curve" smooth="yes"/>
      <point x="1159" y="691"/>
      <point x="1214" y="699"/>
      <point x="1287" y="730" type="curve"/>
      <point x="1175" y="654" type="line"/>
      <point x="1148" y="709"/>
      <point x="1130" y="752"/>
      <point x="1130" y="799" type="curve" smooth="yes"/>
      <point x="1130" y="868"/>
      <point x="1183" y="939"/>
      <point x="1305" y="939" type="curve" smooth="yes"/>
      <point x="1496" y="939"/>
      <point x="1640" y="834"/>
      <point x="1640" y="724" type="curve" smooth="yes"/>
      <point x="1640" y="594"/>
      <point x="1459" y="438"/>
      <point x="1147" y="438" type="curve" smooth="yes"/>
      <point x="1034" y="438"/>
      <point x="924" y="470"/>
      <point x="822" y="529" type="curve"/>
    </contour>
    <contour>
      <point x="872" y="372" type="line"/>
      <point x="291" y="73" type="line"/>
      <point x="114" y="328" type="line"/>
      <point x="705" y="617" type="line"/>
    </contour>
    <contour>
      <point x="-51" y="1056" type="line"/>
      <point x="-51" y="1294" type="line"/>
      <point x="1725" y="1294" type="line"/>
      <point x="1725" y="1056" type="line"/>
    </contour>
    <contour>
      <point x="8" y="867" type="line"/>
      <point x="90" y="909"/>
      <point x="190" y="937"/>
      <point x="279" y="937" type="curve" smooth="yes"/>
      <point x="403" y="937"/>
      <point x="544" y="885"/>
      <point x="701" y="785" type="curve"/>
      <point x="701" y="467" type="line"/>
      <point x="552" y="577"/>
      <point x="445" y="640"/>
      <point x="358" y="640" type="curve" smooth="yes"/>
      <point x="277" y="640"/>
      <point x="169" y="597"/>
      <point x="94" y="563" type="curve"/>
    </contour>
    <contour>
      <point x="666" y="1096" type="line"/>
      <point x="1032" y="1096" type="line"/>
      <point x="1032" y="0" type="line"/>
      <point x="666" y="0" type="line"/>
    </contour>
    <contour>
      <point x="1468" y="199" type="curve" smooth="yes"/>
      <point x="1468" y="159"/>
      <point x="1505" y="127"/>
      <point x="1572" y="127" type="curve" smooth="yes"/>
      <point x="1629" y="127"/>
      <point x="1678" y="143"/>
      <point x="1756" y="177" type="curve"/>
      <point x="1793" y="-54" type="line"/>
      <point x="1704" y="-86"/>
      <point x="1637" y="-93"/>
      <point x="1552" y="-93" type="curve" smooth="yes"/>
      <point x="1319" y="-93"/>
      <point x="1154" y="25"/>
      <point x="1154" y="200" type="curve" smooth="yes"/>
      <point x="1154" y="336"/>
      <point x="1263" y="436"/>
      <point x="1467" y="484" type="curve"/>
      <point x="1319" y="400" type="line"/>
      <point x="1236" y="516" type="line"/>
      <point x="1480" y="635" type="line"/>
      <point x="1663" y="406" type="line"/>
      <point x="1641" y="324" type="line"/>
      <point x="1519" y="293"/>
      <point x="1468" y="249"/>
    </contour>
    <contour>
      <point x="79" y="8" type="move" name="x79"/>
    </contour>
    <contour>
      <point x="932" y="1282" type="move" name="mark0"/>
    </contour>
  </outline>
</glyph>
<glyph name="llvocalicdeva" format="1">
  <advance width="1646"/>
  <unicode hex="0961"/>
  <outline>
    <contour>
      <point x="1029" y="627" type="curve"/>
      <point x="815" y="460" type="line"/>
      <point x="727" y="586"/>
      <point x="657" y="632"/>
      <point x="557" y="632" type="curve" smooth="yes"/>
      <point x="469" y="632"/>
      <point x="417" y="564"/>
      <point x="417" y="480" type="curve" smooth="yes"/>
      <point x="417" y="379"/>
      <point x="475" y="293"/>
      <point x="607" y="168" type="curve"/>
      <point x="359" y="33" type="line"/>
      <point x="182" y="190"/>
      <point x="70" y="382"/>
      <point x="70" y="565" type="curve" smooth="yes"/>
      <point x="70" y="775"/>
      <point x="202" y="934"/>
      <point x="456" y="934" type="curve" smooth="yes"/>
      <point x="676" y="934"/>
      <point x="858" y="823"/>
    </contour>
    <contour>
      <point x="1666" y="1056" type="line"/>
      <point x="-20" y="1056" type="line"/>
      <point x="-20" y="1294" type="line"/>
      <point x="1666" y="1294" type="line"/>
    </contour>
    <contour>
      <point x="974" y="1096" type="line"/>
      <point x="1340" y="1096" type="line"/>
      <point x="1340" y="813" type="line"/>
      <point x="974" y="813" type="line"/>
    </contour>
    <contour>
      <point x="1321" y="407" type="curve"/>
      <point x="1172" y="285" type="line"/>
      <point x="1213" y="345"/>
      <point x="1232" y="449"/>
      <point x="1232" y="511" type="curve" smooth="yes"/>
      <point x="1232" y="564"/>
      <point x="1198" y="591"/>
      <point x="1135" y="591" type="curve" smooth="yes"/>
      <point x="1053" y="591"/>
      <point x="966" y="503"/>
      <point x="919" y="286" type="curve" smooth="yes"/>
      <point x="919" y="286"/>
      <point x="607" y="395"/>
      <point x="607" y="395" type="curve" smooth="yes"/>
      <point x="672" y="669"/>
      <point x="803" y="889"/>
      <point x="1111" y="893" type="curve" smooth="yes"/>
      <point x="1361" y="896"/>
      <point x="1550" y="709"/>
      <point x="1550" y="484" type="curve" smooth="yes"/>
      <point x="1550" y="402"/>
      <point x="1537" y="307"/>
      <point x="1503" y="217" type="curve"/>
      <point x="1494" y="217"/>
      <point x="1479" y="217"/>
      <point x="1470" y="217" type="curve" smooth="yes"/>
      <point x="1365" y="217"/>
      <point x="1326" y="174"/>
      <point x="1326" y="137" type="curve" smooth="yes"/>
      <point x="1326" y="96"/>
      <point x="1356" y="62"/>
      <point x="1425" y="62" type="curve" smooth="yes"/>
      <point x="1482" y="62"/>
      <point x="1519" y="67"/>
      <point x="1619" y="94" type="curve"/>
      <point x="1659" y="-108" type="line"/>
      <point x="1558" y="-131"/>
      <point x="1500" y="-135"/>
      <point x="1415" y="-135" type="curve" smooth="yes"/>
      <point x="1152" y="-135"/>
      <point x="1001" y="-10"/>
      <point x="1001" y="152" type="curve" smooth="yes"/>
      <point x="1001" y="280"/>
      <point x="1122" y="382"/>
    </contour>
    <contour>
      <point x="1736" y="-422" type="line"/>
      <point x="1665" y="-445"/>
      <point x="1560" y="-466"/>
      <point x="1475" y="-466" type="curve" smooth="yes"/>
      <point x="1222" y="-466"/>
      <point x="1130" y="-340"/>
      <point x="1130" y="-218" type="curve" smooth="yes"/>
      <point x="1130" y="-63"/>
      <point x="1292" y="42"/>
      <point x="1538" y="42" type="curve"/>
      <point x="1590" y="-93" type="line"/>
      <point x="1476" y="-93"/>
      <point x="1413" y="-146"/>
      <point x="1413" y="-203" type="curve" smooth="yes"/>
      <point x="1413" y="-244"/>
      <point x="1436" y="-278"/>
      <point x="1515" y="-278" type="curve" smooth="yes"/>
      <point x="1572" y="-278"/>
      <point x="1615" y="-269"/>
      <point x="1699" y="-239" type="curve"/>
    </contour>
    <contour>
      <point x="76" y="8" type="move" name="x77"/>
    </contour>
    <contour>
      <point x="1125" y="1282" type="move" name="mark0"/>
    </contour>
  </outline>
</glyph>
<glyph name="lvocalicvowelsigndeva" format="1">
  <advance width="-3"/>
  <unicode hex="0962"/>
  <outline>
    <contour>
      <point x="-362" y="-271" type="curve"/>
      <point x="-490" y="-371" type="line"/>
      <point x="-542" y="-295"/>
      <point x="-591" y="-263"/>
      <point x="-650" y="-263" type="curve" smooth="yes"/>
      <point x="-704" y="-263"/>
      <point x="-745" y="-306"/>
      <point x="-745" y="-358" type="curve" smooth="yes"/>
      <point x="-745" y="-421"/>
      <point x="-710" y="-469"/>
      <point x="-619" y="-538" type="curve"/>
      <point x="-757" y="-631" type="line"/>
      <point x="-883" y="-536"/>
      <point x="-948" y="-428"/>
      <point x="-948" y="-322" type="curve" smooth="yes"/>
      <point x="-948" y="-188"/>
      <point x="-857" y="-90"/>
      <point x="-697" y="-90" type="curve" smooth="yes"/>
      <point x="-574" y="-90"/>
      <point x="-463" y="-149"/>
    </contour>
    <contour>
      <point x="-193" y="-402" type="curve"/>
      <point x="-261" y="-468" type="line"/>
      <point x="-227" y="-423"/>
      <point x="-210" y="-389"/>
      <point x="-210" y="-342" type="curve" smooth="yes"/>
      <point x="-210" y="-293"/>
      <point x="-235" y="-269"/>
      <point x="-280" y="-269" type="curve" smooth="yes"/>
      <point x="-341" y="-269"/>
      <point x="-398" y="-336"/>
      <point x="-418" y="-467" type="curve" smooth="yes"/>
      <point x="-418" y="-467"/>
      <point x="-603" y="-401"/>
      <point x="-603" y="-401" type="curve" smooth="yes"/>
      <point x="-563" y="-206"/>
      <point x="-461" y="-90"/>
      <point x="-284" y="-90" type="curve" smooth="yes"/>
      <point x="-126" y="-90"/>
      <point x="-25" y="-193"/>
      <point x="-25" y="-330" type="curve" smooth="yes"/>
      <point x="-25" y="-395"/>
      <point x="-39" y="-454"/>
      <point x="-70" y="-509" type="curve"/>
      <point x="-156" y="-510"/>
      <point x="-190" y="-541"/>
      <point x="-190" y="-571" type="curve" smooth="yes"/>
      <point x="-190" y="-601"/>
      <point x="-175" y="-618"/>
      <point x="-129" y="-618" type="curve" smooth="yes"/>
      <point x="-95" y="-618"/>
      <point x="-66" y="-609"/>
      <point x="-20" y="-587" type="curve"/>
      <point x="3" y="-730" type="line"/>
      <point x="-50" y="-749"/>
      <point x="-89" y="-754"/>
      <point x="-141" y="-754" type="curve" smooth="yes"/>
      <point x="-280" y="-754"/>
      <point x="-375" y="-674"/>
      <point x="-375" y="-580" type="curve" smooth="yes"/>
      <point x="-375" y="-490"/>
      <point x="-307" y="-421"/>
    </contour>
    <contour>
      <point x="49.0" y="8.0" type="move" name="x52"/>
    </contour>
    <contour>
      <point x="-424.0" y="8.0" type="move" name="_mark0"/>
    </contour>
  </outline>
</glyph>
<glyph name="llvocalicvowelsigndeva" format="1">
  <advance width="-2"/>
  <unicode hex="0963"/>
  <outline>
    <contour>
      <point x="-177" y="-393" type="curve"/>
      <point x="-261" y="-468" type="line"/>
      <point x="-227" y="-423"/>
      <point x="-210" y="-389"/>
      <point x="-210" y="-342" type="curve" smooth="yes"/>
      <point x="-210" y="-293"/>
      <point x="-235" y="-269"/>
      <point x="-280" y="-269" type="curve" smooth="yes"/>
      <point x="-341" y="-269"/>
      <point x="-398" y="-336"/>
      <point x="-418" y="-467" type="curve" smooth="yes"/>
      <point x="-418" y="-467"/>
      <point x="-603" y="-401"/>
      <point x="-603" y="-401" type="curve" smooth="yes"/>
      <point x="-563" y="-206"/>
      <point x="-461" y="-90"/>
      <point x="-284" y="-90" type="curve" smooth="yes"/>
      <point x="-126" y="-90"/>
      <point x="-25" y="-193"/>
      <point x="-25" y="-330" type="curve" smooth="yes"/>
      <point x="-25" y="-395"/>
      <point x="-39" y="-454"/>
      <point x="-70" y="-509" type="curve"/>
      <point x="-76" y="-509"/>
      <point x="-82" y="-509"/>
      <point x="-87" y="-509" type="curve" smooth="yes"/>
      <point x="-150" y="-509"/>
      <point x="-174" y="-536"/>
      <point x="-174" y="-558" type="curve" smooth="yes"/>
      <point x="-174" y="-583"/>
      <point x="-156" y="-603"/>
      <point x="-115" y="-603" type="curve" smooth="yes"/>
      <point x="-81" y="-603"/>
      <point x="-59" y="-601"/>
      <point x="1" y="-584" type="curve"/>
      <point x="25" y="-708" type="line"/>
      <point x="-35" y="-722"/>
      <point x="-70" y="-724"/>
      <point x="-120" y="-724" type="curve" smooth="yes"/>
      <point x="-278" y="-724"/>
      <point x="-368" y="-647"/>
      <point x="-368" y="-549" type="curve" smooth="yes"/>
      <point x="-368" y="-470"/>
      <point x="-295" y="-408"/>
    </contour>
    <contour>
      <point x="-362" y="-271" type="curve"/>
      <point x="-490" y="-371" type="line"/>
      <point x="-542" y="-295"/>
      <point x="-591" y="-263"/>
      <point x="-650" y="-263" type="curve" smooth="yes"/>
      <point x="-704" y="-263"/>
      <point x="-745" y="-306"/>
      <point x="-745" y="-358" type="curve" smooth="yes"/>
      <point x="-745" y="-421"/>
      <point x="-710" y="-469"/>
      <point x="-619" y="-538" type="curve"/>
      <point x="-757" y="-631" type="line"/>
      <point x="-883" y="-536"/>
      <point x="-948" y="-428"/>
      <point x="-948" y="-322" type="curve" smooth="yes"/>
      <point x="-948" y="-188"/>
      <point x="-857" y="-90"/>
      <point x="-697" y="-90" type="curve" smooth="yes"/>
      <point x="-574" y="-90"/>
      <point x="-463" y="-149"/>
    </contour>
    <contour>
      <point x="71" y="-900" type="line"/>
      <point x="29" y="-914"/>
      <point x="-34" y="-926"/>
      <point x="-85" y="-926" type="curve" smooth="yes"/>
      <point x="-236" y="-926"/>
      <point x="-291" y="-849"/>
      <point x="-291" y="-775" type="curve" smooth="yes"/>
      <point x="-291" y="-681"/>
      <point x="-193" y="-616"/>
      <point x="-47" y="-616" type="curve"/>
      <point x="-16" y="-697" type="line"/>
      <point x="-84" y="-697"/>
      <point x="-122" y="-731"/>
      <point x="-122" y="-764" type="curve" smooth="yes"/>
      <point x="-122" y="-791"/>
      <point x="-109" y="-812"/>
      <point x="-62" y="-812" type="curve" smooth="yes"/>
      <point x="-28" y="-812"/>
      <point x="-1" y="-805"/>
      <point x="49" y="-788" type="curve"/>
    </contour>
    <contour>
      <point x="49.0" y="8.0" type="move" name="x61"/>
    </contour>
    <contour>
      <point x="-424.0" y="8.0" type="move" name="_mark0"/>
    </contour>
  </outline>
</glyph>
<glyph name="zerodeva" format="1">
  <advance width="1255"/>
  <unicode hex="0966"/>
  <outline>
    <contour>
      <point x="612" y="1148" type="curve" smooth="yes"/>
      <point x="961" y="1148"/>
      <point x="1180" y="902"/>
      <point x="1180" y="616" type="curve" smooth="yes"/>
      <point x="1180" y="355"/>
      <point x="990" y="126"/>
      <point x="647" y="126" type="curve" smooth="yes"/>
      <point x="301" y="126"/>
      <point x="75" y="371"/>
      <point x="75" y="664" type="curve" smooth="yes"/>
      <point x="75" y="922"/>
      <point x="279" y="1148"/>
    </contour>
    <contour>
      <point x="617" y="415" type="curve" smooth="yes"/>
      <point x="750" y="415"/>
      <point x="852" y="515"/>
      <point x="852" y="662" type="curve" smooth="yes"/>
      <point x="852" y="774"/>
      <point x="774" y="866"/>
      <point x="644" y="866" type="curve" smooth="yes"/>
      <point x="502" y="866"/>
      <point x="414" y="757"/>
      <point x="414" y="619" type="curve" smooth="yes"/>
      <point x="414" y="501"/>
      <point x="494" y="415"/>
    </contour>
  </outline>
</glyph>
<glyph name="onedeva" format="1">
  <advance width="1054"/>
  <unicode hex="0967"/>
  <outline>
    <contour>
      <point x="193" y="342" type="line"/>
      <point x="532" y="673" type="line" smooth="yes"/>
      <point x="619" y="758"/>
      <point x="658" y="822"/>
      <point x="661" y="900" type="curve" smooth="yes"/>
      <point x="664" y="979"/>
      <point x="610" y="1040"/>
      <point x="521" y="1040" type="curve" smooth="yes"/>
      <point x="439" y="1040"/>
      <point x="386" y="973"/>
      <point x="386" y="904" type="curve" smooth="yes"/>
      <point x="386" y="831"/>
      <point x="440" y="728"/>
      <point x="663" y="705" type="curve"/>
      <point x="505" y="491" type="line"/>
      <point x="167" y="586"/>
      <point x="67" y="768"/>
      <point x="67" y="940" type="curve" smooth="yes"/>
      <point x="67" y="1112"/>
      <point x="201" y="1314"/>
      <point x="509" y="1314" type="curve" smooth="yes"/>
      <point x="820" y="1314"/>
      <point x="980" y="1106"/>
      <point x="980" y="904" type="curve" smooth="yes"/>
      <point x="980" y="764"/>
      <point x="937" y="673"/>
      <point x="843" y="571" type="curve" smooth="yes"/>
      <point x="591" y="297" type="line"/>
      <point x="532" y="403" type="line"/>
      <point x="780" y="193" type="line" smooth="yes"/>
      <point x="882" y="107"/>
      <point x="917" y="42"/>
      <point x="917" y="-26" type="curve" smooth="yes"/>
      <point x="917" y="-94"/>
      <point x="898" y="-153"/>
      <point x="855" y="-216" type="curve"/>
      <point x="536" y="-124" type="line"/>
      <point x="555" y="-93"/>
      <point x="565" y="-69"/>
      <point x="565" y="-32" type="curve" smooth="yes"/>
      <point x="565" y="9"/>
      <point x="537" y="38"/>
      <point x="501" y="67" type="curve" smooth="yes"/>
      <point x="193" y="310" type="line"/>
    </contour>
  </outline>
</glyph>
<glyph name="twodeva" format="1">
  <advance width="1072"/>
  <unicode hex="0968"/>
  <outline>
    <contour>
      <point x="329" y="452" type="line"/>
      <point x="593" y="560" type="line"/>
      <point x="964" y="-47" type="line"/>
      <point x="704" y="-172" type="line"/>
    </contour>
    <contour>
      <point x="360" y="329" type="curve" smooth="yes"/>
      <point x="189" y="329"/>
      <point x="118" y="390"/>
      <point x="118" y="474" type="curve" smooth="yes"/>
      <point x="118" y="586"/>
      <point x="256" y="770"/>
      <point x="376" y="770" type="curve" smooth="yes"/>
      <point x="463" y="770"/>
      <point x="514" y="721"/>
      <point x="574" y="599" type="curve"/>
      <point x="343" y="598" type="line"/>
      <point x="582" y="651"/>
      <point x="671" y="760"/>
      <point x="667" y="877" type="curve" smooth="yes"/>
      <point x="664" y="974"/>
      <point x="585" y="1043"/>
      <point x="462" y="1043" type="curve" smooth="yes"/>
      <point x="348" y="1043"/>
      <point x="261" y="1026"/>
      <point x="165" y="985" type="curve"/>
      <point x="72" y="1259" type="line"/>
      <point x="194" y="1293"/>
      <point x="309" y="1314"/>
      <point x="475" y="1313" type="curve" smooth="yes"/>
      <point x="810" y="1311"/>
      <point x="1000" y="1126"/>
      <point x="1000" y="871" type="curve" smooth="yes"/>
      <point x="1000" y="558"/>
      <point x="665" y="329"/>
    </contour>
  </outline>
</glyph>
<glyph name="threedeva" format="1">
  <advance width="1061"/>
  <unicode hex="0969"/>
  <outline>
    <contour>
      <point x="310" y="110" type="line"/>
      <point x="564" y="186" type="line"/>
      <point x="737" y="-165" type="line"/>
      <point x="489" y="-262" type="line"/>
    </contour>
    <contour>
      <point x="747" y="630" type="curve"/>
      <point x="484" y="748" type="line"/>
      <point x="557" y="817"/>
      <point x="572" y="870"/>
      <point x="572" y="937" type="curve" smooth="yes"/>
      <point x="572" y="1007"/>
      <point x="525" y="1047"/>
      <point x="441" y="1047" type="curve" smooth="yes"/>
      <point x="347" y="1047"/>
      <point x="271" y="1021"/>
      <point x="167" y="965" type="curve"/>
      <point x="60" y="1231" type="line"/>
      <point x="177" y="1283"/>
      <point x="284" y="1315"/>
      <point x="458" y="1315" type="curve" smooth="yes"/>
      <point x="733" y="1315"/>
      <point x="883" y="1149"/>
      <point x="883" y="946" type="curve" smooth="yes"/>
      <point x="883" y="834"/>
      <point x="840" y="718"/>
    </contour>
    <contour>
      <point x="497" y="826" type="curve" smooth="yes"/>
      <point x="808" y="826"/>
      <point x="971" y="600"/>
      <point x="971" y="399" type="curve" smooth="yes"/>
      <point x="971" y="167"/>
      <point x="782" y="5"/>
      <point x="465" y="5" type="curve" smooth="yes"/>
      <point x="214" y="5"/>
      <point x="108" y="81"/>
      <point x="108" y="159" type="curve" smooth="yes"/>
      <point x="108" y="248"/>
      <point x="261" y="391"/>
      <point x="394" y="391" type="curve" smooth="yes"/>
      <point x="475" y="391"/>
      <point x="515" y="340"/>
      <point x="555" y="214" type="curve"/>
      <point x="285" y="265" type="line"/>
      <point x="358" y="254"/>
      <point x="426" y="257"/>
      <point x="470" y="257" type="curve" smooth="yes"/>
      <point x="585" y="257"/>
      <point x="657" y="331"/>
      <point x="657" y="413" type="curve" smooth="yes"/>
      <point x="657" y="494"/>
      <point x="608" y="549"/>
      <point x="501" y="549" type="curve" smooth="yes"/>
      <point x="425" y="549"/>
      <point x="330" y="523"/>
      <point x="260" y="500" type="curve"/>
      <point x="177" y="766" type="line"/>
      <point x="266" y="800"/>
      <point x="389" y="826"/>
    </contour>
  </outline>
</glyph>
<glyph name="fourdeva" format="1">
  <advance width="1184"/>
  <unicode hex="096A"/>
  <outline>
    <contour>
      <point x="-30" y="1141" type="line"/>
      <point x="190" y="1349" type="line"/>
      <point x="707" y="919" type="line" smooth="yes"/>
      <point x="989" y="684"/>
      <point x="1057" y="539"/>
      <point x="1057" y="376" type="curve" smooth="yes"/>
      <point x="1057" y="195"/>
      <point x="905" y="29"/>
      <point x="629" y="29" type="curve" smooth="yes"/>
      <point x="363" y="29"/>
      <point x="179" y="202"/>
      <point x="179" y="414" type="curve" smooth="yes"/>
      <point x="179" y="548"/>
      <point x="228" y="676"/>
      <point x="474" y="893" type="curve" smooth="yes"/>
      <point x="998" y="1355" type="line"/>
      <point x="1234" y="1155" type="line"/>
      <point x="687" y="662" type="line" smooth="yes"/>
      <point x="515" y="507"/>
      <point x="494" y="444"/>
      <point x="494" y="383" type="curve" smooth="yes"/>
      <point x="494" y="318"/>
      <point x="537" y="282"/>
      <point x="605" y="282" type="curve" smooth="yes"/>
      <point x="683" y="282"/>
      <point x="742" y="332"/>
      <point x="742" y="412" type="curve" smooth="yes"/>
      <point x="742" y="480"/>
      <point x="696" y="553"/>
      <point x="543" y="677" type="curve" smooth="yes"/>
    </contour>
  </outline>
</glyph>
<glyph name="fivedeva" format="1">
  <advance width="1287"/>
  <unicode hex="096B"/>
  <outline>
    <contour>
      <point x="418" y="645" type="curve" smooth="yes"/>
      <point x="418" y="525"/>
      <point x="492" y="453"/>
      <point x="612" y="453" type="curve" smooth="yes"/>
      <point x="698" y="453"/>
      <point x="787" y="493"/>
      <point x="900" y="597" type="curve"/>
      <point x="748" y="435" type="line"/>
      <point x="682" y="528"/>
      <point x="667" y="580"/>
      <point x="667" y="636" type="curve" smooth="yes"/>
      <point x="667" y="698"/>
      <point x="723" y="762"/>
      <point x="867" y="762" type="curve" smooth="yes"/>
      <point x="1058" y="762"/>
      <point x="1185" y="682"/>
      <point x="1185" y="592" type="curve" smooth="yes"/>
      <point x="1185" y="428"/>
      <point x="934" y="208"/>
      <point x="632" y="208" type="curve" smooth="yes"/>
      <point x="305" y="208"/>
      <point x="95" y="428"/>
      <point x="95" y="687" type="curve" smooth="yes"/>
      <point x="95" y="909"/>
      <point x="196" y="1136"/>
      <point x="443" y="1327" type="curve"/>
      <point x="748" y="1170" type="line"/>
      <point x="484" y="964"/>
      <point x="418" y="784"/>
    </contour>
    <contour>
      <point x="749" y="449" type="line"/>
      <point x="1004" y="556" type="line"/>
      <point x="1318" y="-81" type="line"/>
      <point x="1066" y="-188" type="line"/>
    </contour>
  </outline>
</glyph>
<glyph name="sixdeva" format="1">
  <advance width="1198"/>
  <unicode hex="096C"/>
  <outline>
    <contour>
      <point x="771" y="130" type="line"/>
      <point x="1025" y="206" type="line"/>
      <point x="1198" y="-145" type="line"/>
      <point x="950" y="-242" type="line"/>
    </contour>
    <contour>
      <point x="519" y="378" type="curve" smooth="yes"/>
      <point x="519" y="304"/>
      <point x="583" y="245"/>
      <point x="699" y="245" type="curve" smooth="yes"/>
      <point x="753" y="245"/>
      <point x="828" y="256"/>
      <point x="911" y="292" type="curve"/>
      <point x="745" y="176" type="line"/>
      <point x="716" y="226"/>
      <point x="694" y="279"/>
      <point x="694" y="329" type="curve" smooth="yes"/>
      <point x="694" y="391"/>
      <point x="743" y="433"/>
      <point x="865" y="433" type="curve" smooth="yes"/>
      <point x="1016" y="433"/>
      <point x="1196" y="366"/>
      <point x="1194" y="274" type="curve" smooth="yes"/>
      <point x="1192" y="174"/>
      <point x="1046" y="26"/>
      <point x="722" y="26" type="curve" smooth="yes"/>
      <point x="380" y="26"/>
      <point x="197" y="195"/>
      <point x="197" y="435" type="curve" smooth="yes"/>
      <point x="197" y="625"/>
      <point x="384" y="834"/>
      <point x="831" y="857" type="curve"/>
      <point x="919" y="587" type="line"/>
      <point x="626" y="587"/>
      <point x="519" y="471"/>
    </contour>
    <contour>
      <point x="385" y="561" type="line"/>
      <point x="189" y="647"/>
      <point x="80" y="786"/>
      <point x="80" y="957" type="curve" smooth="yes"/>
      <point x="80" y="1132"/>
      <point x="251" y="1315"/>
      <point x="730" y="1315" type="curve"/>
      <point x="794" y="1052" type="line"/>
      <point x="499" y="1052"/>
      <point x="404" y="962"/>
      <point x="404" y="880" type="curve" smooth="yes"/>
      <point x="404" y="813"/>
      <point x="452" y="759"/>
      <point x="574" y="724" type="curve"/>
    </contour>
  </outline>
</glyph>
<glyph name="sevendeva" format="1">
  <advance width="1345"/>
  <unicode hex="096D"/>
  <outline>
    <contour>
      <point x="1076" y="467" type="curve"/>
      <point x="1075" y="466"/>
      <point x="990" y="267"/>
      <point x="990" y="267" type="curve"/>
      <point x="686" y="344"/>
      <point x="482" y="514"/>
      <point x="482" y="733" type="curve" smooth="yes"/>
      <point x="482" y="911"/>
      <point x="605" y="1048"/>
      <point x="817" y="1048" type="curve" smooth="yes"/>
      <point x="1055" y="1048"/>
      <point x="1275" y="854"/>
      <point x="1275" y="574" type="curve" smooth="yes"/>
      <point x="1275" y="278"/>
      <point x="1078" y="40"/>
      <point x="725" y="40" type="curve" smooth="yes"/>
      <point x="408" y="40"/>
      <point x="98" y="258"/>
      <point x="98" y="729" type="curve" smooth="yes"/>
      <point x="98" y="910"/>
      <point x="144" y="1135"/>
      <point x="198" y="1294" type="curve"/>
      <point x="487" y="1202" type="line"/>
      <point x="415" y="1019"/>
      <point x="375" y="854"/>
      <point x="375" y="650" type="curve" smooth="yes"/>
      <point x="375" y="416"/>
      <point x="531" y="270"/>
      <point x="701" y="270" type="curve" smooth="yes"/>
      <point x="878" y="270"/>
      <point x="991" y="426"/>
      <point x="991" y="620" type="curve" smooth="yes"/>
      <point x="991" y="740"/>
      <point x="925" y="786"/>
      <point x="865" y="786" type="curve" smooth="yes"/>
      <point x="807" y="786"/>
      <point x="769" y="744"/>
      <point x="769" y="679" type="curve" smooth="yes"/>
      <point x="769" y="584"/>
      <point x="855" y="501"/>
    </contour>
  </outline>
</glyph>
<glyph name="eightdeva" format="1">
  <advance width="1133"/>
  <unicode hex="096E"/>
  <outline>
    <contour>
      <point x="653" y="1320" type="line"/>
      <point x="918" y="1105" type="line"/>
      <point x="507" y="638" type="line" smooth="yes"/>
      <point x="423" y="542"/>
      <point x="399" y="486"/>
      <point x="399" y="424" type="curve" smooth="yes"/>
      <point x="399" y="355"/>
      <point x="455" y="303"/>
      <point x="556" y="303" type="curve" smooth="yes"/>
      <point x="682" y="303"/>
      <point x="798" y="354"/>
      <point x="983" y="494" type="curve"/>
      <point x="1154" y="216" type="line"/>
      <point x="978" y="80"/>
      <point x="793" y="24"/>
      <point x="631" y="24" type="curve" smooth="yes"/>
      <point x="297" y="24"/>
      <point x="81" y="243"/>
      <point x="81" y="485" type="curve" smooth="yes"/>
      <point x="81" y="604"/>
      <point x="120" y="714"/>
      <point x="232" y="842" type="curve" smooth="yes"/>
    </contour>
  </outline>
</glyph>
<glyph name="ninedeva" format="1">
  <advance width="1078"/>
  <unicode hex="096F"/>
  <outline>
    <contour>
      <point x="481" y="691" type="curve" smooth="yes"/>
      <point x="935" y="270" type="line" smooth="yes"/>
      <point x="1014" y="197"/>
      <point x="1058" y="121"/>
      <point x="1058" y="45" type="curve" smooth="yes"/>
      <point x="1058" y="-33"/>
      <point x="1033" y="-102"/>
      <point x="1003" y="-161" type="curve"/>
      <point x="663" y="-88" type="line"/>
      <point x="689" y="-43"/>
      <point x="705" y="-3"/>
      <point x="705" y="39" type="curve" smooth="yes"/>
      <point x="705" y="82"/>
      <point x="689" y="114"/>
      <point x="646" y="155" type="curve" smooth="yes"/>
      <point x="298" y="481" type="line" smooth="yes"/>
      <point x="136" y="632"/>
      <point x="63" y="755"/>
      <point x="63" y="924" type="curve" smooth="yes"/>
      <point x="63" y="1116"/>
      <point x="212" y="1314"/>
      <point x="503" y="1314" type="curve" smooth="yes"/>
      <point x="805" y="1314"/>
      <point x="985" y="1110"/>
      <point x="985" y="871" type="curve" smooth="yes"/>
      <point x="985" y="672"/>
      <point x="832" y="491"/>
      <point x="599" y="454" type="curve"/>
      <point x="423" y="658" type="line"/>
      <point x="603" y="694"/>
      <point x="677" y="791"/>
      <point x="677" y="885" type="curve" smooth="yes"/>
      <point x="677" y="977"/>
      <point x="615" y="1039"/>
      <point x="524" y="1039" type="curve" smooth="yes"/>
      <point x="440" y="1039"/>
      <point x="380" y="964"/>
      <point x="380" y="884" type="curve" smooth="yes"/>
      <point x="380" y="810"/>
      <point x="414" y="754"/>
    </contour>
  </outline>
</glyph>
<glyph name="abbreviationsigndeva" format="1">
  <advance width="1080"/>
  <unicode hex="0970"/>
  <outline>
    <contour>
      <point x="550" y="435" type="curve" smooth="yes"/>
      <point x="303" y="435"/>
      <point x="148" y="603"/>
      <point x="148" y="805" type="curve" smooth="yes"/>
      <point x="148" y="1002"/>
      <point x="303" y="1173"/>
      <point x="550" y="1173" type="curve" smooth="yes"/>
      <point x="797" y="1173"/>
      <point x="948" y="1003"/>
      <point x="948" y="805" type="curve" smooth="yes"/>
      <point x="948" y="608"/>
      <point x="797" y="435"/>
    </contour>
    <contour>
      <point x="549" y="946" type="curve" smooth="yes"/>
      <point x="479" y="946"/>
      <point x="417" y="895"/>
      <point x="417" y="805" type="curve" smooth="yes"/>
      <point x="417" y="705"/>
      <point x="480" y="663"/>
      <point x="549" y="663" type="curve" smooth="yes"/>
      <point x="617" y="663"/>
      <point x="678" y="707"/>
      <point x="678" y="805" type="curve" smooth="yes"/>
      <point x="678" y="895"/>
      <point x="617" y="946"/>
    </contour>
  </outline>
</glyph>
<glyph name="uni0971" format="1">
  <advance width="821"/>
  <unicode hex="0971"/>
  <outline>
    <contour>
      <point x="424" y="1340" type="curve" smooth="yes"/>
      <point x="571.01230863" y="1340.0"/>
      <point x="629.0" y="1252.70255835"/>
      <point x="629" y="1181" type="curve" smooth="yes"/>
      <point x="629.0" y="1111.58209632"/>
      <point x="560.989089792" y="1022.0"/>
      <point x="424" y="1022" type="curve" smooth="yes"/>
      <point x="287.440797939" y="1022.0"/>
      <point x="220.0" y="1113.23250334"/>
      <point x="220" y="1181" type="curve" smooth="yes"/>
      <point x="220.0" y="1251.88193464"/>
      <point x="281.711149954" y="1340.0"/>
    </contour>
  </outline>
</glyph>
<glyph name="awdevaKSH" format="1">
  <advance width="2396"/>
  <unicode hex="0975"/>
  <outline>
    <contour>
      <point x="1953" y="1206" type="line"/>
      <point x="1953" y="1497" type="line" smooth="yes"/>
      <point x="1953" y="1551"/>
      <point x="1927" y="1584"/>
      <point x="1830" y="1584" type="curve" smooth="yes"/>
      <point x="1774" y="1584"/>
      <point x="1727" y="1555"/>
      <point x="1614" y="1555" type="curve" smooth="yes"/>
      <point x="1481" y="1555"/>
      <point x="1390" y="1614"/>
      <point x="1309" y="1717" type="curve"/>
      <point x="1418" y="1883" type="line"/>
      <point x="1499" y="1805"/>
      <point x="1550" y="1781"/>
      <point x="1607" y="1781" type="curve" smooth="yes"/>
      <point x="1699" y="1781"/>
      <point x="1781" y="1827"/>
      <point x="1927" y="1827" type="curve" smooth="yes"/>
      <point x="2093" y="1827"/>
      <point x="2212" y="1716"/>
      <point x="2212" y="1536" type="curve" smooth="yes"/>
      <point x="2212" y="1206" type="line"/>
    </contour>
    <contour>
      <point x="1763" y="1156" type="line"/>
      <point x="1713" y="1281" type="line" smooth="yes"/>
      <point x="1688" y="1343"/>
      <point x="1651" y="1381"/>
      <point x="1572" y="1381" type="curve" smooth="yes"/>
      <point x="1505" y="1381"/>
      <point x="1459" y="1353"/>
      <point x="1336" y="1353" type="curve" smooth="yes"/>
      <point x="1188" y="1353"/>
      <point x="1081" y="1421"/>
      <point x="984" y="1525" type="curve"/>
      <point x="1101" y="1678" type="line"/>
      <point x="1189" y="1600"/>
      <point x="1256" y="1573"/>
      <point x="1328" y="1573" type="curve" smooth="yes"/>
      <point x="1437" y="1573"/>
      <point x="1514" y="1615"/>
      <point x="1616" y="1615" type="curve" smooth="yes"/>
      <point x="1832" y="1615"/>
      <point x="1896" y="1548"/>
      <point x="1972" y="1329" type="curve" smooth="yes"/>
      <point x="2032" y="1156" type="line"/>
    </contour>
    <component base="aadeva"/>
  </outline>
</glyph>
<glyph name="ddadevaMAW" format="1">
  <advance width="1298"/>
  <unicode hex="0978"/>
  <outline>
    <contour>
      <point x="-30" y="1056" type="curve"/>
      <point x="-30" y="1294" type="line"/>
      <point x="1271" y="1294" type="line"/>
      <point x="1271" y="1056" type="line"/>
      <point x="1271" y="1056"/>
      <point x="-30" y="1056"/>
    </contour>
    <contour>
      <point x="554" y="791" type="line"/>
      <point x="606" y="806"/>
      <point x="680" y="813"/>
      <point x="755" y="813" type="curve" smooth="yes"/>
      <point x="1034" y="813"/>
      <point x="1219" y="653"/>
      <point x="1219" y="408" type="curve" smooth="yes"/>
      <point x="1219" y="288"/>
      <point x="1170" y="161"/>
      <point x="1104" y="74" type="curve"/>
      <point x="805" y="179" type="line"/>
      <point x="869" y="272"/>
      <point x="905" y="351"/>
      <point x="905" y="430" type="curve" smooth="yes"/>
      <point x="905" y="484"/>
      <point x="869" y="520"/>
      <point x="808" y="520" type="curve" smooth="yes"/>
      <point x="721" y="520"/>
      <point x="624" y="469"/>
      <point x="526" y="361" type="curve"/>
      <point x="577" y="470" type="line"/>
      <point x="577" y="321" type="line" smooth="yes"/>
      <point x="577" y="228"/>
      <point x="533" y="173"/>
      <point x="451" y="173" type="curve" smooth="yes"/>
      <point x="365" y="173"/>
      <point x="227" y="233"/>
      <point x="123" y="337" type="curve" smooth="yes"/>
      <point x="57" y="403"/>
      <point x="19" y="480"/>
      <point x="19" y="540" type="curve" smooth="yes"/>
      <point x="19" y="604"/>
      <point x="56" y="647"/>
      <point x="152" y="676" type="curve" smooth="yes"/>
      <point x="249" y="705" type="line"/>
      <point x="212" y="676" type="line"/>
      <point x="212" y="1095" type="line"/>
      <point x="577" y="1095" type="line"/>
      <point x="577" y="672" type="line"/>
    </contour>
  </outline>
</glyph>
<glyph name="zhadeva" format="1">
  <advance width="1618"/>
  <unicode hex="0979"/>
  <outline>
    <component base="nuktadeva" xScale="0.884740877978" yScale="0.884740877978" xOffset="1328" yOffset="17"/>
    <component base="nuktadeva" xScale="0.884740877978" yScale="0.884740877978" xOffset="1674" yOffset="119"/>
    <component base="jadeva"/>
    <component base="nuktadeva" xScale="0.884740877978" yScale="0.884740877978" xOffset="1006" yOffset="151"/>
    <contour>
      <point x="1148" y="1294" type="move" name="top"/>
    </contour>
  </outline>
</glyph>
<glyph name="jjyadeva" format="1">
  <advance width="1436"/>
  <unicode hex="097A"/>
  <outline>
    <contour>
      <point x="1026" y="536" type="line"/>
      <point x="845" y="397" type="line"/>
      <point x="377" y="1086" type="line"/>
      <point x="568" y="1228" type="line"/>
    </contour>
    <component base="yadeva"/>
  </outline>
</glyph>
<glyph name="gabardeva" format="1">
  <advance width="1508"/>
  <unicode hex="097B"/>
  <outline>
    <contour>
      <point x="1324" y="-208" type="line"/>
      <point x="216" y="-208" type="line"/>
      <point x="216" y="0" type="line"/>
      <point x="1324" y="0" type="line"/>
    </contour>
    <component base="gadeva"/>
  </outline>
</glyph>
<glyph name="jabardeva" format="1">
  <advance width="1618"/>
  <unicode hex="097C"/>
  <outline>
    <contour>
      <point x="1434" y="-208" type="line"/>
      <point x="86" y="-208" type="line"/>
      <point x="86" y="0" type="line"/>
      <point x="1434" y="0" type="line"/>
    </contour>
    <component base="jadeva"/>
  </outline>
</glyph>
<glyph name="uni097D" format="1">
  <advance width="1129"/>
  <unicode hex="097D"/>
  <outline>
    <contour>
      <point x="666" y="514" type="line"/>
      <point x="666" y="0" type="line"/>
      <point x="300" y="0" type="line"/>
      <point x="300" y="693" type="line"/>
      <point x="313" y="694" type="line" smooth="yes"/>
      <point x="590" y="715"/>
      <point x="671" y="835"/>
      <point x="671" y="917" type="curve" smooth="yes"/>
      <point x="671" y="989"/>
      <point x="621" y="1039"/>
      <point x="536" y="1039" type="curve" smooth="yes"/>
      <point x="452" y="1039"/>
      <point x="366" y="1012"/>
      <point x="242" y="952" type="curve"/>
      <point x="162" y="1225" type="line"/>
      <point x="289" y="1280"/>
      <point x="406" y="1303"/>
      <point x="550" y="1303" type="curve" smooth="yes"/>
      <point x="836" y="1303"/>
      <point x="999" y="1120"/>
      <point x="999" y="884" type="curve" smooth="yes"/>
      <point x="999" y="664"/>
      <point x="807" y="499"/>
      <point x="628" y="471" type="curve"/>
    </contour>
  </outline>
</glyph>
<glyph name="ddabardeva" format="1">
  <advance width="1270"/>
  <unicode hex="097E"/>
  <outline>
    <contour>
      <point x="1134" y="-288" type="line"/>
      <point x="106" y="-288" type="line"/>
      <point x="106" y="-80" type="line"/>
      <point x="1134" y="-80" type="line"/>
    </contour>
    <component base="ddadeva"/>
  </outline>
</glyph>
<glyph name="babardeva" format="1">
  <advance width="1305"/>
  <unicode hex="097F"/>
  <outline>
    <contour>
      <point x="1121" y="-208" type="line"/>
      <point x="156" y="-208" type="line"/>
      <point x="156" y="0" type="line"/>
      <point x="1121" y="0" type="line"/>
    </contour>
    <component base="badeva"/>
    <contour>
      <point x="755" y="-208" type="move" name="btm"/>
    </contour>
  </outline>
</glyph>
<glyph name="uni200C" format="1">
  <advance width="0"/>
  <unicode hex="200C"/>
  <outline>
    <contour>
      <point x="24" y="-334" type="line"/>
      <point x="24" y="1609" type="line"/>
      <point x="-23" y="1609" type="line"/>
      <point x="-23" y="-334" type="line"/>
    </contour>
  </outline>
</glyph>
<glyph name="uni200D" format="1">
  <advance width="98"/>
  <unicode hex="200D"/>
  <outline>
    <contour>
      <point x="168" y="1319" type="line"/>
      <point x="168" y="1309" type="line"/>
      <point x="223" y="1259" type="line"/>
      <point x="254" y="1231" type="line"/>
      <point x="261" y="1223"/>
      <point x="275" y="1213"/>
      <point x="288" y="1203" type="curve"/>
      <point x="287" y="1203" type="line"/>
      <point x="404" y="1097" type="line"/>
      <point x="287" y="992" type="line"/>
      <point x="151" y="1119" type="line"/>
      <point x="151" y="-334" type="line"/>
      <point x="-52" y="-334" type="line"/>
      <point x="-52" y="1117" type="line"/>
      <point x="-96" y="1077"/>
      <point x="-145" y="1032"/>
      <point x="-189" y="992" type="curve"/>
      <point x="-307" y="1097" type="line"/>
      <point x="-71" y="1309" type="line"/>
      <point x="-71" y="1319" type="line"/>
      <point x="-119" y="1362"/>
      <point x="-171" y="1409"/>
      <point x="-220" y="1452" type="curve"/>
      <point x="-306" y="1529" type="line"/>
      <point x="-189" y="1633" type="line"/>
      <point x="49" y="1417" type="line"/>
      <point x="127" y="1487"/>
      <point x="208" y="1563"/>
      <point x="287" y="1633" type="curve"/>
      <point x="326" y="1596"/>
      <point x="364" y="1564"/>
      <point x="404" y="1528" type="curve"/>
    </contour>
  </outline>
</glyph>
<glyph name="endash.deva" format="1">
  <advance width="1038"/>
  <unicode hex="2013"/>
  <outline>
    <contour>
      <point x="100" y="373" type="line"/>
      <point x="100" y="621" type="line"/>
      <point x="888" y="621" type="line"/>
      <point x="888" y="373" type="line"/>
    </contour>
  </outline>
</glyph>
<glyph name="quoteright.deva" format="1">
  <advance width="788"/>
  <unicode hex="2019"/>
  <outline>
    <contour>
      <point x="585" y="1314" type="line"/>
      <point x="599" y="1294" type="line"/>
      <point x="544" y="1075"/>
      <point x="490" y="906"/>
      <point x="439" y="789" type="curve"/>
      <point x="189" y="789" type="line"/>
      <point x="230" y="980"/>
      <point x="259" y="1155"/>
      <point x="277" y="1314" type="curve"/>
    </contour>
  </outline>
</glyph>
<glyph name="uni20B9.deva" format="1">
  <advance width="1276"/>
  <unicode hex="20B9"/>
  <outline>
    <contour>
      <point x="130" y="737" type="curve"/>
      <point x="130" y="955" type="line"/>
      <point x="1096" y="955" type="line"/>
      <point x="1096" y="737" type="line"/>
      <point x="1096" y="737"/>
      <point x="130" y="737"/>
    </contour>
    <contour>
      <point x="130" y="1076" type="curve"/>
      <point x="130" y="1294" type="line"/>
      <point x="1096" y="1294" type="line"/>
      <point x="1096" y="1076" type="line"/>
      <point x="1096" y="1076"/>
      <point x="130" y="1076"/>
    </contour>
    <contour>
      <point x="166" y="479" type="line"/>
      <point x="169" y="566" type="line"/>
      <point x="449" y="580"/>
      <point x="569" y="708"/>
      <point x="569" y="851" type="curve" smooth="yes"/>
      <point x="569" y="988"/>
      <point x="468" y="1077"/>
      <point x="336" y="1077" type="curve" smooth="yes"/>
      <point x="316" y="1077" type="line"/>
      <point x="316" y="1077"/>
      <point x="319" y="1254"/>
      <point x="319" y="1254" type="curve"/>
      <point x="411" y="1254" type="line" smooth="yes"/>
      <point x="726" y="1254"/>
      <point x="912" y="1057"/>
      <point x="912" y="833" type="curve" smooth="yes"/>
      <point x="912" y="609"/>
      <point x="765" y="467"/>
      <point x="530" y="383" type="curve"/>
      <point x="530" y="482" type="line"/>
      <point x="937" y="17" type="line"/>
      <point x="938" y="0" type="line"/>
      <point x="575" y="0" type="line"/>
    </contour>
  </outline>
</glyph>
<glyph name="uni25CC" format="1">
  <advance width="1427"/>
  <unicode hex="25CC"/>
  <outline>
    <contour>
      <point x="342" y="966" type="curve" smooth="yes"/>
      <point x="342" y="915"/>
      <point x="376" y="878"/>
      <point x="427" y="878" type="curve" smooth="yes"/>
      <point x="477" y="878"/>
      <point x="513" y="915"/>
      <point x="513" y="966" type="curve" smooth="yes"/>
      <point x="513" y="1015"/>
      <point x="477" y="1052"/>
      <point x="427" y="1052" type="curve" smooth="yes"/>
      <point x="376" y="1052"/>
      <point x="342" y="1015"/>
    </contour>
    <contour>
      <point x="182" y="752" type="curve" smooth="yes"/>
      <point x="182" y="704"/>
      <point x="220" y="667"/>
      <point x="271" y="667" type="curve" smooth="yes"/>
      <point x="318" y="667"/>
      <point x="357" y="704"/>
      <point x="357" y="752" type="curve" smooth="yes"/>
      <point x="357" y="800"/>
      <point x="318" y="838"/>
      <point x="271" y="838" type="curve" smooth="yes"/>
      <point x="220" y="838"/>
      <point x="182" y="800"/>
    </contour>
    <contour>
      <point x="156" y="507" type="curve" smooth="yes"/>
      <point x="156" y="459"/>
      <point x="193" y="423"/>
      <point x="241" y="423" type="curve" smooth="yes"/>
      <point x="293" y="423"/>
      <point x="327" y="459"/>
      <point x="327" y="507" type="curve" smooth="yes"/>
      <point x="327" y="557"/>
      <point x="293" y="594"/>
      <point x="241" y="594" type="curve" smooth="yes"/>
      <point x="193" y="594"/>
      <point x="156" y="557"/>
    </contour>
    <contour>
      <point x="258" y="280" type="curve" smooth="yes"/>
      <point x="258" y="231"/>
      <point x="293" y="195"/>
      <point x="343" y="195" type="curve" smooth="yes"/>
      <point x="391" y="195"/>
      <point x="429" y="231"/>
      <point x="429" y="280" type="curve" smooth="yes"/>
      <point x="429" y="328"/>
      <point x="391" y="366"/>
      <point x="343" y="366" type="curve" smooth="yes"/>
      <point x="293" y="366"/>
      <point x="258" y="328"/>
    </contour>
    <contour>
      <point x="454" y="135" type="curve" smooth="yes"/>
      <point x="454" y="84"/>
      <point x="491" y="45"/>
      <point x="543" y="45" type="curve" smooth="yes"/>
      <point x="591" y="45"/>
      <point x="628" y="84"/>
      <point x="628" y="135" type="curve" smooth="yes"/>
      <point x="628" y="182"/>
      <point x="591" y="220"/>
      <point x="543" y="220" type="curve" smooth="yes"/>
      <point x="491" y="220"/>
      <point x="454" y="182"/>
    </contour>
    <contour>
      <point x="702" y="103" type="curve" smooth="yes"/>
      <point x="702" y="54"/>
      <point x="736" y="18"/>
      <point x="788" y="18" type="curve" smooth="yes"/>
      <point x="838" y="18"/>
      <point x="875" y="54"/>
      <point x="875" y="103" type="curve" smooth="yes"/>
      <point x="875" y="155"/>
      <point x="838" y="189"/>
      <point x="788" y="189" type="curve" smooth="yes"/>
      <point x="736" y="189"/>
      <point x="702" y="155"/>
    </contour>
    <contour>
      <point x="938" y="206" type="curve" smooth="yes"/>
      <point x="938" y="156"/>
      <point x="974" y="120"/>
      <point x="1023" y="120" type="curve" smooth="yes"/>
      <point x="1072" y="120"/>
      <point x="1112" y="156"/>
      <point x="1112" y="206" type="curve" smooth="yes"/>
      <point x="1112" y="256"/>
      <point x="1072" y="292"/>
      <point x="1023" y="292" type="curve" smooth="yes"/>
      <point x="974" y="292"/>
      <point x="938" y="256"/>
    </contour>
    <contour>
      <point x="1080" y="397" type="curve" smooth="yes"/>
      <point x="1080" y="349"/>
      <point x="1117" y="312"/>
      <point x="1167" y="312" type="curve" smooth="yes"/>
      <point x="1214" y="312"/>
      <point x="1251" y="349"/>
      <point x="1251" y="397" type="curve" smooth="yes"/>
      <point x="1251" y="448"/>
      <point x="1214" y="486"/>
      <point x="1167" y="486" type="curve" smooth="yes"/>
      <point x="1117" y="486"/>
      <point x="1080" y="448"/>
    </contour>
    <contour>
      <point x="1099" y="658" type="curve" smooth="yes"/>
      <point x="1099" y="608"/>
      <point x="1134" y="573"/>
      <point x="1184" y="573" type="curve" smooth="yes"/>
      <point x="1234" y="573"/>
      <point x="1271" y="608"/>
      <point x="1271" y="658" type="curve" smooth="yes"/>
      <point x="1271" y="709"/>
      <point x="1234" y="743"/>
      <point x="1184" y="743" type="curve" smooth="yes"/>
      <point x="1134" y="743"/>
      <point x="1099" y="709"/>
    </contour>
    <contour>
      <point x="1001" y="887" type="curve" smooth="yes"/>
      <point x="1001" y="839"/>
      <point x="1039" y="802"/>
      <point x="1087" y="802" type="curve" smooth="yes"/>
      <point x="1139" y="802"/>
      <point x="1173" y="839"/>
      <point x="1173" y="887" type="curve" smooth="yes"/>
      <point x="1173" y="939"/>
      <point x="1139" y="976"/>
      <point x="1087" y="976" type="curve" smooth="yes"/>
      <point x="1039" y="976"/>
      <point x="1001" y="939"/>
    </contour>
    <contour>
      <point x="817" y="1021" type="curve" smooth="yes"/>
      <point x="817" y="974"/>
      <point x="853" y="935"/>
      <point x="905" y="935" type="curve" smooth="yes"/>
      <point x="953" y="935"/>
      <point x="988" y="974"/>
      <point x="988" y="1021" type="curve" smooth="yes"/>
      <point x="988" y="1070"/>
      <point x="953" y="1107"/>
      <point x="905" y="1107" type="curve" smooth="yes"/>
      <point x="853" y="1107"/>
      <point x="817" y="1070"/>
    </contour>
    <contour>
      <point x="571" y="1049" type="curve" smooth="yes"/>
      <point x="571" y="999"/>
      <point x="607" y="964"/>
      <point x="657" y="964" type="curve" smooth="yes"/>
      <point x="708" y="964"/>
      <point x="742" y="999"/>
      <point x="742" y="1049" type="curve" smooth="yes"/>
      <point x="742" y="1100"/>
      <point x="708" y="1136"/>
      <point x="657" y="1136" type="curve" smooth="yes"/>
      <point x="607" y="1136"/>
      <point x="571" y="1100"/>
    </contour>
  </outline>
</glyph>
<glyph name=".notdef" format="1">
  <advance width="1258"/>
  <outline>
    <contour>
      <point x="188" y="1292" type="line"/>
      <point x="1059" y="1292" type="line"/>
      <point x="1059" y="0" type="line"/>
      <point x="188" y="0" type="line"/>
    </contour>
    <contour>
      <point x="883" y="105" type="line"/>
      <point x="883" y="1187" type="line"/>
      <point x="365" y="1187" type="line"/>
      <point x="365" y="105" type="line"/>
    </contour>
  </outline>
</glyph>
<glyph name="aivowelsignanusvaradeva" format="1">
  <advance width="0"/>
  <outline>
    <component base="aivowelsigndeva"/>
    <component base="anusvaradeva" xOffset="330"/>
    <contour>
      <point x="49" y="8" type="move" name="x39"/>
    </contour>
    <contour>
      <point x="-424" y="1282" type="move" name="_mark0"/>
    </contour>
  </outline>
</glyph>
<glyph name="aivowelsigncandrabindudeva" format="1">
  <advance width="0"/>
  <outline>
    <component base="aivowelsigndeva"/>
    <component base="candrabindusmalldeva" xOffset="220"/>
    <contour>
      <point x="-119" y="1836" type="move" name="x27"/>
    </contour>
    <contour>
      <point x="-424" y="1274" type="move" name="_mark0"/>
    </contour>
  </outline>
</glyph>
<glyph name="aivowelsignrephanusvaradeva" format="1">
  <advance width="0"/>
  <outline>
    <contour>
      <point x="-556" y="1294" type="move"/>
    </contour>
    <component base="rephanusvaradeva" xOffset="89"/>
    <component base="aivowelsigndeva"/>
    <contour>
      <point x="-556" y="1294" type="move" name="_top"/>
    </contour>
  </outline>
</glyph>
<glyph name="aivowelsignrephdeva" format="1">
  <advance width="0"/>
  <outline>
    <component base="aivowelsigndeva"/>
    <component base="rephdeva" xOffset="76"/>
    <contour>
      <point x="49" y="8" type="move" name="x38"/>
    </contour>
    <contour>
      <point x="-424" y="1282" type="move" name="_mark0"/>
    </contour>
  </outline>
</glyph>
<glyph name="anusvaradeva01" format="1">
  <advance width="0"/>
  <outline>
    <contour>
      <point x="-88" y="1791" type="curve" smooth="yes"/>
      <point x="30" y="1791"/>
      <point x="81" y="1711"/>
      <point x="81" y="1643" type="curve" smooth="yes"/>
      <point x="81" y="1575"/>
      <point x="30" y="1493"/>
      <point x="-88" y="1493" type="curve" smooth="yes"/>
      <point x="-200" y="1493"/>
      <point x="-258" y="1571"/>
      <point x="-258" y="1643" type="curve" smooth="yes"/>
      <point x="-258" y="1712"/>
      <point x="-202" y="1791"/>
    </contour>
    <contour>
      <point x="49.0" y="8.0" type="move" name="x12"/>
    </contour>
    <contour>
      <point x="-424.0" y="1282.0" type="move" name="_mark0"/>
    </contour>
  </outline>
</glyph>
<glyph name="baprehalfdeva" format="1">
  <advance width="723"/>
  <outline>
    <contour>
      <point x="768" y="437" type="line"/>
      <point x="639" y="342" type="line"/>
      <point x="338" y="685" type="line"/>
      <point x="467" y="780" type="line"/>
    </contour>
    <contour>
      <point x="753" y="1056" type="line"/>
      <point x="-30" y="1056" type="line"/>
      <point x="-30" y="1294" type="line"/>
      <point x="753" y="1294" type="line"/>
    </contour>
    <contour>
      <point x="751" y="586" type="curve" smooth="yes"/>
      <point x="751" y="641"/>
      <point x="679" y="696"/>
      <point x="562" y="696" type="curve" smooth="yes"/>
      <point x="439" y="696"/>
      <point x="379" y="639"/>
      <point x="379" y="554" type="curve" smooth="yes"/>
      <point x="379" y="483"/>
      <point x="437" y="423"/>
      <point x="514" y="423" type="curve" smooth="yes"/>
      <point x="649" y="423"/>
      <point x="751" y="493"/>
    </contour>
    <contour>
      <point x="1056" y="560" type="curve" smooth="yes"/>
      <point x="1056" y="307"/>
      <point x="842" y="151"/>
      <point x="563" y="151" type="curve" smooth="yes"/>
      <point x="247" y="151"/>
      <point x="53" y="371"/>
      <point x="53" y="613" type="curve" smooth="yes"/>
      <point x="53" y="810"/>
      <point x="212" y="952"/>
      <point x="462" y="952" type="curve" smooth="yes"/>
      <point x="855" y="952"/>
      <point x="1056" y="754"/>
    </contour>
  </outline>
</glyph>
<glyph name="baradeva" format="1">
  <advance width="1305"/>
  <outline>
    <contour>
      <point x="862" y="232" type="line"/>
      <point x="221" y="-137" type="line"/>
      <point x="24" y="98" type="line"/>
      <point x="695" y="477" type="line"/>
    </contour>
    <component base="badeva"/>
  </outline>
</glyph>
<glyph name="baraprehalfdeva" format="1">
  <advance width="723"/>
  <outline>
    <contour>
      <point x="817" y="204" type="line"/>
      <point x="181" y="-137" type="line"/>
      <point x="24" y="108" type="line"/>
      <point x="650" y="444" type="line"/>
    </contour>
    <component base="baprehalfdeva"/>
  </outline>
</glyph>
<glyph name="bhaprehalfdeva" format="1">
  <advance width="962"/>
  <outline>
    <contour>
      <point x="1175" y="1056" type="line"/>
      <point x="875" y="1056" type="line"/>
      <point x="875" y="1294" type="line"/>
      <point x="1175" y="1294" type="line"/>
    </contour>
    <contour>
      <point x="443" y="695" type="line"/>
      <point x="406" y="666" type="line"/>
      <point x="406" y="992" type="line" smooth="yes"/>
      <point x="406" y="1086"/>
      <point x="358" y="1136"/>
      <point x="296" y="1136" type="curve" smooth="yes"/>
      <point x="247" y="1136"/>
      <point x="217" y="1102"/>
      <point x="217" y="1060" type="curve" smooth="yes"/>
      <point x="217" y="1006"/>
      <point x="264" y="960"/>
      <point x="418" y="960" type="curve"/>
      <point x="424" y="753" type="line"/>
      <point x="66" y="753"/>
      <point x="-92" y="912"/>
      <point x="-92" y="1105" type="curve" smooth="yes"/>
      <point x="-92" y="1248"/>
      <point x="11" y="1384"/>
      <point x="258" y="1384" type="curve" smooth="yes"/>
      <point x="535" y="1384"/>
      <point x="742" y="1206"/>
      <point x="742" y="945" type="curve" smooth="yes"/>
      <point x="742" y="652" type="line"/>
      <point x="709" y="696" type="line"/>
      <point x="1175" y="696" type="line"/>
      <point x="1175" y="399" type="line"/>
      <point x="690" y="399" type="line"/>
      <point x="742" y="450" type="line"/>
      <point x="742" y="321" type="line" smooth="yes"/>
      <point x="742" y="228"/>
      <point x="707" y="172"/>
      <point x="615" y="172" type="curve" smooth="yes"/>
      <point x="528" y="172"/>
      <point x="409" y="226"/>
      <point x="328" y="307" type="curve" smooth="yes"/>
      <point x="257" y="378"/>
      <point x="201" y="480"/>
      <point x="201" y="570" type="curve" smooth="yes"/>
      <point x="201" y="644"/>
      <point x="247" y="695"/>
      <point x="337" y="695" type="curve" smooth="yes"/>
    </contour>
  </outline>
</glyph>
<glyph name="bharadeva" format="1">
  <advance width="1561"/>
  <outline>
    <contour>
      <point x="1248" y="232" type="line"/>
      <point x="577" y="-177" type="line"/>
      <point x="400" y="58" type="line"/>
      <point x="1081" y="477" type="line"/>
    </contour>
    <component base="bhadeva"/>
  </outline>
</glyph>
<glyph name="bharaprehalfdeva" format="1">
  <advance width="962"/>
  <outline>
    <contour>
      <point x="1408" y="302" type="line"/>
      <point x="827" y="-157" type="line"/>
      <point x="620" y="58" type="line"/>
      <point x="1221" y="527" type="line"/>
    </contour>
    <contour>
      <point x="443" y="695" type="line"/>
      <point x="406" y="666" type="line"/>
      <point x="406" y="992" type="line" smooth="yes"/>
      <point x="406" y="1086"/>
      <point x="358" y="1136"/>
      <point x="296" y="1136" type="curve" smooth="yes"/>
      <point x="247" y="1136"/>
      <point x="217" y="1102"/>
      <point x="217" y="1060" type="curve" smooth="yes"/>
      <point x="217" y="1006"/>
      <point x="264" y="960"/>
      <point x="418" y="960" type="curve"/>
      <point x="424" y="753" type="line"/>
      <point x="66" y="753"/>
      <point x="-92" y="912"/>
      <point x="-92" y="1105" type="curve" smooth="yes"/>
      <point x="-92" y="1248"/>
      <point x="11" y="1384"/>
      <point x="258" y="1384" type="curve" smooth="yes"/>
      <point x="535" y="1384"/>
      <point x="742" y="1206"/>
      <point x="742" y="945" type="curve" smooth="yes"/>
      <point x="742" y="652" type="line"/>
      <point x="709" y="696" type="line"/>
      <point x="1251" y="696" type="line"/>
      <point x="1272" y="399" type="line"/>
      <point x="690" y="399" type="line"/>
      <point x="742" y="450" type="line"/>
      <point x="742" y="321" type="line" smooth="yes"/>
      <point x="742" y="228"/>
      <point x="707" y="172"/>
      <point x="615" y="172" type="curve" smooth="yes"/>
      <point x="528" y="172"/>
      <point x="409" y="226"/>
      <point x="328" y="307" type="curve" smooth="yes"/>
      <point x="257" y="378"/>
      <point x="201" y="480"/>
      <point x="201" y="570" type="curve" smooth="yes"/>
      <point x="201" y="644"/>
      <point x="247" y="695"/>
      <point x="337" y="695" type="curve" smooth="yes"/>
    </contour>
  </outline>
</glyph>
<glyph name="candrabindusmalldeva" format="1">
  <advance width="0"/>
  <outline>
    <contour>
      <point x="-370" y="1925" type="curve" smooth="yes"/>
      <point x="-270" y="1925"/>
      <point x="-227" y="1857"/>
      <point x="-227" y="1800" type="curve" smooth="yes"/>
      <point x="-227" y="1743"/>
      <point x="-270" y="1674"/>
      <point x="-370" y="1674" type="curve" smooth="yes"/>
      <point x="-464" y="1674"/>
      <point x="-513" y="1740"/>
      <point x="-513" y="1800" type="curve" smooth="yes"/>
      <point x="-513" y="1858"/>
      <point x="-466" y="1925"/>
    </contour>
    <contour>
      <point x="41" y="1542" type="line"/>
      <point x="-78" y="1415"/>
      <point x="-202" y="1355"/>
      <point x="-352" y="1355" type="curve" smooth="yes"/>
      <point x="-496" y="1355"/>
      <point x="-628" y="1413"/>
      <point x="-762" y="1541" type="curve"/>
      <point x="-657" y="1767" type="line"/>
      <point x="-542" y="1656"/>
      <point x="-471" y="1611"/>
      <point x="-361" y="1611" type="curve" smooth="yes"/>
      <point x="-250" y="1611"/>
      <point x="-176" y="1657"/>
      <point x="-82" y="1760" type="curve"/>
    </contour>
    <contour>
      <point x="49.0" y="8.0" type="move" name="x26"/>
    </contour>
    <contour>
      <point x="-424.0" y="1282.0" type="move" name="_mark0"/>
    </contour>
  </outline>
</glyph>
<glyph name="caprehalfdeva" format="1">
  <advance width="847"/>
  <outline>
    <contour>
      <point x="20" y="622" type="curve"/>
      <point x="20" y="897" type="line"/>
      <point x="775" y="897" type="line"/>
      <point x="775" y="622" type="line"/>
      <point x="775" y="622"/>
      <point x="20" y="622"/>
    </contour>
    <contour>
      <point x="1029" y="681" type="curve"/>
      <point x="1269" y="438" type="line"/>
      <point x="1120" y="248"/>
      <point x="962" y="122"/>
      <point x="697" y="122" type="curve" smooth="yes"/>
      <point x="381" y="122"/>
      <point x="221" y="319"/>
      <point x="221" y="529" type="curve" smooth="yes"/>
      <point x="221" y="722"/>
      <point x="354" y="884"/>
      <point x="685" y="884" type="curve"/>
      <point x="716" y="625" type="line"/>
      <point x="606" y="627"/>
      <point x="555" y="552"/>
      <point x="555" y="490" type="curve" smooth="yes"/>
      <point x="555" y="439"/>
      <point x="604" y="405"/>
      <point x="656" y="405" type="curve" smooth="yes"/>
      <point x="767" y="405"/>
      <point x="907" y="487"/>
    </contour>
    <contour>
      <point x="-21" y="1056" type="curve"/>
      <point x="-21" y="1294" type="line"/>
      <point x="1170" y="1294" type="line"/>
      <point x="1170" y="1056" type="line"/>
      <point x="1170" y="1056"/>
      <point x="-21" y="1056"/>
    </contour>
  </outline>
</glyph>
<glyph name="caradeva" format="1">
  <advance width="1513"/>
  <outline>
    <contour>
      <point x="1072" y="202" type="line"/>
      <point x="361" y="-167" type="line"/>
      <point x="194" y="98" type="line"/>
      <point x="905" y="457" type="line"/>
    </contour>
    <component base="cadeva"/>
    <contour>
      <point x="963" y="1294" type="move" name="top"/>
    </contour>
  </outline>
</glyph>
<glyph name="caraprehalfdeva" format="1">
  <advance width="847"/>
  <outline>
    <contour>
      <point x="1002" y="202" type="line"/>
      <point x="311" y="-157" type="line"/>
      <point x="134" y="98" type="line"/>
      <point x="835" y="447" type="line"/>
    </contour>
    <component base="caprehalfdeva"/>
  </outline>
</glyph>
<glyph name="chaaltdeva" format="1">
  <advance width="1644"/>
  <outline>
    <contour>
      <point x="688" y="829" type="curve"/>
      <point x="780" y="546" type="line"/>
      <point x="779" y="546"/>
      <point x="777" y="546"/>
      <point x="776" y="546" type="curve" smooth="yes"/>
      <point x="612" y="530"/>
      <point x="560" y="480"/>
      <point x="560" y="426" type="curve" smooth="yes"/>
      <point x="560" y="366"/>
      <point x="621" y="330"/>
      <point x="750" y="330" type="curve" smooth="yes"/>
      <point x="1001" y="330"/>
      <point x="1266" y="503"/>
      <point x="1266" y="683" type="curve" smooth="yes"/>
      <point x="1266" y="742"/>
      <point x="1231" y="777"/>
      <point x="1187" y="777" type="curve" smooth="yes"/>
      <point x="1141" y="777"/>
      <point x="1108" y="741"/>
      <point x="1108" y="683" type="curve" smooth="yes"/>
      <point x="1108" y="598"/>
      <point x="1154" y="540"/>
      <point x="1336" y="407" type="curve"/>
      <point x="1167" y="260" type="line"/>
      <point x="906" y="451"/>
      <point x="809" y="576"/>
      <point x="809" y="727" type="curve" smooth="yes"/>
      <point x="809" y="877"/>
      <point x="942" y="1005"/>
      <point x="1167" y="1005" type="curve" smooth="yes"/>
      <point x="1406" y="1005"/>
      <point x="1565" y="863"/>
      <point x="1565" y="641" type="curve" smooth="yes"/>
      <point x="1565" y="396"/>
      <point x="1255" y="61"/>
      <point x="755" y="61" type="curve" smooth="yes"/>
      <point x="384" y="61"/>
      <point x="195" y="258"/>
      <point x="195" y="466" type="curve" smooth="yes"/>
      <point x="195" y="644"/>
      <point x="353" y="821"/>
      <point x="683" y="829" type="curve" smooth="yes"/>
      <point x="685" y="829"/>
      <point x="686" y="829"/>
    </contour>
    <contour>
      <point x="610" y="787" type="curve"/>
      <point x="379" y="605" type="line"/>
      <point x="142" y="679"/>
      <point x="56" y="808"/>
      <point x="56" y="954" type="curve" smooth="yes"/>
      <point x="56" y="1095"/>
      <point x="206" y="1262"/>
      <point x="524" y="1264" type="curve"/>
      <point x="624" y="1076" type="line"/>
      <point x="483" y="1066"/>
      <point x="418" y="987"/>
      <point x="418" y="917" type="curve" smooth="yes"/>
      <point x="418" y="862"/>
      <point x="469" y="810"/>
    </contour>
    <contour>
      <point x="1674" y="1056" type="line"/>
      <point x="-30" y="1056" type="line"/>
      <point x="-30" y="1294" type="line"/>
      <point x="1674" y="1294" type="line"/>
    </contour>
    <contour>
      <point x="980" y="1094" type="line"/>
      <point x="1346" y="1094" type="line"/>
      <point x="1346" y="890" type="line"/>
      <point x="980" y="890" type="line"/>
    </contour>
    <contour>
      <point x="49" y="8" type="move" name="x65"/>
    </contour>
    <contour>
      <point x="1726" y="8" type="move" name="x66"/>
    </contour>
    <contour>
      <point x="951" y="8" type="move" name="mark0"/>
    </contour>
  </outline>
</glyph>
<glyph name="chanuktadeva" format="1">
  <advance width="1644"/>
  <outline>
    <component base="nuktadeva" xOffset="1688" yOffset="20"/>
    <component base="chadeva"/>
    <contour>
      <point x="867" y="-122" type="move" name="x65"/>
    </contour>
    <contour>
      <point x="1085" y="1274" type="move" name="mark0"/>
    </contour>
  </outline>
</glyph>
<glyph name="chaprehalfdeva" format="1">
  <advance width="1617"/>
  <outline>
    <contour>
      <point x="688" y="809" type="curve"/>
      <point x="780" y="526" type="line"/>
      <point x="779" y="526"/>
      <point x="777" y="526"/>
      <point x="776" y="526" type="curve" smooth="yes"/>
      <point x="612" y="510"/>
      <point x="560" y="448"/>
      <point x="560" y="386" type="curve" smooth="yes"/>
      <point x="560" y="316"/>
      <point x="621" y="260"/>
      <point x="750" y="260" type="curve" smooth="yes"/>
      <point x="1001" y="260"/>
      <point x="1266" y="483"/>
      <point x="1266" y="663" type="curve" smooth="yes"/>
      <point x="1266" y="722"/>
      <point x="1231" y="757"/>
      <point x="1187" y="757" type="curve" smooth="yes"/>
      <point x="1141" y="757"/>
      <point x="1108" y="721"/>
      <point x="1108" y="663" type="curve" smooth="yes"/>
      <point x="1108" y="578"/>
      <point x="1154" y="500"/>
      <point x="1336" y="357" type="curve"/>
      <point x="1167" y="210" type="line"/>
      <point x="896" y="401"/>
      <point x="809" y="546"/>
      <point x="809" y="730" type="curve" smooth="yes"/>
      <point x="809" y="857"/>
      <point x="904" y="1005"/>
      <point x="1147" y="1005" type="curve" smooth="yes"/>
      <point x="1404" y="1005"/>
      <point x="1565" y="843"/>
      <point x="1565" y="616" type="curve" smooth="yes"/>
      <point x="1565" y="346"/>
      <point x="1255" y="-9"/>
      <point x="755" y="-9" type="curve" smooth="yes"/>
      <point x="394" y="-9"/>
      <point x="195" y="208"/>
      <point x="195" y="436" type="curve" smooth="yes"/>
      <point x="195" y="634"/>
      <point x="353" y="801"/>
      <point x="683" y="809" type="curve" smooth="yes"/>
      <point x="685" y="809"/>
      <point x="686" y="809"/>
    </contour>
    <contour>
      <point x="610" y="767" type="curve"/>
      <point x="379" y="585" type="line"/>
      <point x="142" y="659"/>
      <point x="56" y="788"/>
      <point x="56" y="954" type="curve" smooth="yes"/>
      <point x="56" y="1095"/>
      <point x="206" y="1262"/>
      <point x="524" y="1264" type="curve"/>
      <point x="624" y="1076" type="line"/>
      <point x="483" y="1066"/>
      <point x="418" y="987"/>
      <point x="418" y="917" type="curve" smooth="yes"/>
      <point x="418" y="842"/>
      <point x="469" y="790"/>
    </contour>
    <contour>
      <point x="1668" y="1056" type="line"/>
      <point x="-59" y="1056" type="line"/>
      <point x="-59" y="1294" type="line"/>
      <point x="1668" y="1294" type="line"/>
    </contour>
  </outline>
</glyph>
